<?xml version="1.0" encoding="UTF-8" standalone="no"?>
<!DOCTYPE svg PUBLIC "-//W3C//DTD SVG 1.1//EN" "http://www.w3.org/Graphics/SVG/1.1/DTD/svg11.dtd">
<svg width="100%" height="100%" viewBox="0 0 941 797" version="1.1" xmlns="http://www.w3.org/2000/svg" xmlns:xlink="http://www.w3.org/1999/xlink" xml:space="preserve" xmlns:serif="http://www.serif.com/" style="fill-rule:evenodd;clip-rule:evenodd;stroke-linecap:round;stroke-linejoin:round;stroke-miterlimit:1.5;">
    <g transform="matrix(0.999997,0,0,0.999998,501.372,-190.825)">
        <g>
            <g>
                <g>
                    <g id="Layer1">
                    </g>
                </g>
            </g>
        </g>
    </g>
    <g transform="matrix(0.999997,0,0,0.999998,501.372,-190.825)">
        <g transform="matrix(0.962369,0,0,0.962471,-1034.52,-1083.35)">
            <circle cx="1057.35" cy="1737.7" r="413.85" style="fill:rgb(255,238,233);"/>
        </g>
        <g transform="matrix(1,0,0,1,-494.773,-20.3186)">
            <g transform="matrix(0.830366,0,0,0.074618,-309.798,747.909)">
                <circle cx="947.823" cy="1589.94" r="346.998" style="fill-opacity:0.25;"/>
            </g>
            <g transform="matrix(-1,0,0,1,1027.28,-2.27374e-13)">
                <g transform="matrix(-1,0,0,1,1087.77,4.54747e-13)">
                    <g transform="matrix(1.17736,0,0,1.17736,-76.3153,-123.566)">
                        <path d="M372.825,533.416C394.083,523.214 362.266,707.126 362.266,730.705C362.266,754.284 343.123,773.428 319.544,773.428C295.964,773.428 277.018,754.283 276.821,730.705C276.377,653.614 329.246,554.328 372.825,533.416Z" style="fill:rgb(254,158,155);"/>
                        <g>
                            <g>
                                <clipPath id="_clip1">
                                    <path d="M372.825,533.416C394.083,523.214 362.266,707.126 362.266,730.705C362.266,754.284 343.123,773.428 319.544,773.428C295.964,773.428 277.018,754.283 276.821,730.705C276.377,653.614 329.246,554.328 372.825,533.416Z"/>
                                </clipPath>
                                <g clip-path="url(#_clip1)">
                                    <g transform="matrix(0.393214,0.24704,-0.290618,0.462577,212.856,187.004)">
                                        <ellipse cx="716.185" cy="713.203" rx="33.711" ry="33.625" style="fill:rgb(254,139,136);"/>
                                    </g>
                                    <g transform="matrix(0.224096,0.0607668,-0.0479978,0.177006,170.009,555.049)">
                                        <ellipse cx="716.185" cy="713.203" rx="33.711" ry="33.625" style="fill:rgb(254,139,136);"/>
                                    </g>
                                    <g transform="matrix(0.24234,0.0657138,-0.0749113,0.276258,229.453,356.586)">
                                        <ellipse cx="716.185" cy="713.203" rx="33.711" ry="33.625" style="fill:rgb(254,139,136);"/>
                                    </g>
                                    <g transform="matrix(0.149978,0.0406686,-0.0444381,0.163879,265.317,417.922)">
                                        <ellipse cx="716.185" cy="713.203" rx="33.711" ry="33.625" style="fill:rgb(254,139,136);"/>
                                    </g>
                                </g>
                            </g>
                        </g>
                    </g>
                    <g>
                        <g transform="matrix(1.06141,-0.275349,0.244509,0.85127,-193.492,195.275)">
                            <path d="M290.19,783.38C288.758,786.684 296.238,800.597 299.433,800.177C302.628,799.757 310.207,785.248 308.444,782.365C306.681,779.481 291.623,780.077 290.19,783.38Z" style="fill:rgb(253,107,103);"/>
                        </g>
                        <g transform="matrix(-1.07544,-0.0660621,-0.0653559,0.881921,666.254,110.261)">
                            <path d="M290.428,785.087C288.995,788.391 294.241,801.579 297.436,801.159C300.632,800.739 309.961,788.485 307.25,783.423C305.645,780.428 291.86,781.784 290.428,785.087Z" style="fill:rgb(253,107,103);"/>
                        </g>
                        <g transform="matrix(-1.06751,-0.146164,-0.131012,0.874581,695.353,130.182)">
                            <path d="M291.975,790.144C290.791,793.567 296.094,803.321 300.322,802.693C303.511,802.219 310.259,786.712 307.548,781.65C305.943,778.654 293.457,785.861 291.975,790.144Z" style="fill:rgb(253,107,103);"/>
                        </g>
                    </g>
                </g>
                <g transform="matrix(-1,0,0,1,1091.54,0)">
                    <g transform="matrix(-1.17736,0,0,1.17736,1167.86,-123.566)">
                        <path d="M372.825,533.416C394.083,523.214 362.266,707.126 362.266,730.705C362.266,754.284 343.123,773.428 319.544,773.428C295.964,773.428 277.018,754.283 276.821,730.705C276.377,653.614 329.246,554.328 372.825,533.416Z" style="fill:rgb(254,158,155);"/>
                        <g>
                            <g>
                                <clipPath id="_clip2">
                                    <path d="M372.825,533.416C394.083,523.214 362.266,707.126 362.266,730.705C362.266,754.284 343.123,773.428 319.544,773.428C295.964,773.428 277.018,754.283 276.821,730.705C276.377,653.614 329.246,554.328 372.825,533.416Z"/>
                                </clipPath>
                                <g clip-path="url(#_clip2)">
                                    <g transform="matrix(-0.487611,0.365976,0.312298,0.416092,443.489,44.2617)">
                                        <ellipse cx="716.185" cy="713.203" rx="33.711" ry="33.625" style="fill:rgb(254,139,136);"/>
                                    </g>
                                    <g transform="matrix(-0.199645,0.149844,0.161541,0.21523,344.773,379.246)">
                                        <ellipse cx="716.185" cy="713.203" rx="33.711" ry="33.625" style="fill:rgb(254,139,136);"/>
                                    </g>
                                    <g transform="matrix(-0.253509,0.190271,0.236355,0.31491,310.487,391.509)">
                                        <ellipse cx="716.185" cy="713.203" rx="33.711" ry="33.625" style="fill:rgb(254,139,136);"/>
                                    </g>
                                </g>
                            </g>
                        </g>
                    </g>
                    <g>
                        <g transform="matrix(-1.06141,-0.275349,-0.244509,0.85127,1284.75,195.275)">
                            <path d="M290.19,783.38C288.758,786.684 296.238,800.597 299.433,800.177C302.628,799.757 310.207,785.248 308.444,782.365C306.681,779.481 291.623,780.077 290.19,783.38Z" style="fill:rgb(253,107,103);"/>
                        </g>
                        <g transform="matrix(1.07544,-0.0660621,0.0653559,0.881921,425.002,110.261)">
                            <path d="M290.428,785.087C288.995,788.391 294.241,801.579 297.436,801.159C300.632,800.739 309.961,788.485 307.25,783.423C305.645,780.428 291.86,781.784 290.428,785.087Z" style="fill:rgb(253,107,103);"/>
                        </g>
                        <g transform="matrix(1.06751,-0.146164,0.131012,0.874581,395.903,130.182)">
                            <path d="M291.975,790.144C290.791,793.567 296.094,803.321 300.322,802.693C303.511,802.219 310.259,786.712 307.548,781.65C305.943,778.654 293.457,785.861 291.975,790.144Z" style="fill:rgb(253,107,103);"/>
                        </g>
                    </g>
                </g>
                <g transform="matrix(1,0,0,1,-3.86463,1.22768)">
                    <path d="M749.396,787.037C744.555,815.549 736.796,840.719 725.268,858.169C680.633,875.763 610.395,872.325 593.263,856.595C587.613,851.407 587.799,808.847 587.014,796.707C606.964,794.251 684.879,792.465 749.396,787.037Z" style="fill:rgb(254,158,155);"/>
                    <g>
                        <g>
                            <clipPath id="_clip3">
                                <path d="M749.396,787.037C744.555,815.549 736.796,840.719 725.268,858.169C680.633,875.763 610.395,872.325 593.263,856.595C587.613,851.407 587.799,808.847 587.014,796.707C606.964,794.251 684.879,792.465 749.396,787.037Z"/>
                            </clipPath>
                            <g clip-path="url(#_clip3)">
                                <g transform="matrix(0.121406,-0.485037,0.375826,0.0940699,239.034,1128.44)">
                                    <ellipse cx="716.185" cy="713.203" rx="33.711" ry="33.625" style="fill:rgb(254,139,136);"/>
                                </g>
                                <g transform="matrix(0.17203,-0.102928,0.0738604,0.123447,441.169,828.417)">
                                    <ellipse cx="716.185" cy="713.203" rx="33.711" ry="33.625" style="fill:rgb(254,139,136);"/>
                                </g>
                                <g transform="matrix(0.262152,-0.156849,0.127891,0.213752,430.004,774.938)">
                                    <ellipse cx="716.185" cy="713.203" rx="33.711" ry="33.625" style="fill:rgb(254,139,136);"/>
                                </g>
                                <g transform="matrix(-1.74101,0.071285,-0.0565149,-1.05452,1266.97,1674.3)">
                                    <path d="M290.938,786.582C289.41,792.161 297.703,804.169 300.898,803.749C304.093,803.33 311.209,788.682 308.498,783.621C306.894,780.625 291.951,782.885 290.938,786.582Z" style="fill:rgb(252,74,71);"/>
                                </g>
                                <g transform="matrix(-1.71992,0.279451,-0.182503,-1.04014,1317.96,1602.94)">
                                    <path d="M289.567,781.055C288.135,784.359 293.814,803.202 297.009,802.782C300.204,802.362 310.218,789.057 307.507,783.995C305.903,781 291,777.752 289.567,781.055Z" style="fill:rgb(252,74,71);"/>
                                </g>
                                <g transform="matrix(-1.74161,0.0546098,-0.0456307,-1.0372,1176.08,1664.62)">
                                    <path d="M289.567,781.055C288.135,784.359 294.32,802.205 297.515,801.785C300.71,801.365 310.218,789.057 307.507,783.995C305.903,781 291,777.752 289.567,781.055Z" style="fill:rgb(252,74,71);"/>
                                </g>
                            </g>
                        </g>
                    </g>
                </g>
                <g transform="matrix(-1,0,0,1,1090.7,1.22768)">
                    <path d="M749.396,787.037C744.555,815.549 736.796,840.719 725.268,858.169C680.633,875.763 610.395,872.325 593.263,856.595C587.613,851.407 587.799,808.847 587.014,796.707C606.964,794.251 684.879,792.465 749.396,787.037Z" style="fill:rgb(254,158,155);"/>
                    <g>
                        <g>
                            <clipPath id="_clip4">
                                <path d="M749.396,787.037C744.555,815.549 736.796,840.719 725.268,858.169C680.633,875.763 610.395,872.325 593.263,856.595C587.613,851.407 587.799,808.847 587.014,796.707C606.964,794.251 684.879,792.465 749.396,787.037Z"/>
                            </clipPath>
                            <g clip-path="url(#_clip4)">
                                <g transform="matrix(-0.339845,-0.0092643,-0.00672222,0.246593,977.908,677.341)">
                                    <ellipse cx="716.185" cy="713.203" rx="33.711" ry="33.625" style="fill:rgb(254,139,136);"/>
                                </g>
                                <g transform="matrix(-0.394713,0.130811,0.109305,0.329819,840.224,514.025)">
                                    <ellipse cx="716.185" cy="713.203" rx="33.711" ry="33.625" style="fill:rgb(254,139,136);"/>
                                </g>
                                <g transform="matrix(1.74101,0.071285,0.0565149,-1.05452,55.0661,1674.3)">
                                    <path d="M290.938,786.582C289.41,792.161 297.703,804.169 300.898,803.749C304.093,803.33 311.209,788.682 308.498,783.621C306.894,780.625 291.951,782.885 290.938,786.582Z" style="fill:rgb(253,107,103);"/>
                                </g>
                                <g transform="matrix(1.71992,0.279451,0.182503,-1.04014,4.07243,1602.94)">
                                    <path d="M289.567,781.055C288.135,784.359 293.814,803.202 297.009,802.782C300.204,802.362 310.218,789.057 307.507,783.995C305.903,781 291,777.752 289.567,781.055Z" style="fill:rgb(253,107,103);"/>
                                </g>
                                <g transform="matrix(1.74161,0.0546098,0.0456307,-1.0372,145.953,1664.62)">
                                    <path d="M289.567,781.055C288.135,784.359 294.32,802.205 297.515,801.785C300.71,801.365 310.218,789.057 307.507,783.995C305.903,781 291,777.752 289.567,781.055Z" style="fill:rgb(253,107,103);"/>
                                </g>
                            </g>
                        </g>
                    </g>
                </g>
                <g transform="matrix(1.01148,-0.122864,0.133057,1.08873,-55.0674,25.4624)">
                    <path d="M451.534,400.366C448.982,383.55 477.523,358.846 486.298,355.01C495.04,351.189 509.98,369.793 504.186,377.353C498.392,384.912 452.643,405.006 451.534,400.366Z" style="fill:rgb(253,107,103);"/>
                </g>
                <g transform="matrix(1.13701,-0.138113,0.145144,1.18762,-128.453,-1.98785)">
                    <path d="M486.317,387.488C485.43,380.862 516.453,338.036 538.447,339.203C548.113,339.716 552.455,370.909 543.767,378.957C535.079,387.004 487.204,394.114 486.317,387.488Z" style="fill:rgb(253,107,103);"/>
                </g>
                <path d="M750.852,777.401C740.145,847.463 344.366,846.857 335.776,777.401C325.587,695.019 332.283,590.834 337.332,562.525C355.819,458.893 438.048,369.734 543.314,369.203C648.58,369.734 730.809,458.893 749.295,562.525C754.345,590.834 763.392,695.344 750.852,777.401Z" style="fill:rgb(254,180,178);"/>
                <g>
                    <g>
                        <clipPath id="_clip5">
                            <path d="M750.852,777.401C740.145,847.463 344.366,846.857 335.776,777.401C325.587,695.019 332.283,590.834 337.332,562.525C355.819,458.893 438.048,369.734 543.314,369.203C648.58,369.734 730.809,458.893 749.295,562.525C754.345,590.834 763.392,695.344 750.852,777.401Z"/>
                        </clipPath>
                        <g clip-path="url(#_clip5)">
                            <ellipse cx="360.123" cy="778.252" rx="39.216" ry="31.424" style="fill:rgb(254,165,163);"/>
                            <g transform="matrix(0.893104,0.226825,-0.189335,0.745487,179.578,100.094)">
                                <ellipse cx="393.895" cy="732.103" rx="14.973" ry="14.725" style="fill:rgb(254,165,163);"/>
                            </g>
                            <g transform="matrix(0.844242,-0.206932,0.231955,0.946331,-59.4153,188.542)">
                                <ellipse cx="716.185" cy="713.203" rx="33.711" ry="33.625" style="fill:rgb(254,165,163);"/>
                            </g>
                            <g transform="matrix(0.847114,0.0430574,-0.0492023,0.96801,82.8002,-308.915)">
                                <ellipse cx="716.185" cy="713.203" rx="33.711" ry="33.625" style="fill:rgb(254,165,163);"/>
                            </g>
                            <g transform="matrix(0.342263,0.104273,-0.0858983,0.28195,504.375,487.89)">
                                <ellipse cx="716.185" cy="713.203" rx="33.711" ry="33.625" style="fill:rgb(254,165,163);"/>
                            </g>
                            <g transform="matrix(0.25025,-0.123278,0.13025,0.264404,398.112,508.517)">
                                <ellipse cx="716.185" cy="713.203" rx="33.711" ry="33.625" style="fill:rgb(254,165,163);"/>
                            </g>
                            <g transform="matrix(-0.0635588,0.150198,-0.173316,-0.0733416,823.797,676.675)">
                                <ellipse cx="716.185" cy="713.203" rx="33.711" ry="33.625" style="fill:rgb(254,165,163);"/>
                            </g>
                            <g transform="matrix(-0.131019,0.0971241,-0.106953,-0.144277,545.206,709.712)">
                                <ellipse cx="716.185" cy="713.203" rx="33.711" ry="33.625" style="fill:rgb(254,165,163);"/>
                            </g>
                            <g transform="matrix(0.790643,-0.612278,0.612278,0.790643,-162.619,411.812)">
                                <ellipse cx="522.817" cy="430.672" rx="20.488" ry="28.446" style="fill:rgb(254,165,163);"/>
                            </g>
                            <g transform="matrix(0.925189,-0.379507,0.379507,0.925189,-132.774,204.193)">
                                <ellipse cx="451.534" cy="438.87" rx="15.874" ry="8.198" style="fill:rgb(254,165,163);"/>
                            </g>
                        </g>
                    </g>
                </g>
                <g transform="matrix(1.14542,0,0,1.13369,-101.725,-64.15)">
                    <path d="M541.963,383.304C536.609,396.199 564.079,436.175 573.887,430.672C583.695,425.169 612.212,372.792 594.738,351.552C584.262,338.818 548.652,367.193 541.963,383.304Z" style="fill:rgb(253,107,103);"/>
                </g>
                <g transform="matrix(1,0,0,1,-2.51404,9.42858)">
                    <g transform="matrix(-1,0,0,0.966129,1100.08,-14.5224)">
                        <path d="M553.53,683.824C615.312,685.123 666.003,634.372 659.749,597.492C653.613,561.313 588.943,573.873 553.54,573.873C518.137,573.873 453.467,561.313 447.332,597.492C441.077,634.372 491.748,682.524 553.53,683.824Z" style="fill:rgb(217,65,61);"/>
                        <clipPath id="_clip6">
                            <path d="M553.53,683.824C615.312,685.123 666.003,634.372 659.749,597.492C653.613,561.313 588.943,573.873 553.54,573.873C518.137,573.873 453.467,561.313 447.332,597.492C441.077,634.372 491.748,682.524 553.53,683.824Z"/>
                        </clipPath>
                        <g clip-path="url(#_clip6)">
                            <g>
                                <g transform="matrix(1.14611,0,0,1.44098,-66.3206,-263.436)">
                                    <ellipse cx="523.887" cy="579.044" rx="14.697" ry="20.418" style="fill:rgb(242,240,240);"/>
                                </g>
                                <g transform="matrix(1.14611,0,0,1.44098,-102.194,-263.436)">
                                    <ellipse cx="523.887" cy="579.044" rx="14.697" ry="20.418" style="fill:rgb(242,240,240);"/>
                                </g>
                                <g transform="matrix(1.14611,0,0,1.44098,-137.295,-263.436)">
                                    <ellipse cx="523.887" cy="579.044" rx="14.697" ry="20.418" style="fill:rgb(242,240,240);"/>
                                </g>
                                <g transform="matrix(1.14611,0,0,1.44098,-30.5053,-263.436)">
                                    <ellipse cx="523.887" cy="579.044" rx="14.697" ry="20.418" style="fill:rgb(242,240,240);"/>
                                </g>
                                <g transform="matrix(1.14611,0,0,1.44098,5.42587,-263.436)">
                                    <ellipse cx="523.887" cy="579.044" rx="14.697" ry="20.418" style="fill:rgb(242,240,240);"/>
                                </g>
                                <g transform="matrix(1.14611,0,0,1.44098,41.2595,-263.436)">
                                    <ellipse cx="523.887" cy="579.044" rx="14.697" ry="20.418" style="fill:rgb(242,240,240);"/>
                                </g>
                            </g>
                            <g transform="matrix(1.1829,0.179774,-0.152454,1.07471,74.1694,53.9434)">
                                <ellipse cx="458.565" cy="497.513" rx="64.71" ry="38.577" style="fill:rgb(245,115,112);"/>
                            </g>
                        </g>
                    </g>
                    <g transform="matrix(1.04746,0,0,1.04746,-29.9606,-24.7023)">
                        <g transform="matrix(-1.23866,-0.23697,-0.220305,1.15155,3247.86,-159.109)">
                            <path d="M2114.22,1019.91C2120.16,1022.13 2128.02,1017.99 2128.04,1018.91C2128.16,1024.34 2121.44,1032.07 2116.22,1035.04L2114.22,1019.91Z"/>
                        </g>
                        <g transform="matrix(1.23866,-0.23697,0.220305,1.15155,-2148.13,-159.109)">
                            <path d="M2114.22,1019.91C2120.16,1022.13 2128.02,1017.99 2128.04,1018.91C2128.16,1024.34 2121.44,1032.07 2116.22,1035.04L2114.22,1019.91Z"/>
                        </g>
                        <g transform="matrix(1,0,0,1,-4.38307,-1.10134e-13)">
                            <circle cx="427.545" cy="531.3" r="27.325"/>
                        </g>
                        <g transform="matrix(1,0,0,1,249.676,0)">
                            <circle cx="427.545" cy="531.3" r="27.325"/>
                        </g>
                        <g transform="matrix(1,0,0,1,-7.52985,-0.551437)">
                            <circle cx="437.886" cy="527.93" r="10.341" style="fill:white;"/>
                        </g>
                        <g transform="matrix(1,0,0,1,246.529,-0.551437)">
                            <circle cx="437.886" cy="527.93" r="10.341" style="fill:white;"/>
                        </g>
                    </g>
                </g>
            </g>
        </g>
        <g transform="matrix(-0.905423,1.58,1.47169,0.843352,-1472.53,-1083.42)">
            <g transform="matrix(-0.927219,-0.0659436,-0.0572121,0.927219,696.968,557.76)">
                <g transform="matrix(0.549135,0,0,0.589552,0,0)">
                    <path d="M291.451,899.885C320.145,845.551 366.852,798.021 428.961,761.529" style="fill:none;stroke:rgb(188,218,209);stroke-width:8.61px;"/>
                </g>
                <g transform="matrix(0.242056,0.488763,-0.399964,0.228309,433.411,59.6953)">
                    <path d="M440.233,693.616C445.334,693.616 449.476,716.648 449.476,735.759C449.476,754.871 445.334,762.872 440.233,762.872C435.131,762.872 430.989,754.871 430.989,735.759C430.989,716.648 435.131,693.616 440.233,693.616Z" style="fill:rgb(188,218,209);"/>
                </g>
                <g transform="matrix(0.0385193,0.519221,-0.42937,0.036715,521.991,211.109)">
                    <path d="M440.233,693.616C445.334,693.616 449.476,716.648 449.476,735.759C449.476,754.871 441.995,762.063 436.893,762.063C431.791,762.063 430.989,754.871 430.989,735.759C430.989,716.648 435.131,693.616 440.233,693.616Z" style="fill:rgb(188,218,209);"/>
                </g>
                <g transform="matrix(0.189101,0.550477,-0.451906,0.178932,443.602,119.754)">
                    <path d="M440.233,693.616C445.334,693.616 449.476,716.648 449.476,735.759C449.476,754.871 441.995,762.063 436.893,762.063C431.791,762.063 430.989,754.871 430.989,735.759C430.989,716.648 435.131,693.616 440.233,693.616Z" style="fill:rgb(188,218,209);"/>
                </g>
                <g transform="matrix(0.251385,0.56515,-0.500779,0.256748,430.849,91.324)">
                    <path d="M440.233,693.616C445.334,693.616 449.476,716.648 449.476,735.759C449.476,754.871 441.995,762.063 436.893,762.063C431.791,762.063 430.989,754.871 430.989,735.759C430.989,716.648 435.131,693.616 440.233,693.616Z" style="fill:rgb(188,218,209);"/>
                </g>
                <g transform="matrix(-0.539993,-0.050722,-0.0479509,0.588401,429.595,105.789)">
                    <path d="M440.233,693.616C445.334,693.616 449.476,716.648 449.476,735.759C449.476,754.871 441.995,762.063 436.893,762.063C431.791,762.063 430.989,754.871 430.989,735.759C430.989,716.648 435.131,693.616 440.233,693.616Z" style="fill:rgb(188,218,209);"/>
                </g>
                <g transform="matrix(-0.502851,-0.220686,-0.189757,0.498366,544.017,211.716)">
                    <path d="M440.233,693.616C445.334,693.616 449.476,716.648 449.476,735.759C449.476,754.871 441.995,762.063 436.893,762.063C431.791,762.063 430.989,754.871 430.989,735.759C430.989,716.648 435.131,693.616 440.233,693.616Z" style="fill:rgb(188,218,209);"/>
                </g>
                <g transform="matrix(-0.432424,-0.23616,-0.195293,0.412169,548.704,253.492)">
                    <path d="M440.233,693.616C445.334,693.616 449.476,716.648 449.476,735.759C449.476,754.871 441.995,762.063 436.893,762.063C431.791,762.063 430.989,754.871 430.989,735.759C430.989,716.648 435.131,693.616 440.233,693.616Z" style="fill:rgb(188,218,209);"/>
                </g>
            </g>
            <g transform="matrix(-0.592332,0.81335,0.705655,0.592332,174.028,561.781)">
                <g transform="matrix(0.549135,0,0,0.589552,0,0)">
                    <path d="M258.694,1046.24C253.431,931.709 315.491,828.197 428.961,761.529" style="fill:none;stroke:rgb(102,160,158);stroke-width:8.32px;"/>
                </g>
                <g transform="matrix(0.23023,0.464884,-0.282983,0.161534,349.267,120.928)">
                    <path d="M440.233,693.616C445.334,693.616 449.476,716.648 449.476,735.759C449.476,754.871 445.334,762.872 440.233,762.872C435.131,762.872 430.989,754.871 430.989,735.759C430.989,716.648 435.131,693.616 440.233,693.616Z" style="fill:rgb(102,160,158);"/>
                </g>
                <g transform="matrix(0.0528863,0.712881,-0.385485,0.0329624,482.76,129.525)">
                    <path d="M440.233,693.616C445.334,693.616 449.476,716.648 449.476,735.759C449.476,754.871 441.995,762.063 436.893,762.063C431.791,762.063 430.989,754.871 430.989,735.759C430.989,716.648 435.131,693.616 440.233,693.616Z" style="fill:rgb(102,160,158);"/>
                </g>
                <g transform="matrix(0.144219,0.706304,-0.45121,0.106192,464.81,105.464)">
                    <path d="M440.233,693.616C445.334,693.616 449.476,716.648 449.476,735.759C449.476,754.871 441.995,762.063 436.893,762.063C431.791,762.063 430.989,754.871 430.989,735.759C430.989,716.648 435.131,693.616 440.233,693.616Z" style="fill:rgb(102,160,158);"/>
                </g>
                <g transform="matrix(0.200202,0.773929,-0.534713,0.159431,479.933,70.7451)">
                    <path d="M440.233,693.616C445.334,693.616 449.476,716.648 449.476,735.759C449.476,754.871 441.995,762.063 436.893,762.063C431.791,762.063 430.989,754.871 430.989,735.759C430.989,716.648 435.131,693.616 440.233,693.616Z" style="fill:rgb(102,160,158);"/>
                </g>
                <g transform="matrix(-0.723318,0.148407,0.103271,0.580149,397.391,24.4315)">
                    <path d="M440.233,693.616C445.334,693.616 449.476,716.648 449.476,735.759C449.476,754.871 441.995,762.063 436.893,762.063C431.791,762.063 430.989,754.871 430.989,735.759C430.989,716.648 435.131,693.616 440.233,693.616Z" style="fill:rgb(102,160,158);"/>
                </g>
                <g transform="matrix(-0.681927,0.318977,0.219747,0.541486,275.194,22.3338)">
                    <path d="M440.233,693.616C445.334,693.616 449.476,716.648 449.476,735.759C449.476,754.871 441.995,762.063 436.893,762.063C431.791,762.063 430.989,754.871 430.989,735.759C430.989,716.648 435.131,693.616 440.233,693.616Z" style="fill:rgb(102,160,158);"/>
                </g>
                <g transform="matrix(0.303525,0.663549,-0.546867,0.288329,430.189,63.0988)">
                    <path d="M440.233,693.616C445.334,693.616 449.476,716.648 449.476,735.759C449.476,754.871 441.995,762.063 436.893,762.063C431.791,762.063 430.989,754.871 430.989,735.759C430.989,716.648 435.131,693.616 440.233,693.616Z" style="fill:rgb(102,160,158);"/>
                </g>
                <g transform="matrix(0.486301,0.671493,-0.505225,0.421729,313.038,2.98636)">
                    <path d="M440.233,693.616C445.334,693.616 449.476,716.648 449.476,735.759C449.476,754.871 441.995,762.063 436.893,762.063C431.791,762.063 430.989,754.871 430.989,735.759C430.989,716.648 435.131,693.616 440.233,693.616Z" style="fill:rgb(102,160,158);"/>
                </g>
                <g transform="matrix(-0.559473,0.778596,0.506248,0.419291,2.48307,-41.6522)">
                    <path d="M440.233,693.616C445.334,693.616 449.476,716.648 449.476,735.759C449.476,754.871 441.995,762.063 436.893,762.063C431.791,762.063 430.989,754.871 430.989,735.759C430.989,716.648 435.131,693.616 440.233,693.616Z" style="fill:rgb(102,160,158);"/>
                </g>
                <g transform="matrix(-0.629621,-0.12578,-0.0914501,0.527639,526.948,145.236)">
                    <path d="M440.233,693.616C445.334,693.616 449.476,716.648 449.476,735.759C449.476,754.871 441.995,762.063 436.893,762.063C431.791,762.063 430.989,754.871 430.989,735.759C430.989,716.648 435.131,693.616 440.233,693.616Z" style="fill:rgb(102,160,158);"/>
                </g>
                <g transform="matrix(-0.594774,-0.0680462,-0.0383625,0.386491,503.958,199.913)">
                    <path d="M440.233,693.616C445.334,693.616 449.476,716.648 449.476,735.759C449.476,754.871 441.995,762.063 436.893,762.063C431.791,762.063 430.989,754.871 430.989,735.759C430.989,716.648 435.131,693.616 440.233,693.616Z" style="fill:rgb(102,160,158);"/>
                </g>
            </g>
        </g>
        <g>
            <g transform="matrix(-0.642322,-1.23789,-1.11884,0.580549,1027.18,683.761)">
                <g transform="matrix(0.549135,0,0,0.589552,0,0)">
                    <path d="M265.24,970.652C290.452,888.055 346.782,814.219 428.961,761.529" style="fill:none;stroke:rgb(102,160,158);stroke-width:10.6px;"/>
                </g>
                <g transform="matrix(0.38501,0.649372,-0.326833,0.22451,313.063,-7.02523)">
                    <path d="M440.233,693.616C445.334,693.616 449.476,716.648 449.476,735.759C449.476,754.871 445.334,762.872 440.233,762.872C435.131,762.872 430.989,754.871 430.989,735.759C430.989,716.648 435.131,693.616 440.233,693.616Z" style="fill:rgb(102,160,158);"/>
                </g>
                <g transform="matrix(0.05361,0.722636,-0.42937,0.036715,515.289,123.935)">
                    <path d="M440.233,693.616C445.334,693.616 449.476,716.648 449.476,735.759C449.476,754.871 441.995,762.063 436.893,762.063C431.791,762.063 430.989,754.871 430.989,735.759C430.989,716.648 435.131,693.616 440.233,693.616Z" style="fill:rgb(102,160,158);"/>
                </g>
                <g transform="matrix(0.0301712,0.718448,-0.479799,0.0142763,537.183,167.438)">
                    <path d="M440.233,693.616C445.334,693.616 449.476,716.648 449.476,735.759C449.476,754.871 441.995,762.063 436.893,762.063C431.791,762.063 430.989,754.871 430.989,735.759C430.989,716.648 435.131,693.616 440.233,693.616Z" style="fill:rgb(102,160,158);"/>
                </g>
                <g transform="matrix(0.282155,0.90162,-0.525639,0.186237,439.282,-6.2236)">
                    <path d="M440.233,693.616C445.334,693.616 449.476,716.648 449.476,735.759C449.476,754.871 441.995,762.063 436.893,762.063C431.791,762.063 430.989,754.871 430.989,735.759C430.989,716.648 435.131,693.616 440.233,693.616Z" style="fill:rgb(102,160,158);"/>
                </g>
                <g transform="matrix(-0.765051,0.129957,0.0800708,0.597845,435.406,17.3393)">
                    <path d="M440.233,693.616C445.334,693.616 449.476,716.648 449.476,735.759C449.476,754.871 441.995,762.063 436.893,762.063C431.791,762.063 430.989,754.871 430.989,735.759C430.989,716.648 435.131,693.616 440.233,693.616Z" style="fill:rgb(102,160,158);"/>
                </g>
                <g transform="matrix(-0.852946,0.32116,0.206812,0.633085,357.574,-46.0419)">
                    <path d="M440.233,693.616C445.334,693.616 449.476,716.648 449.476,735.759C449.476,754.871 441.995,762.063 436.893,762.063C431.791,762.063 430.989,754.871 430.989,735.759C430.989,716.648 435.131,693.616 440.233,693.616Z" style="fill:rgb(102,160,158);"/>
                </g>
                <g transform="matrix(0.458314,0.83564,-0.540517,0.338708,355.381,-45.8978)">
                    <path d="M440.233,693.616C445.334,693.616 449.476,716.648 449.476,735.759C449.476,754.871 441.995,762.063 436.893,762.063C431.791,762.063 430.989,754.871 430.989,735.759C430.989,716.648 435.131,693.616 440.233,693.616Z" style="fill:rgb(102,160,158);"/>
                </g>
                <g transform="matrix(-0.63878,-0.135552,-0.102167,0.528838,542.189,148.641)">
                    <path d="M440.233,693.616C445.334,693.616 449.476,716.648 449.476,735.759C449.476,754.871 441.995,762.063 436.893,762.063C431.791,762.063 430.989,754.871 430.989,735.759C430.989,716.648 435.131,693.616 440.233,693.616Z" style="fill:rgb(102,160,158);"/>
                </g>
                <g transform="matrix(-0.513676,-0.280534,-0.195293,0.412169,584.786,273.315)">
                    <path d="M440.233,693.616C445.334,693.616 449.476,716.648 449.476,735.759C449.476,754.871 441.995,762.063 436.893,762.063C431.791,762.063 430.989,754.871 430.989,735.759C430.989,716.648 435.131,693.616 440.233,693.616Z" style="fill:rgb(102,160,158);"/>
                </g>
            </g>
            <g transform="matrix(-0.244555,-1.30129,-1.21208,0.22779,1023.15,938.823)">
                <g transform="matrix(0.549135,0,0,0.589552,0,0)">
                    <path d="M258.694,1046.24C273.02,939.601 340.329,838.204 428.961,761.529" style="fill:none;stroke:rgb(188,218,209);stroke-width:11px;"/>
                </g>
                <g transform="matrix(0.428176,0.517734,-0.281979,0.268793,259.209,18.564)">
                    <path d="M440.233,693.616C445.334,693.616 449.476,716.648 449.476,735.759C449.476,754.871 445.334,762.872 440.233,762.872C435.131,762.872 430.989,754.871 430.989,735.759C430.989,716.648 435.131,693.616 440.233,693.616Z" style="fill:rgb(188,218,209);"/>
                </g>
                <g transform="matrix(0.0528863,0.712881,-0.385485,0.0329624,488.85,132.765)">
                    <path d="M440.233,693.616C445.334,693.616 449.476,716.648 449.476,735.759C449.476,754.871 441.995,762.063 436.893,762.063C431.791,762.063 430.989,754.871 430.989,735.759C430.989,716.648 435.131,693.616 440.233,693.616Z" style="fill:rgb(188,218,209);"/>
                </g>
                <g transform="matrix(0.144219,0.706304,-0.45121,0.106192,474.566,107.965)">
                    <path d="M440.233,693.616C445.334,693.616 449.476,716.648 449.476,735.759C449.476,754.871 441.995,762.063 436.893,762.063C431.791,762.063 430.989,754.871 430.989,735.759C430.989,716.648 435.131,693.616 440.233,693.616Z" style="fill:rgb(188,218,209);"/>
                </g>
                <g transform="matrix(0.12153,0.792553,-0.547581,0.096781,535.401,110.651)">
                    <path d="M440.233,693.616C445.334,693.616 449.476,716.648 449.476,735.759C449.476,754.871 441.995,762.063 436.893,762.063C431.791,762.063 430.989,754.871 430.989,735.759C430.989,716.648 435.131,693.616 440.233,693.616Z" style="fill:rgb(188,218,209);"/>
                </g>
                <g transform="matrix(-0.723318,0.148407,0.103271,0.580149,406.173,23.2304)">
                    <path d="M440.233,693.616C445.334,693.616 449.476,716.648 449.476,735.759C449.476,754.871 441.995,762.063 436.893,762.063C431.791,762.063 430.989,754.871 430.989,735.759C430.989,716.648 435.131,693.616 440.233,693.616Z" style="fill:rgb(188,218,209);"/>
                </g>
                <g transform="matrix(-0.804217,0.376179,0.247065,0.6088,312.845,-54.53)">
                    <path d="M440.233,693.616C445.334,693.616 449.476,716.648 449.476,735.759C449.476,754.871 441.995,762.063 436.893,762.063C431.791,762.063 430.989,754.871 430.989,735.759C430.989,716.648 435.131,693.616 440.233,693.616Z" style="fill:rgb(188,218,209);"/>
                </g>
                <g transform="matrix(0.303525,0.663549,-0.546867,0.288329,436.12,65.5835)">
                    <path d="M440.233,693.616C445.334,693.616 449.476,716.648 449.476,735.759C449.476,754.871 441.995,762.063 436.893,762.063C431.791,762.063 430.989,754.871 430.989,735.759C430.989,716.648 435.131,693.616 440.233,693.616Z" style="fill:rgb(188,218,209);"/>
                </g>
                <g transform="matrix(0.486301,0.671493,-0.505225,0.421729,313.53,4.72914)">
                    <path d="M440.233,693.616C445.334,693.616 449.476,716.648 449.476,735.759C449.476,754.871 441.995,762.063 436.893,762.063C431.791,762.063 430.989,754.871 430.989,735.759C430.989,716.648 435.131,693.616 440.233,693.616Z" style="fill:rgb(188,218,209);"/>
                </g>
                <g transform="matrix(-0.559473,0.778596,0.506248,0.419291,2.48307,-41.6522)">
                    <path d="M440.233,693.616C445.334,693.616 449.476,716.648 449.476,735.759C449.476,754.871 441.995,762.063 436.893,762.063C431.791,762.063 430.989,754.871 430.989,735.759C430.989,716.648 435.131,693.616 440.233,693.616Z" style="fill:rgb(188,218,209);"/>
                </g>
                <g transform="matrix(-0.655575,0.0745099,0.0526277,0.533713,439.572,55.4629)">
                    <path d="M440.233,693.616C445.334,693.616 449.476,716.648 449.476,735.759C449.476,754.871 441.995,762.063 436.893,762.063C431.791,762.063 430.989,754.871 430.989,735.759C430.989,716.648 435.131,693.616 440.233,693.616Z" style="fill:rgb(188,218,209);"/>
                </g>
                <g transform="matrix(-0.594774,-0.0680462,-0.0431417,0.43464,508.887,166.468)">
                    <path d="M440.233,693.616C445.334,693.616 449.476,716.648 449.476,735.759C449.476,754.871 441.995,762.063 436.893,762.063C431.791,762.063 430.989,754.871 430.989,735.759C430.989,716.648 435.131,693.616 440.233,693.616Z" style="fill:rgb(188,218,209);"/>
                </g>
            </g>
        </g>
        <g transform="matrix(0.392582,-1.34165,-1.24968,-0.365669,712.01,1370.51)">
            <g transform="matrix(0.549135,0,0,0.589552,0,0)">
                <path d="M301.069,875.229C332.921,831.917 377.275,796.047 428.961,761.529" style="fill:none;stroke:rgb(102,160,158);stroke-width:7.82px;"/>
            </g>
            <g transform="matrix(0.261198,0.527416,-0.248185,0.14167,307.8,110.34)">
                <path d="M440.233,693.616C445.334,693.616 449.476,716.648 449.476,735.759C449.476,754.871 445.334,762.872 440.233,762.872C435.131,762.872 430.989,754.871 430.989,735.759C430.989,716.648 435.131,693.616 440.233,693.616Z" style="fill:rgb(102,160,158);"/>
            </g>
            <g transform="matrix(-0.0568083,0.613286,-0.356742,-0.038088,508.701,224.76)">
                <path d="M440.233,693.616C445.334,693.616 449.476,716.648 449.476,735.759C449.476,754.871 441.995,762.063 436.893,762.063C431.791,762.063 430.989,754.871 430.989,735.759C430.989,716.648 435.131,693.616 440.233,693.616Z" style="fill:rgb(102,160,158);"/>
            </g>
            <g transform="matrix(-0.0087403,0.586646,-0.428154,-0.0073525,517.394,236.476)">
                <path d="M440.233,693.616C445.334,693.616 449.476,716.648 449.476,735.759C449.476,754.871 441.995,762.063 436.893,762.063C431.791,762.063 430.989,754.871 430.989,735.759C430.989,716.648 435.131,693.616 440.233,693.616Z" style="fill:rgb(102,160,158);"/>
            </g>
            <g transform="matrix(0.0800573,0.725736,-0.479586,0.060978,493.674,152.635)">
                <path d="M440.233,693.616C445.334,693.616 449.476,716.648 449.476,735.759C449.476,754.871 441.995,762.063 436.893,762.063C431.791,762.063 430.989,754.871 430.989,735.759C430.989,716.648 435.131,693.616 440.233,693.616Z" style="fill:rgb(102,160,158);"/>
            </g>
            <g transform="matrix(-0.662332,0.0969678,0.0665412,0.523871,403.82,76.957)">
                <path d="M440.233,693.616C445.334,693.616 449.476,716.648 449.476,735.759C449.476,754.871 441.995,762.063 436.893,762.063C431.791,762.063 430.989,754.871 430.989,735.759C430.989,716.648 435.131,693.616 440.233,693.616Z" style="fill:rgb(102,160,158);"/>
            </g>
            <g transform="matrix(-0.599246,-0.110372,-0.0767245,0.480137,509.179,171.58)">
                <path d="M440.233,693.616C445.334,693.616 449.476,716.648 449.476,735.759C449.476,754.871 441.995,762.063 436.893,762.063C431.791,762.063 430.989,754.871 430.989,735.759C430.989,716.648 435.131,693.616 440.233,693.616Z" style="fill:rgb(102,160,158);"/>
            </g>
            <g transform="matrix(-0.469833,-0.25659,-0.167929,0.354416,545.356,309.17)">
                <path d="M440.233,693.616C445.334,693.616 449.476,716.648 449.476,735.759C449.476,754.871 441.995,762.063 436.893,762.063C431.791,762.063 430.989,754.871 430.989,735.759C430.989,716.648 435.131,693.616 440.233,693.616Z" style="fill:rgb(102,160,158);"/>
            </g>
        </g>
    </g>
</svg>
