<?xml version="1.0" encoding="UTF-8" standalone="no"?>
<!DOCTYPE svg PUBLIC "-//W3C//DTD SVG 1.1//EN" "http://www.w3.org/Graphics/SVG/1.1/DTD/svg11.dtd">
<svg width="100%" height="100%" viewBox="0 0 1873 770" version="1.1" xmlns="http://www.w3.org/2000/svg" xmlns:xlink="http://www.w3.org/1999/xlink" xml:space="preserve" xmlns:serif="http://www.serif.com/" style="fill-rule:evenodd;clip-rule:evenodd;stroke-linecap:round;stroke-linejoin:round;stroke-miterlimit:1.5;">
    <g transform="matrix(1.27972,0,0,1.27972,206,194.64)">
        <g>
            <g>
                <g transform="matrix(0.251296,-0.184016,0.17856,0.243845,334.088,-135.113)">
                    <path d="M265.24,970.652C272.399,947.2 282.066,924.454 294.122,902.698" style="fill:none;stroke:rgb(102,160,158);stroke-width:10.19px;"/>
                </g>
                <g transform="matrix(0.289403,0.060758,-0.060758,0.289403,553.635,-264.099)">
                    <path d="M258.694,1046.24C256.893,1019.48 258.677,993.61 263.774,968.883" style="fill:none;stroke:rgb(188,218,209);stroke-width:10.57px;"/>
                </g>
            </g>
            <g transform="matrix(0.781418,0,0,0.781418,-196.681,101.493)">
                <g>
                    <g transform="matrix(457.079,0,0,457.079,0,0)">
                        <path d="M0.127,-0.7L0.763,-0.7C0.77,-0.7 0.777,-0.697 0.782,-0.692C0.787,-0.687 0.79,-0.68 0.79,-0.673L0.79,-0.521C0.79,-0.514 0.787,-0.507 0.782,-0.502C0.777,-0.497 0.77,-0.494 0.763,-0.494L0.37,-0.494L0.37,-0.43L0.698,-0.43C0.705,-0.43 0.712,-0.427 0.717,-0.422C0.722,-0.417 0.725,-0.41 0.725,-0.403L0.725,-0.252C0.725,-0.245 0.722,-0.238 0.717,-0.233C0.712,-0.228 0.705,-0.225 0.698,-0.225L0.37,-0.225L0.37,-0.027C0.37,-0.02 0.367,-0.013 0.362,-0.008C0.357,-0.003 0.35,-0 0.343,-0L0.127,-0C0.12,-0 0.113,-0.003 0.108,-0.008C0.103,-0.013 0.1,-0.02 0.1,-0.027L0.1,-0.673C0.1,-0.68 0.103,-0.687 0.108,-0.692C0.113,-0.697 0.12,-0.7 0.127,-0.7Z" style="fill:rgb(191,178,175);fill-rule:nonzero;"/>
                    </g>
                    <g transform="matrix(457.079,0,0,457.079,388.517,0)">
                        <path d="M0.822,-0.031C0.823,-0.028 0.824,-0.025 0.824,-0.02C0.824,-0.015 0.822,-0.011 0.818,-0.007C0.813,-0.002 0.808,-0 0.802,-0L0.575,-0C0.555,-0 0.541,-0.008 0.533,-0.025L0.445,-0.223L0.361,-0.223L0.361,-0.027C0.361,-0.02 0.358,-0.013 0.353,-0.008C0.348,-0.003 0.341,-0 0.334,-0L0.118,-0C0.111,-0 0.104,-0.003 0.099,-0.008C0.094,-0.013 0.091,-0.02 0.091,-0.027L0.091,-0.673C0.091,-0.68 0.094,-0.687 0.099,-0.692C0.104,-0.697 0.111,-0.7 0.118,-0.7L0.507,-0.7C0.598,-0.7 0.671,-0.678 0.724,-0.635C0.777,-0.592 0.804,-0.533 0.804,-0.458C0.804,-0.367 0.769,-0.302 0.699,-0.261L0.822,-0.031ZM0.361,-0.514L0.361,-0.408L0.486,-0.408C0.501,-0.408 0.512,-0.413 0.52,-0.423C0.528,-0.432 0.532,-0.444 0.532,-0.459C0.532,-0.474 0.528,-0.487 0.521,-0.498C0.513,-0.508 0.501,-0.514 0.486,-0.514L0.361,-0.514Z" style="fill:rgb(191,178,175);fill-rule:nonzero;"/>
                    </g>
                    <g transform="matrix(457.079,0,0,457.079,777.034,0)">
                        <path d="M0.797,-0.409L0.797,-0.291C0.797,-0.224 0.78,-0.168 0.747,-0.123C0.714,-0.078 0.67,-0.046 0.616,-0.027C0.562,-0.008 0.498,0.001 0.425,0.001C0.352,0.001 0.288,-0.008 0.234,-0.027C0.18,-0.046 0.136,-0.078 0.103,-0.123C0.07,-0.168 0.053,-0.224 0.053,-0.292L0.053,-0.408C0.053,-0.506 0.087,-0.579 0.157,-0.628C0.226,-0.677 0.315,-0.701 0.425,-0.701C0.535,-0.701 0.625,-0.677 0.694,-0.628C0.762,-0.579 0.797,-0.506 0.797,-0.409ZM0.323,-0.426L0.323,-0.274C0.323,-0.249 0.332,-0.229 0.35,-0.215C0.369,-0.201 0.394,-0.194 0.425,-0.194C0.456,-0.194 0.481,-0.201 0.5,-0.215C0.518,-0.229 0.527,-0.249 0.527,-0.275L0.527,-0.425C0.527,-0.451 0.518,-0.471 0.5,-0.485C0.481,-0.499 0.456,-0.506 0.425,-0.506C0.394,-0.506 0.369,-0.499 0.35,-0.485C0.332,-0.471 0.323,-0.451 0.323,-0.426Z" style="fill:rgb(191,178,175);fill-rule:nonzero;"/>
                    </g>
                    <g transform="matrix(457.079,0,0,457.079,1165.55,0)">
                        <path d="M0.552,-0.7L0.738,-0.7C0.745,-0.7 0.752,-0.697 0.757,-0.692C0.762,-0.687 0.765,-0.68 0.765,-0.673L0.765,-0.027C0.765,-0.02 0.762,-0.013 0.757,-0.008C0.752,-0.003 0.745,-0 0.738,-0L0.577,-0C0.561,-0 0.548,-0.007 0.537,-0.021L0.319,-0.299L0.319,-0.027C0.319,-0.02 0.316,-0.013 0.311,-0.008C0.306,-0.003 0.299,-0 0.292,-0L0.106,-0C0.099,-0 0.092,-0.003 0.087,-0.008C0.082,-0.013 0.079,-0.02 0.079,-0.027L0.079,-0.673C0.079,-0.68 0.082,-0.687 0.087,-0.692C0.092,-0.697 0.099,-0.7 0.106,-0.7L0.268,-0.7C0.284,-0.7 0.297,-0.693 0.307,-0.68L0.525,-0.379L0.525,-0.673C0.525,-0.68 0.528,-0.687 0.533,-0.692C0.538,-0.697 0.545,-0.7 0.552,-0.7Z" style="fill:rgb(191,178,175);fill-rule:nonzero;"/>
                    </g>
                    <g transform="matrix(457.079,0,0,457.079,1554.07,0)">
                        <path d="M0.08,-0.7L0.77,-0.7C0.777,-0.7 0.784,-0.697 0.789,-0.692C0.794,-0.687 0.797,-0.68 0.797,-0.673L0.797,-0.512C0.797,-0.505 0.794,-0.498 0.789,-0.493C0.784,-0.488 0.777,-0.485 0.77,-0.485L0.555,-0.485L0.555,-0.027C0.555,-0.02 0.552,-0.013 0.547,-0.008C0.542,-0.003 0.535,-0 0.528,-0L0.322,-0C0.315,-0 0.308,-0.003 0.303,-0.008C0.298,-0.013 0.295,-0.02 0.295,-0.027L0.295,-0.485L0.08,-0.485C0.073,-0.485 0.066,-0.488 0.061,-0.493C0.056,-0.498 0.053,-0.505 0.053,-0.512L0.053,-0.673C0.053,-0.68 0.056,-0.687 0.061,-0.692C0.066,-0.697 0.073,-0.7 0.08,-0.7Z" style="fill:rgb(191,178,175);fill-rule:nonzero;"/>
                    </g>
                </g>
            </g>
            <g transform="matrix(0.406704,0,0,0.406704,391.242,-235.954)">
                <g transform="matrix(1.54547,-1.1317,1.02286,1.39684,-356.528,94.4467)">
                    <g transform="matrix(0.549135,5.55112e-17,0,0.589552,0,0)">
                        <path d="M294.122,902.698C324.524,847.831 370.115,799.259 428.961,761.529" style="fill:none;stroke:rgb(102,160,158);stroke-width:7.42px;"/>
                    </g>
                    <g transform="matrix(0.38501,0.649372,-0.326833,0.22451,313.063,-7.02523)">
                        <path d="M440.233,693.616C445.334,693.616 449.476,716.648 449.476,735.759C449.476,754.871 445.334,762.872 440.233,762.872C435.131,762.872 430.989,754.871 430.989,735.759C430.989,716.648 435.131,693.616 440.233,693.616Z" style="fill:rgb(102,160,158);"/>
                    </g>
                    <g transform="matrix(0.05361,0.722636,-0.42937,0.036715,516.826,123.614)">
                        <path d="M440.233,693.616C445.334,693.616 449.476,716.648 449.476,735.759C449.476,754.871 441.995,762.063 436.893,762.063C431.791,762.063 430.989,754.871 430.989,735.759C430.989,716.648 435.131,693.616 440.233,693.616Z" style="fill:rgb(102,160,158);"/>
                    </g>
                    <g transform="matrix(0.0301712,0.718448,-0.479799,0.0142763,537.183,167.438)">
                        <path d="M440.233,693.616C445.334,693.616 449.476,716.648 449.476,735.759C449.476,754.871 441.995,762.063 436.893,762.063C431.791,762.063 430.989,754.871 430.989,735.759C430.989,716.648 435.131,693.616 440.233,693.616Z" style="fill:rgb(102,160,158);"/>
                    </g>
                    <g transform="matrix(0.282155,0.90162,-0.525639,0.186237,439.282,-6.2236)">
                        <path d="M440.233,693.616C445.334,693.616 449.476,716.648 449.476,735.759C449.476,754.871 441.995,762.063 436.893,762.063C431.791,762.063 430.989,754.871 430.989,735.759C430.989,716.648 435.131,693.616 440.233,693.616Z" style="fill:rgb(102,160,158);"/>
                    </g>
                    <g transform="matrix(-0.765051,0.129957,0.0800708,0.597845,435.406,17.3393)">
                        <path d="M440.233,693.616C445.334,693.616 449.476,716.648 449.476,735.759C449.476,754.871 441.995,762.063 436.893,762.063C431.791,762.063 430.989,754.871 430.989,735.759C430.989,716.648 435.131,693.616 440.233,693.616Z" style="fill:rgb(102,160,158);"/>
                    </g>
                    <g transform="matrix(-0.63878,-0.135552,-0.102167,0.528838,542.086,149.436)">
                        <path d="M440.233,693.616C445.334,693.616 449.476,716.648 449.476,735.759C449.476,754.871 441.995,762.063 436.893,762.063C431.791,762.063 430.989,754.871 430.989,735.759C430.989,716.648 435.131,693.616 440.233,693.616Z" style="fill:rgb(102,160,158);"/>
                    </g>
                    <g transform="matrix(-0.513676,-0.280534,-0.195293,0.412169,584.786,273.315)">
                        <path d="M440.233,693.616C445.334,693.616 449.476,716.648 449.476,735.759C449.476,754.871 441.995,762.063 436.893,762.063C431.791,762.063 430.989,754.871 430.989,735.759C430.989,716.648 435.131,693.616 440.233,693.616Z" style="fill:rgb(102,160,158);"/>
                    </g>
                </g>
                <g transform="matrix(1.57181,0.32999,-0.307367,1.46405,391.579,-227.724)">
                    <g transform="matrix(0.549135,0,0,0.589552,0,0)">
                        <path d="M262.846,973.285C279.381,885.755 340.706,808.995 428.961,761.529" style="fill:none;stroke:rgb(188,218,209);stroke-width:8.71px;"/>
                    </g>
                    <g transform="matrix(0.284612,0.621286,-0.354406,0.187132,378.505,32.9981)">
                        <path d="M440.233,693.616C445.334,693.616 449.476,716.648 449.476,735.759C449.476,754.871 445.334,762.872 440.233,762.872C435.131,762.872 430.989,754.871 430.989,735.759C430.989,716.648 435.131,693.616 440.233,693.616Z" style="fill:rgb(188,218,209);"/>
                    </g>
                    <g transform="matrix(0.0528863,0.712881,-0.385485,0.0329624,486.838,127.942)">
                        <path d="M440.233,693.616C445.334,693.616 449.476,716.648 449.476,735.759C449.476,754.871 441.995,762.063 436.893,762.063C431.791,762.063 430.989,754.871 430.989,735.759C430.989,716.648 435.131,693.616 440.233,693.616Z" style="fill:rgb(188,218,209);"/>
                    </g>
                    <g transform="matrix(0.144219,0.706304,-0.45121,0.106192,467.24,101.184)">
                        <path d="M440.233,693.616C445.334,693.616 449.476,716.648 449.476,735.759C449.476,754.871 441.995,762.063 436.893,762.063C431.791,762.063 430.989,754.871 430.989,735.759C430.989,716.648 435.131,693.616 440.233,693.616Z" style="fill:rgb(188,218,209);"/>
                    </g>
                    <g transform="matrix(0.12153,0.792553,-0.547581,0.096781,525.398,103.246)">
                        <path d="M440.233,693.616C445.334,693.616 449.476,716.648 449.476,735.759C449.476,754.871 441.995,762.063 436.893,762.063C431.791,762.063 430.989,754.871 430.989,735.759C430.989,716.648 435.131,693.616 440.233,693.616Z" style="fill:rgb(188,218,209);"/>
                    </g>
                    <g transform="matrix(-0.723318,0.148407,0.103271,0.580149,399.314,16.5697)">
                        <path d="M440.233,693.616C445.334,693.616 449.476,716.648 449.476,735.759C449.476,754.871 441.995,762.063 436.893,762.063C431.791,762.063 430.989,754.871 430.989,735.759C430.989,716.648 435.131,693.616 440.233,693.616Z" style="fill:rgb(188,218,209);"/>
                    </g>
                    <g transform="matrix(-0.804217,0.376179,0.247065,0.6088,307.114,-59.5605)">
                        <path d="M440.233,693.616C445.334,693.616 449.476,716.648 449.476,735.759C449.476,754.871 441.995,762.063 436.893,762.063C431.791,762.063 430.989,754.871 430.989,735.759C430.989,716.648 435.131,693.616 440.233,693.616Z" style="fill:rgb(188,218,209);"/>
                    </g>
                    <g transform="matrix(0.202291,0.874798,-0.591303,0.157603,509.183,66.0126)">
                        <path d="M440.233,693.616C445.334,693.616 449.476,716.648 449.476,735.759C449.476,754.871 441.995,762.063 436.893,762.063C431.791,762.063 430.989,754.871 430.989,735.759C430.989,716.648 435.131,693.616 440.233,693.616Z" style="fill:rgb(188,218,209);"/>
                    </g>
                    <g transform="matrix(-0.655575,0.0745099,0.0526277,0.533713,432.502,48.2447)">
                        <path d="M440.233,693.616C445.334,693.616 449.476,716.648 449.476,735.759C449.476,754.871 441.995,762.063 436.893,762.063C431.791,762.063 430.989,754.871 430.989,735.759C430.989,716.648 435.131,693.616 440.233,693.616Z" style="fill:rgb(188,218,209);"/>
                    </g>
                    <g transform="matrix(-0.594774,-0.0680462,-0.0431417,0.43464,507.855,159.749)">
                        <path d="M440.233,693.616C445.334,693.616 449.476,716.648 449.476,735.759C449.476,754.871 441.995,762.063 436.893,762.063C431.791,762.063 430.989,754.871 430.989,735.759C430.989,716.648 435.131,693.616 440.233,693.616Z" style="fill:rgb(188,218,209);"/>
                    </g>
                </g>
            </g>
            <g>
                <g transform="matrix(-0.571989,0.254938,0.171201,0.384113,1304.45,-10.8345)">
                    <path d="M440.233,693.616C445.334,693.616 449.476,716.648 449.476,735.759C449.476,754.871 441.995,762.063 436.893,762.063C431.791,762.063 430.989,754.871 430.989,735.759C430.989,716.648 435.131,693.616 440.233,693.616Z" style="fill:rgb(188,218,209);"/>
                </g>
                <g transform="matrix(-0.334438,0.0627661,0.0777308,0.414175,1190.26,-63.7686)">
                    <path d="M258.694,1046.24C257.923,1029.47 258.596,1012.93 260.664,996.708" style="fill:none;stroke:rgb(102,160,158);stroke-width:12.24px;"/>
                </g>
                <g transform="matrix(-0.275444,-0.237086,-0.237086,0.275444,1488.22,189.106)">
                    <path d="M265.491,969.548C271.297,942.921 280.869,917.318 294.073,893.17" style="fill:none;stroke:rgb(188,218,209);stroke-width:12.9px;"/>
                </g>
                <g transform="matrix(-0.148321,0.602969,0.399582,0.192502,946.103,-23.2634)">
                    <path d="M440.233,693.616C445.334,693.616 449.476,716.648 449.476,735.759C449.476,754.871 441.995,762.063 436.893,762.063C431.791,762.063 430.989,754.871 430.989,735.759C430.989,716.648 435.131,693.616 440.233,693.616Z" style="fill:rgb(102,160,158);"/>
                </g>
                <g transform="matrix(0.374471,0.421992,-0.210498,0.282655,1182.47,-13.615)">
                    <path d="M440.233,693.616C445.334,693.616 449.476,716.648 449.476,735.759C449.476,754.871 441.995,762.063 436.893,762.063C431.791,762.063 430.989,754.871 430.989,735.759C430.989,716.648 435.131,693.616 440.233,693.616Z" style="fill:rgb(102,160,158);"/>
                </g>
            </g>
            <g transform="matrix(0.781418,0,0,0.781418,411.719,449.193)">
                <g>
                    <g transform="matrix(457.079,0,0,457.079,0,0)">
                        <path d="M0.35,-0.195L0.749,-0.195C0.756,-0.195 0.763,-0.192 0.768,-0.187C0.773,-0.182 0.776,-0.175 0.776,-0.168L0.776,-0.027C0.776,-0.02 0.773,-0.013 0.768,-0.008C0.763,-0.003 0.756,-0 0.749,-0L0.117,-0C0.11,-0 0.103,-0.003 0.098,-0.008C0.093,-0.013 0.09,-0.02 0.09,-0.027L0.09,-0.673C0.09,-0.68 0.093,-0.687 0.098,-0.692C0.103,-0.697 0.11,-0.7 0.117,-0.7L0.739,-0.7C0.746,-0.7 0.753,-0.697 0.758,-0.692C0.763,-0.687 0.766,-0.68 0.766,-0.673L0.766,-0.532C0.766,-0.525 0.763,-0.518 0.758,-0.513C0.753,-0.508 0.746,-0.505 0.739,-0.505L0.35,-0.505L0.35,-0.442L0.684,-0.442C0.691,-0.442 0.698,-0.439 0.703,-0.434C0.708,-0.429 0.711,-0.422 0.711,-0.415L0.711,-0.285C0.711,-0.278 0.708,-0.271 0.703,-0.266C0.698,-0.261 0.691,-0.258 0.684,-0.258L0.35,-0.258L0.35,-0.195Z" style="fill:rgb(191,178,175);fill-rule:nonzero;"/>
                    </g>
                    <g transform="matrix(457.079,0,0,457.079,388.517,0)">
                        <path d="M0.552,-0.7L0.738,-0.7C0.745,-0.7 0.752,-0.697 0.757,-0.692C0.762,-0.687 0.765,-0.68 0.765,-0.673L0.765,-0.027C0.765,-0.02 0.762,-0.013 0.757,-0.008C0.752,-0.003 0.745,-0 0.738,-0L0.577,-0C0.561,-0 0.548,-0.007 0.537,-0.021L0.319,-0.299L0.319,-0.027C0.319,-0.02 0.316,-0.013 0.311,-0.008C0.306,-0.003 0.299,-0 0.292,-0L0.106,-0C0.099,-0 0.092,-0.003 0.087,-0.008C0.082,-0.013 0.079,-0.02 0.079,-0.027L0.079,-0.673C0.079,-0.68 0.082,-0.687 0.087,-0.692C0.092,-0.697 0.099,-0.7 0.106,-0.7L0.268,-0.7C0.284,-0.7 0.297,-0.693 0.307,-0.68L0.525,-0.379L0.525,-0.673C0.525,-0.68 0.528,-0.687 0.533,-0.692C0.538,-0.697 0.545,-0.7 0.552,-0.7Z" style="fill:rgb(191,178,175);fill-rule:nonzero;"/>
                    </g>
                    <g transform="matrix(457.079,0,0,457.079,777.034,0)">
                        <path d="M0.103,-0.7L0.422,-0.7C0.495,-0.7 0.559,-0.69 0.613,-0.671C0.667,-0.652 0.711,-0.619 0.744,-0.573C0.777,-0.527 0.794,-0.47 0.794,-0.401L0.794,-0.299C0.794,-0.192 0.758,-0.115 0.686,-0.066C0.62,-0.022 0.532,-0 0.422,-0L0.103,-0C0.096,-0 0.089,-0.003 0.084,-0.008C0.079,-0.013 0.076,-0.02 0.076,-0.027L0.076,-0.673C0.076,-0.68 0.079,-0.687 0.084,-0.692C0.089,-0.697 0.096,-0.7 0.103,-0.7ZM0.336,-0.505L0.336,-0.195L0.427,-0.195C0.458,-0.195 0.483,-0.203 0.501,-0.218C0.52,-0.233 0.529,-0.254 0.529,-0.281L0.529,-0.419C0.529,-0.446 0.52,-0.468 0.501,-0.483C0.483,-0.498 0.458,-0.505 0.427,-0.505L0.336,-0.505Z" style="fill:rgb(191,178,175);fill-rule:nonzero;"/>
                    </g>
                </g>
            </g>
            <g transform="matrix(0.440793,-0.628175,0.58511,0.410574,498.154,365.215)">
                <g transform="matrix(0.0850932,-0.92137,-0.799373,-0.0850932,928.917,992.303)">
                    <g transform="matrix(0.549135,0,0,0.589552,0,0)">
                        <path d="M294.073,893.17C322.566,841.061 367.974,795.732 428.961,761.529" style="fill:none;stroke:rgb(188,218,209);stroke-width:12.9px;"/>
                    </g>
                    <g transform="matrix(0.355048,0.716918,-0.361411,0.206302,353.43,-23.7646)">
                        <path d="M440.233,693.616C445.334,693.616 449.476,716.648 449.476,735.759C449.476,754.871 445.334,762.872 440.233,762.872C435.131,762.872 430.989,754.871 430.989,735.759C430.989,716.648 435.131,693.616 440.233,693.616Z" style="fill:rgb(188,218,209);"/>
                    </g>
                    <g transform="matrix(-0.0750661,0.677996,-0.427719,-0.0545834,573.44,208.981)">
                        <path d="M440.233,693.616C445.334,693.616 449.476,716.648 449.476,735.759C449.476,754.871 441.995,762.063 436.893,762.063C431.791,762.063 430.989,754.871 430.989,735.759C430.989,716.648 435.131,693.616 440.233,693.616Z" style="fill:rgb(188,218,209);"/>
                    </g>
                    <g transform="matrix(0.123131,0.723451,-0.473815,0.0929506,491.842,106.822)">
                        <path d="M440.233,693.616C445.334,693.616 449.476,716.648 449.476,735.759C449.476,754.871 441.995,762.063 436.893,762.063C431.791,762.063 430.989,754.871 430.989,735.759C430.989,716.648 435.131,693.616 440.233,693.616Z" style="fill:rgb(188,218,209);"/>
                    </g>
                    <g transform="matrix(0.230516,0.893669,-0.534823,0.159008,467.791,17.2262)">
                        <path d="M440.233,693.616C445.334,693.616 449.476,716.648 449.476,735.759C449.476,754.871 441.995,762.063 436.893,762.063C431.791,762.063 430.989,754.871 430.989,735.759C430.989,716.648 435.131,693.616 440.233,693.616Z" style="fill:rgb(188,218,209);"/>
                    </g>
                    <g transform="matrix(-0.831601,0.240278,0.142974,0.570354,414.777,-10.6963)">
                        <path d="M440.233,693.616C445.334,693.616 449.476,716.648 449.476,735.759C449.476,754.871 441.995,762.063 436.893,762.063C431.791,762.063 430.989,754.871 430.989,735.759C430.989,716.648 435.131,693.616 440.233,693.616Z" style="fill:rgb(188,218,209);"/>
                    </g>
                    <g transform="matrix(-0.73035,-0.166375,-0.104091,0.526672,580.954,164.012)">
                        <path d="M440.233,693.616C445.334,693.616 449.476,716.648 449.476,735.759C449.476,754.871 441.995,762.063 436.893,762.063C431.791,762.063 430.989,754.871 430.989,735.759C430.989,716.648 435.131,693.616 440.233,693.616Z" style="fill:rgb(188,218,209);"/>
                    </g>
                    <g transform="matrix(-0.558911,-0.0768776,-0.0547375,0.458683,499.703,147.035)">
                        <path d="M440.233,693.616C445.334,693.616 449.476,716.648 449.476,735.759C449.476,754.871 441.995,762.063 436.893,762.063C431.791,762.063 430.989,754.871 430.989,735.759C430.989,716.648 435.131,693.616 440.233,693.616Z" style="fill:rgb(188,218,209);"/>
                    </g>
                </g>
                <g transform="matrix(-0.577779,-0.605606,-0.650688,0.715533,975.635,447.874)">
                    <g transform="matrix(0.549135,0,0,0.589552,9.09495e-13,-4.54747e-13)">
                        <path d="M260.664,996.708C272.713,902.178 332.11,818.433 428.961,761.529" style="fill:none;stroke:rgb(102,160,158);stroke-width:12.24px;"/>
                    </g>
                    <g transform="matrix(0.334972,0.67638,-0.433556,0.247485,416.897,-36.8848)">
                        <path d="M440.233,693.616C445.334,693.616 449.476,716.648 449.476,735.759C449.476,754.871 445.334,762.872 440.233,762.872C435.131,762.872 430.989,754.871 430.989,735.759C430.989,716.648 435.131,693.616 440.233,693.616Z" style="fill:rgb(102,160,158);"/>
                    </g>
                    <g transform="matrix(0.0533426,0.719031,-0.500234,0.0427745,571.206,119.141)">
                        <path d="M440.233,693.616C445.334,693.616 449.476,716.648 449.476,735.759C449.476,754.871 441.995,762.063 436.893,762.063C431.791,762.063 430.989,754.871 430.989,735.759C430.989,716.648 435.131,693.616 440.233,693.616Z" style="fill:rgb(102,160,158);"/>
                    </g>
                    <g transform="matrix(-0.0797792,0.738747,-0.496293,0.0196556,596.03,155.661)">
                        <path d="M440.233,693.616C445.334,693.616 449.476,716.648 449.476,735.759C449.476,754.871 441.995,762.063 436.893,762.063C431.791,762.063 430.989,754.871 430.989,735.759C430.989,716.648 435.131,693.616 440.233,693.616Z" style="fill:rgb(102,160,158);"/>
                    </g>
                    <g transform="matrix(0.100744,0.901798,-0.561859,0.130921,545.37,35.7532)">
                        <path d="M440.233,693.616C445.334,693.616 449.476,716.648 449.476,735.759C449.476,754.871 441.995,762.063 436.893,762.063C431.791,762.063 430.989,754.871 430.989,735.759C430.989,716.648 435.131,693.616 440.233,693.616Z" style="fill:rgb(102,160,158);"/>
                    </g>
                    <g transform="matrix(-0.825292,0.155753,0.169495,0.571273,392.17,28.1861)">
                        <path d="M440.233,693.616C445.334,693.616 449.476,716.648 449.476,735.759C449.476,754.871 441.995,762.063 436.893,762.063C431.791,762.063 430.989,754.871 430.989,735.759C430.989,716.648 435.131,693.616 440.233,693.616Z" style="fill:rgb(102,160,158);"/>
                    </g>
                    <g transform="matrix(-0.715692,0.485282,0.337797,0.499814,199.309,-21.1842)">
                        <path d="M440.233,693.616C445.334,693.616 449.476,716.648 449.476,735.759C449.476,754.871 441.995,762.063 436.893,762.063C431.791,762.063 430.989,754.871 430.989,735.759C430.989,716.648 435.131,693.616 440.233,693.616Z" style="fill:rgb(102,160,158);"/>
                    </g>
                    <g transform="matrix(0.32385,0.851344,-0.534925,0.27217,413.091,-7.89457)">
                        <path d="M440.233,693.616C445.334,693.616 449.476,716.648 449.476,735.759C449.476,754.871 441.995,762.063 436.893,762.063C431.791,762.063 430.989,754.871 430.989,735.759C430.989,716.648 435.131,693.616 440.233,693.616Z" style="fill:rgb(102,160,158);"/>
                    </g>
                    <g transform="matrix(-0.853408,-0.0716801,0.032204,0.524071,530.524,125.938)">
                        <path d="M440.233,693.616C445.334,693.616 449.476,716.648 449.476,735.759C449.476,754.871 441.995,762.063 436.893,762.063C431.791,762.063 430.989,754.871 430.989,735.759C430.989,716.648 435.131,693.616 440.233,693.616Z" style="fill:rgb(102,160,158);"/>
                    </g>
                    <g transform="matrix(-0.779427,-0.27348,-0.108235,0.435594,634.302,251.945)">
                        <path d="M440.233,693.616C445.334,693.616 449.476,716.648 449.476,735.759C449.476,754.871 441.995,762.063 436.893,762.063C431.791,762.063 430.989,754.871 430.989,735.759C430.989,716.648 435.131,693.616 440.233,693.616Z" style="fill:rgb(102,160,158);"/>
                    </g>
                </g>
            </g>
            <g transform="matrix(-0.837946,0,0,0.837946,348.152,-221.354)">
                <g transform="matrix(-1.39727,0,0,-1.39727,4655.45,4209.34)">
                    <path d="M3316.8,2533.78L3278.61,2533.78L3284.65,2496.86L3310.76,2496.86L3316.8,2533.78Z" style="fill:rgb(196,91,91);"/>
                </g>
                <g transform="matrix(-1.39727,2.02642e-16,2.02642e-16,0.257431,4655.45,16.6884)">
                    <path d="M3316.8,2533.78L3278.61,2533.78L3281.5,2496.86L3313.91,2496.86L3316.8,2533.78Z" style="fill:rgb(254,180,178);"/>
                </g>
                <g transform="matrix(-0.260972,7.69067e-17,3.78481e-17,0.0976999,923.59,412.711)">
                    <path d="M3316.8,2533.78L3278.61,2533.78L3281.5,2496.86L3313.91,2496.86L3316.8,2533.78Z" style="fill:rgb(254,180,178);"/>
                </g>
                <g transform="matrix(-1.39727,-4.61045e-16,2.02642e-16,-0.585698,4655.45,2164.81)">
                    <path d="M3316.65,2531.9C3316.68,2532.36 3316.63,2532.84 3316.51,2533.2C3316.38,2533.57 3316.19,2533.78 3315.99,2533.78L3279.42,2533.78C3279.22,2533.78 3279.03,2533.57 3278.9,2533.2C3278.78,2532.84 3278.72,2532.36 3278.76,2531.9C3279.27,2525.35 3280.97,2503.7 3281.4,2498.16C3281.46,2497.4 3281.73,2496.86 3282.06,2496.86L3313.35,2496.86C3313.68,2496.86 3313.95,2497.4 3314.01,2498.16C3314.44,2503.7 3316.14,2525.35 3316.65,2531.9Z" style="fill:rgb(254,180,178);"/>
                </g>
                <g transform="matrix(-0.93254,0,0,0.93254,3112.76,-1696.29)">
                    <path d="M3271.41,2513.86C3269.95,2509.82 3269.17,2506.38 3268.62,2503.26C3268.18,2500.7 3268.06,2498.48 3268.1,2496.44C3268.13,2495 3268.3,2493.69 3268.52,2492.45C3268.76,2491.1 3269.12,2489.85 3269.53,2488.67C3270.49,2485.84 3271.76,2483.35 3273.19,2481.04C3275.71,2476.6 3276.9,2473.22 3276.54,2469.95C3276.19,2466.77 3274.56,2463.78 3271.27,2460.22C3271.14,2460.05 3270.91,2460.01 3270.74,2460.13C3270.57,2460.25 3270.53,2460.49 3270.65,2460.66C3272.68,2464.36 3273.53,2467.17 3273.21,2469.94C3272.91,2472.5 3271.37,2474.85 3268.72,2477.87C3267.28,2479.61 3265.84,2481.43 3264.64,2483.51C3264.12,2484.41 3263.67,2485.35 3263.28,2486.36C3262.66,2487.95 3262.21,2489.68 3262.02,2491.55C3261.85,2493.2 3261.85,2494.95 3262.12,2496.83C3262.48,2499.21 3263.14,2501.78 3264.41,2504.56C3265.8,2507.59 3267.77,2510.75 3270.5,2514.36C3270.64,2514.61 3270.95,2514.7 3271.21,2514.56C3271.46,2514.43 3271.55,2514.11 3271.41,2513.86Z" style="fill:rgb(191,178,175);"/>
                </g>
            </g>
            <g transform="matrix(-0.297483,0.520562,0.484875,0.277089,-130.063,-157.809)">
                <g transform="matrix(-0.927421,0.062594,0.054306,0.927421,622.435,511.088)">
                    <g transform="matrix(0.549135,0,0,0.589552,0,0)">
                        <path d="M291.451,899.885C320.145,845.551 366.852,798.021 428.961,761.529" style="fill:none;stroke:rgb(188,218,209);stroke-width:10.22px;"/>
                    </g>
                    <g transform="matrix(0.331022,0.668405,-0.399964,0.228309,394.626,-18.7611)">
                        <path d="M440.233,693.616C445.334,693.616 449.476,716.648 449.476,735.759C449.476,754.871 445.334,762.872 440.233,762.872C435.131,762.872 430.989,754.871 430.989,735.759C430.989,716.648 435.131,693.616 440.233,693.616Z" style="fill:rgb(188,218,209);"/>
                    </g>
                    <g transform="matrix(-0.0835255,0.672022,-0.426946,-0.0611637,574.6,218.564)">
                        <path d="M440.233,693.616C445.334,693.616 449.476,716.648 449.476,735.759C449.476,754.871 441.995,762.063 436.893,762.063C431.791,762.063 430.989,754.871 430.989,735.759C430.989,716.648 435.131,693.616 440.233,693.616Z" style="fill:rgb(188,218,209);"/>
                    </g>
                    <g transform="matrix(0.06011,0.752758,-0.4799,0.0441699,522.722,131.492)">
                        <path d="M440.233,693.616C445.334,693.616 449.476,716.648 449.476,735.759C449.476,754.871 441.995,762.063 436.893,762.063C431.791,762.063 430.989,754.871 430.989,735.759C430.989,716.648 435.131,693.616 440.233,693.616Z" style="fill:rgb(188,218,209);"/>
                    </g>
                    <g transform="matrix(0.2281,0.728441,-0.526022,0.189854,460,69.312)">
                        <path d="M440.233,693.616C445.334,693.616 449.476,716.648 449.476,735.759C449.476,754.871 441.995,762.063 436.893,762.063C431.791,762.063 430.989,754.871 430.989,735.759C430.989,716.648 435.131,693.616 440.233,693.616Z" style="fill:rgb(188,218,209);"/>
                    </g>
                    <g transform="matrix(-0.742295,0.0160033,0.0110456,0.590529,473.761,73.7756)">
                        <path d="M440.233,693.616C445.334,693.616 449.476,716.648 449.476,735.759C449.476,754.871 441.995,762.063 436.893,762.063C431.791,762.063 430.989,754.871 430.989,735.759C430.989,716.648 435.131,693.616 440.233,693.616Z" style="fill:rgb(188,218,209);"/>
                    </g>
                    <g transform="matrix(-0.673286,-0.176213,-0.118774,0.523079,567.695,173.554)">
                        <path d="M440.233,693.616C445.334,693.616 449.476,716.648 449.476,735.759C449.476,754.871 441.995,762.063 436.893,762.063C431.791,762.063 430.989,754.871 430.989,735.759C430.989,716.648 435.131,693.616 440.233,693.616Z" style="fill:rgb(188,218,209);"/>
                    </g>
                    <g transform="matrix(-0.603739,-0.137572,-0.0894283,0.452355,544.983,181.003)">
                        <path d="M440.233,693.616C445.334,693.616 449.476,716.648 449.476,735.759C449.476,754.871 441.995,762.063 436.893,762.063C431.791,762.063 430.989,754.871 430.989,735.759C430.989,716.648 435.131,693.616 440.233,693.616Z" style="fill:rgb(188,218,209);"/>
                    </g>
                </g>
                <g transform="matrix(-0.592332,0.81335,0.705655,0.592332,174.028,561.781)">
                    <g transform="matrix(0.549135,0,0,0.589552,0,0)">
                        <path d="M258.694,1046.24C253.431,931.709 315.491,828.197 428.961,761.529" style="fill:none;stroke:rgb(102,160,158);stroke-width:9.87px;"/>
                    </g>
                    <g transform="matrix(0.322464,0.651123,-0.334302,0.190828,346.441,17.1798)">
                        <path d="M440.233,693.616C445.334,693.616 449.476,716.648 449.476,735.759C449.476,754.871 445.334,762.872 440.233,762.872C435.131,762.872 430.989,754.871 430.989,735.759C430.989,716.648 435.131,693.616 440.233,693.616Z" style="fill:rgb(102,160,158);"/>
                    </g>
                    <g transform="matrix(0.0528863,0.712881,-0.447463,0.0382621,530.396,126.412)">
                        <path d="M440.233,693.616C445.334,693.616 449.476,716.648 449.476,735.759C449.476,754.871 441.995,762.063 436.893,762.063C431.791,762.063 430.989,754.871 430.989,735.759C430.989,716.648 435.131,693.616 440.233,693.616Z" style="fill:rgb(102,160,158);"/>
                    </g>
                    <g transform="matrix(0.0233473,0.722641,-0.523116,0.0194803,571.507,164.535)">
                        <path d="M440.233,693.616C445.334,693.616 449.476,716.648 449.476,735.759C449.476,754.871 441.995,762.063 436.893,762.063C431.791,762.063 430.989,754.871 430.989,735.759C430.989,716.648 435.131,693.616 440.233,693.616Z" style="fill:rgb(102,160,158);"/>
                    </g>
                    <g transform="matrix(0.233604,0.903053,-0.534713,0.159431,465.537,15.094)">
                        <path d="M440.233,693.616C445.334,693.616 449.476,716.648 449.476,735.759C449.476,754.871 441.995,762.063 436.893,762.063C431.791,762.063 430.989,754.871 430.989,735.759C430.989,716.648 435.131,693.616 440.233,693.616Z" style="fill:rgb(102,160,158);"/>
                    </g>
                    <g transform="matrix(-0.723318,0.148407,0.110499,0.620755,391.883,-6.51247)">
                        <path d="M440.233,693.616C445.334,693.616 449.476,716.648 449.476,735.759C449.476,754.871 441.995,762.063 436.893,762.063C431.791,762.063 430.989,754.871 430.989,735.759C430.989,716.648 435.131,693.616 440.233,693.616Z" style="fill:rgb(102,160,158);"/>
                    </g>
                    <g transform="matrix(-0.811631,0.379647,0.232166,0.572089,321.63,-27.1356)">
                        <path d="M440.233,693.616C445.334,693.616 449.476,716.648 449.476,735.759C449.476,754.871 441.995,762.063 436.893,762.063C431.791,762.063 430.989,754.871 430.989,735.759C430.989,716.648 435.131,693.616 440.233,693.616Z" style="fill:rgb(102,160,158);"/>
                    </g>
                    <g transform="matrix(0.345526,0.75537,-0.546867,0.288329,411.31,21.8271)">
                        <path d="M440.233,693.616C445.334,693.616 449.476,716.648 449.476,735.759C449.476,754.871 441.995,762.063 436.893,762.063C431.791,762.063 430.989,754.871 430.989,735.759C430.989,716.648 435.131,693.616 440.233,693.616Z" style="fill:rgb(102,160,158);"/>
                    </g>
                    <g transform="matrix(-0.693173,-0.138476,-0.0992226,0.572484,559.083,118.379)">
                        <path d="M440.233,693.616C445.334,693.616 449.476,716.648 449.476,735.759C449.476,754.871 441.995,762.063 436.893,762.063C431.791,762.063 430.989,754.871 430.989,735.759C430.989,716.648 435.131,693.616 440.233,693.616Z" style="fill:rgb(102,160,158);"/>
                    </g>
                    <g transform="matrix(-0.682129,-0.0780403,-0.0453511,0.456899,546.933,150.566)">
                        <path d="M440.233,693.616C445.334,693.616 449.476,716.648 449.476,735.759C449.476,754.871 441.995,762.063 436.893,762.063C431.791,762.063 430.989,754.871 430.989,735.759C430.989,716.648 435.131,693.616 440.233,693.616Z" style="fill:rgb(102,160,158);"/>
                    </g>
                </g>
            </g>
            <g transform="matrix(-0.559246,0,0,0.559246,342.932,-70.1385)">
                <g transform="matrix(-1.01882,0.0137286,0.0156013,1.22438,1102.66,-83.0055)">
                    <path d="M451.534,400.366C448.982,383.55 477.523,358.846 486.298,355.01C495.04,351.189 509.98,369.793 504.186,377.353C498.392,384.912 452.643,405.006 451.534,400.366Z" style="fill:rgb(253,106,102);"/>
                </g>
                <g transform="matrix(-1.14526,0.0154325,0.0170185,1.3356,1171.66,-124.239)">
                    <path d="M486.317,387.488C485.43,380.862 516.453,338.036 538.447,339.203C548.113,339.716 552.455,370.909 543.767,378.957C535.079,387.004 487.204,394.114 486.317,387.488Z" style="fill:rgb(253,106,102);"/>
                </g>
                <g transform="matrix(0.994734,-0.102487,0.102487,0.994734,-58.5888,49.1738)">
                    <g transform="matrix(0.504605,0.630099,-0.773865,0.620669,826.185,180.202)">
                        <path d="M486.317,387.488C485.43,380.862 516.453,338.036 538.447,339.203C548.113,339.716 552.455,370.909 543.767,378.957C535.079,387.004 487.204,394.114 486.317,387.488Z" style="fill:rgb(253,107,103);"/>
                    </g>
                    <g transform="matrix(0.609806,0.686928,-0.867233,0.771004,773.458,57.397)">
                        <path d="M486.317,387.488C485.43,380.862 516.453,338.036 538.447,339.203C548.113,339.716 552.455,370.909 543.767,378.957C535.079,387.004 487.204,394.114 486.317,387.488Z" style="fill:rgb(253,107,103);"/>
                    </g>
                    <g transform="matrix(0.729274,0.558474,-0.71583,0.936176,622.898,27.6955)">
                        <path d="M486.317,387.488C485.43,380.862 516.453,338.036 538.447,339.203C548.113,339.716 552.455,370.909 543.767,378.957C535.079,387.004 487.204,394.114 486.317,387.488Z" style="fill:rgb(253,107,103);"/>
                    </g>
                    <g transform="matrix(0.297295,0.451867,-0.520761,0.343169,898.704,434.823)">
                        <path d="M486.317,387.488C485.43,380.862 516.453,338.036 538.447,339.203C548.113,339.716 552.455,370.909 543.767,378.957C535.079,387.004 487.204,394.114 486.317,387.488Z" style="fill:rgb(253,107,103);"/>
                    </g>
                    <g transform="matrix(0.366125,0.556485,-0.65571,0.432097,888.967,320.311)">
                        <path d="M486.317,387.488C485.43,380.862 516.453,338.036 538.447,339.203C548.113,339.716 552.455,370.909 543.767,378.957C535.079,387.004 487.204,394.114 486.317,387.488Z" style="fill:rgb(253,107,103);"/>
                    </g>
                    <g transform="matrix(1.46094,-1.04826,-0.589017,-0.8209,680.635,1681.12)">
                        <path d="M364.457,585.486C375.649,585.572 367.631,613.007 364.619,644.305C361.286,678.943 352.04,747.911 366.069,788.809C372.972,808.934 277.018,754.283 276.821,730.705C276.377,653.614 320.07,585.148 364.457,585.486Z" style="fill:rgb(254,159,156);"/>
                        <g>
                            <g>
                                <g>
                                    <clipPath id="_clip1">
                                        <path d="M364.457,585.486C375.649,585.572 367.631,613.007 364.619,644.305C361.286,678.943 352.04,747.911 366.069,788.809C372.972,808.934 277.018,754.283 276.821,730.705C276.377,653.614 320.07,585.148 364.457,585.486Z"/>
                                    </clipPath>
                                    <g clip-path="url(#_clip1)">
                                        <g transform="matrix(-0.260432,0.195467,0.211904,0.282332,384.478,266.859)">
                                            <ellipse cx="716.185" cy="713.203" rx="33.711" ry="33.625" style="fill:rgb(254,140,137);"/>
                                        </g>
                                        <g transform="matrix(-0.10663,0.0800313,0.109611,0.14604,349.845,469.878)">
                                            <ellipse cx="716.185" cy="713.203" rx="33.711" ry="33.625" style="fill:rgb(254,140,137);"/>
                                        </g>
                                        <g transform="matrix(-0.130475,0.0979282,0.130718,0.174163,314.07,462.278)">
                                            <ellipse cx="716.185" cy="713.203" rx="33.711" ry="33.625" style="fill:rgb(254,140,137);"/>
                                        </g>
                                    </g>
                                </g>
                            </g>
                        </g>
                    </g>
                </g>
                <path d="M750.852,777.401C740.145,847.463 344.366,846.857 335.776,777.401C325.587,695.019 332.283,590.834 337.332,562.525C355.819,458.893 438.048,369.734 543.314,369.203C648.58,369.734 730.809,458.893 749.295,562.525C754.345,590.834 763.392,695.344 750.852,777.401Z" style="fill:rgb(254,180,178);"/>
                <g>
                    <g>
                        <g>
                            <clipPath id="_clip2">
                                <path d="M750.852,777.401C740.145,847.463 344.366,846.857 335.776,777.401C325.587,695.019 332.283,590.834 337.332,562.525C355.819,458.893 438.048,369.734 543.314,369.203C648.58,369.734 730.809,458.893 749.295,562.525C754.345,590.834 763.392,695.344 750.852,777.401Z"/>
                            </clipPath>
                            <g clip-path="url(#_clip2)">
                                <ellipse cx="360.123" cy="778.252" rx="39.216" ry="31.424" style="fill:rgb(254,165,164);"/>
                                <g transform="matrix(0.893104,0.226825,-0.189335,0.745487,179.578,100.094)">
                                    <ellipse cx="393.895" cy="732.103" rx="14.973" ry="14.725" style="fill:rgb(254,165,164);"/>
                                </g>
                                <g transform="matrix(0.292239,-0.218056,0.189861,0.254453,415.949,644.57)">
                                    <ellipse cx="716.185" cy="713.203" rx="33.711" ry="33.625" style="fill:rgb(254,165,164);"/>
                                </g>
                                <g transform="matrix(0.804541,0.268645,-0.306985,0.919361,294.222,-426.227)">
                                    <ellipse cx="716.185" cy="713.203" rx="33.711" ry="33.625" style="fill:rgb(254,165,164);"/>
                                </g>
                                <g transform="matrix(0.48475,0.161863,-0.149986,0.449181,482.961,80.9884)">
                                    <ellipse cx="716.185" cy="713.203" rx="33.711" ry="33.625" style="fill:rgb(254,165,164);"/>
                                </g>
                                <g transform="matrix(0.342263,0.104273,-0.0858983,0.28195,504.375,487.89)">
                                    <ellipse cx="716.185" cy="713.203" rx="33.711" ry="33.625" style="fill:rgb(254,165,164);"/>
                                </g>
                                <g transform="matrix(0.25025,-0.123278,0.13025,0.264404,398.112,508.517)">
                                    <ellipse cx="716.185" cy="713.203" rx="33.711" ry="33.625" style="fill:rgb(254,165,164);"/>
                                </g>
                                <g transform="matrix(-0.0635588,0.150198,-0.173316,-0.0733416,823.797,676.675)">
                                    <ellipse cx="716.185" cy="713.203" rx="33.711" ry="33.625" style="fill:rgb(254,165,164);"/>
                                </g>
                                <g transform="matrix(-0.131019,0.0971241,-0.106953,-0.144277,545.206,709.712)">
                                    <ellipse cx="716.185" cy="713.203" rx="33.711" ry="33.625" style="fill:rgb(254,165,164);"/>
                                </g>
                                <g transform="matrix(0.652346,0.757921,-0.728072,0.626655,687.227,-202.283)">
                                    <ellipse cx="627.244" cy="866.811" rx="21.909" ry="27.526" style="fill:rgb(254,165,164);"/>
                                </g>
                                <g transform="matrix(0.324924,0.377509,-0.327183,0.281608,599.351,320.652)">
                                    <ellipse cx="627.244" cy="866.811" rx="21.909" ry="27.526" style="fill:rgb(254,165,164);"/>
                                </g>
                                <g transform="matrix(0.408882,0.475055,-0.327183,0.281608,419.507,74.9003)">
                                    <ellipse cx="627.244" cy="866.811" rx="21.909" ry="27.526" style="fill:rgb(254,165,164);"/>
                                </g>
                                <g transform="matrix(0.311154,0.36151,-0.327183,0.281608,689.051,282.876)">
                                    <ellipse cx="627.244" cy="866.811" rx="21.909" ry="27.526" style="fill:rgb(254,165,164);"/>
                                </g>
                                <g transform="matrix(1,5.55112e-17,-3.88578e-16,1,-16.9551,23.7736)">
                                    <ellipse cx="522.817" cy="430.672" rx="20.488" ry="28.446" style="fill:rgb(254,165,164);"/>
                                </g>
                                <g transform="matrix(0.925189,-0.379507,0.379507,0.925189,-140.336,201.007)">
                                    <ellipse cx="451.534" cy="438.87" rx="15.874" ry="8.198" style="fill:rgb(254,165,164);"/>
                                </g>
                            </g>
                        </g>
                    </g>
                </g>
                <g transform="matrix(-0.840963,0.495811,0.528046,0.881725,1476.84,-1691.14)">
                    <ellipse cx="2285.77" cy="1484.14" rx="64.646" ry="72.624" style="fill:rgb(254,160,157);"/>
                    <clipPath id="_clip3">
                        <ellipse cx="2285.77" cy="1484.14" rx="64.646" ry="72.624"/>
                    </clipPath>
                    <g clip-path="url(#_clip3)">
                        <g>
                            <g>
                                <g transform="matrix(-0.466066,-0.295714,0.245667,-0.405341,2509.61,1972.71)">
                                    <ellipse cx="716.185" cy="713.203" rx="33.711" ry="33.625" style="fill:rgb(254,144,141);"/>
                                </g>
                                <g transform="matrix(-0.10159,-0.329942,0.329823,-0.103975,2120.68,1733.19)">
                                    <ellipse cx="716.185" cy="713.203" rx="33.711" ry="33.625" style="fill:rgb(254,144,141);"/>
                                </g>
                                <g transform="matrix(0.27533,-0.155081,0.164966,0.302384,1916.5,1427.13)">
                                    <ellipse cx="716.185" cy="713.203" rx="33.711" ry="33.625" style="fill:rgb(254,144,141);"/>
                                </g>
                                <g transform="matrix(0.287167,0.153656,-0.218293,0.417698,2209.66,1060.33)">
                                    <ellipse cx="716.185" cy="713.203" rx="33.711" ry="33.625" style="fill:rgb(254,144,141);"/>
                                </g>
                                <g transform="matrix(0.028335,-0.226243,0.252503,0.0323781,2114.38,1672.88)">
                                    <ellipse cx="716.185" cy="713.203" rx="33.711" ry="33.625" style="fill:rgb(254,144,141);"/>
                                </g>
                                <g transform="matrix(-0.358145,-1.52449,1.37263,-0.33016,1569.65,2817.76)">
                                    <ellipse cx="716.185" cy="713.203" rx="33.711" ry="33.625" style="fill:rgb(254,142,139);"/>
                                </g>
                                <g transform="matrix(-1.06768,-1.27488,0.829488,-0.677157,1996.01,2351.52)">
                                    <path d="M290.938,786.582C289.41,792.161 297.703,804.169 300.898,803.749C304.093,803.33 311.209,788.682 308.498,783.621C306.894,780.625 291.951,782.885 290.938,786.582Z" style="fill:rgb(253,107,103);"/>
                                </g>
                                <g transform="matrix(-1.73945,-0.107529,0.113881,-1.01655,2725.33,2248.36)">
                                    <path d="M289.567,781.055C288.135,784.359 293.814,803.202 297.009,802.782C300.204,802.362 310.218,789.057 307.507,783.995C305.903,781 291,777.752 289.567,781.055Z" style="fill:rgb(253,107,103);"/>
                                </g>
                                <g transform="matrix(-1.49558,0.936742,-0.539135,-0.832717,3125.1,1799.32)">
                                    <path d="M289.567,781.055C288.135,784.359 294.32,802.205 297.515,801.785C300.71,801.365 310.218,789.057 307.507,783.995C305.903,781 291,777.752 289.567,781.055Z" style="fill:rgb(253,107,103);"/>
                                </g>
                            </g>
                        </g>
                    </g>
                </g>
                <g transform="matrix(-1277.33,0,0,638.663,958.26,876.9)">
                    <path d="M0.072,-0.109L0.777,-0.109C0.784,-0.109 0.791,-0.106 0.796,-0.101C0.801,-0.096 0.804,-0.089 0.804,-0.082L0.804,0.054C0.804,0.061 0.801,0.068 0.796,0.073C0.791,0.078 0.784,0.081 0.777,0.081L0.072,0.081C0.065,0.081 0.058,0.078 0.053,0.073C0.048,0.068 0.045,0.061 0.045,0.054L0.045,-0.082C0.045,-0.089 0.048,-0.096 0.053,-0.101C0.058,-0.106 0.065,-0.109 0.072,-0.109Z" style="fill:rgb(191,178,175);fill-rule:nonzero;"/>
                </g>
                <g transform="matrix(0.574185,-0.818726,0.768759,0.539142,-353.516,532.526)">
                    <g transform="matrix(1.17736,0,0,1.17736,-76.3153,-123.566)">
                        <path d="M394.3,626.529C348.205,656.968 362.266,707.126 362.266,730.705C362.266,754.284 343.123,773.428 319.544,773.428C295.964,773.428 277.018,754.283 276.821,730.705C276.377,653.614 359.158,614.872 394.3,626.529Z" style="fill:rgb(254,159,156);"/>
                        <g>
                            <g>
                                <g>
                                    <clipPath id="_clip4">
                                        <path d="M394.3,626.529C348.205,656.968 362.266,707.126 362.266,730.705C362.266,754.284 343.123,773.428 319.544,773.428C295.964,773.428 277.018,754.283 276.821,730.705C276.377,653.614 359.158,614.872 394.3,626.529Z"/>
                                    </clipPath>
                                    <g clip-path="url(#_clip4)">
                                        <g transform="matrix(0.393214,0.24704,-0.290618,0.462577,212.856,187.004)">
                                            <ellipse cx="716.185" cy="713.203" rx="33.711" ry="33.625" style="fill:rgb(254,140,137);"/>
                                        </g>
                                        <g transform="matrix(0.182296,0.143804,-0.113586,0.14399,260.54,530.44)">
                                            <ellipse cx="716.185" cy="713.203" rx="33.711" ry="33.625" style="fill:rgb(254,140,137);"/>
                                        </g>
                                        <g transform="matrix(-0.127695,0.216196,-0.246456,-0.145567,614.536,599.312)">
                                            <ellipse cx="716.185" cy="713.203" rx="33.711" ry="33.625" style="fill:rgb(254,140,137);"/>
                                        </g>
                                        <g transform="matrix(-0.0790269,0.133798,-0.1462,-0.0863518,545.88,617.605)">
                                            <ellipse cx="716.185" cy="713.203" rx="33.711" ry="33.625" style="fill:rgb(254,140,137);"/>
                                        </g>
                                    </g>
                                </g>
                            </g>
                        </g>
                    </g>
                    <g>
                        <g transform="matrix(1.06141,-0.275349,0.244509,0.85127,-193.492,195.275)">
                            <path d="M290.19,783.38C288.758,786.684 296.238,800.597 299.433,800.177C302.628,799.757 310.207,785.248 308.444,782.365C306.681,779.481 291.623,780.077 290.19,783.38Z" style="fill:rgb(252,75,72);"/>
                        </g>
                        <g transform="matrix(-1.07544,-0.0660621,-0.0653559,0.881921,666.254,110.261)">
                            <path d="M290.428,785.087C288.995,788.391 294.241,801.579 297.436,801.159C300.632,800.739 309.961,788.485 307.25,783.423C305.645,780.428 291.86,781.784 290.428,785.087Z" style="fill:rgb(252,75,72);"/>
                        </g>
                        <g transform="matrix(-1.06751,-0.146164,-0.131012,0.874581,695.353,130.182)">
                            <path d="M291.975,790.144C290.791,793.567 296.094,803.321 300.322,802.693C303.511,802.219 310.259,786.712 307.548,781.65C305.943,778.654 293.457,785.861 291.975,790.144Z" style="fill:rgb(252,75,72);"/>
                        </g>
                    </g>
                </g>
                <g transform="matrix(0.155843,0.987782,-0.987782,0.155843,1201.61,-195.343)">
                    <g transform="matrix(-1.17736,0,0,1.17736,1167.86,-123.566)">
                        <path d="M414.31,597.512C418.441,604.547 384.319,619.258 376.469,637.569C362.002,671.318 362.266,715.263 362.266,730.705C362.266,754.284 343.123,773.428 319.544,773.428C295.964,773.428 277.018,754.283 276.821,730.705C276.524,679.186 295.552,625.14 335.569,602.295C358.9,588.976 406.839,584.787 414.31,597.512Z" style="fill:rgb(254,160,157);"/>
                        <g>
                            <g>
                                <g>
                                    <clipPath id="_clip5">
                                        <path d="M414.31,597.512C418.441,604.547 384.319,619.258 376.469,637.569C362.002,671.318 362.266,715.263 362.266,730.705C362.266,754.284 343.123,773.428 319.544,773.428C295.964,773.428 277.018,754.283 276.821,730.705C276.524,679.186 295.552,625.14 335.569,602.295C358.9,588.976 406.839,584.787 414.31,597.512Z"/>
                                    </clipPath>
                                    <g clip-path="url(#_clip5)">
                                        <g transform="matrix(-0.0985663,0.601653,0.513409,0.0841096,33.3239,115.917)">
                                            <ellipse cx="716.185" cy="713.203" rx="33.711" ry="33.625" style="fill:rgb(254,141,138);"/>
                                        </g>
                                        <g transform="matrix(0.168546,0.184129,0.198503,-0.181703,106.803,598.18)">
                                            <ellipse cx="716.185" cy="713.203" rx="33.711" ry="33.625" style="fill:rgb(254,141,138);"/>
                                        </g>
                                        <g transform="matrix(-0.253509,0.190271,0.236355,0.31491,310.221,380.56)">
                                            <ellipse cx="716.185" cy="713.203" rx="33.711" ry="33.625" style="fill:rgb(254,141,138);"/>
                                        </g>
                                        <g transform="matrix(-0.185901,0.139528,0.134279,0.178908,392.435,480.627)">
                                            <ellipse cx="716.185" cy="713.203" rx="33.711" ry="33.625" style="fill:rgb(254,141,138);"/>
                                        </g>
                                    </g>
                                </g>
                            </g>
                        </g>
                    </g>
                    <g>
                        <g transform="matrix(-1.06141,-0.275349,-0.244509,0.85127,1284.75,195.275)">
                            <path d="M290.19,783.38C288.758,786.684 296.238,800.597 299.433,800.177C302.628,799.757 310.207,785.248 308.444,782.365C306.681,779.481 291.623,780.077 290.19,783.38Z" style="fill:rgb(253,93,90);"/>
                        </g>
                        <g transform="matrix(1.07544,-0.0660621,0.0653559,0.881921,425.002,110.261)">
                            <path d="M290.428,785.087C288.995,788.391 294.241,801.579 297.436,801.159C300.632,800.739 309.961,788.485 307.25,783.423C305.645,780.428 291.86,781.784 290.428,785.087Z" style="fill:rgb(253,93,90);"/>
                        </g>
                        <g transform="matrix(1.06751,-0.146164,0.131012,0.874581,395.903,130.182)">
                            <path d="M291.975,790.144C290.791,793.567 296.094,803.321 300.322,802.693C303.511,802.219 310.259,786.712 307.548,781.65C305.943,778.654 293.457,785.861 291.975,790.144Z" style="fill:rgb(253,93,90);"/>
                        </g>
                    </g>
                </g>
                <g transform="matrix(0.999688,0.0249918,-0.0249918,0.999688,19.7031,-28.5498)">
                    <g transform="matrix(1.04746,-7.26823e-18,0,1.04746,-30.87,3.82644)">
                        <g transform="matrix(1,-3.46945e-18,0,1,8.31539,1.76144)">
                            <g transform="matrix(1.00313,-0.143695,0.136908,0.955749,-1616.4,-138.792)">
                                <path d="M2114.22,1019.91C2120.16,1022.13 2128.02,1017.99 2128.04,1018.91C2128.16,1024.34 2121.44,1032.07 2116.22,1035.04L2114.22,1019.91Z"/>
                            </g>
                            <g transform="matrix(1,0,0,1,194.883,15.406)">
                                <circle cx="427.545" cy="531.3" r="27.325"/>
                            </g>
                            <g transform="matrix(1,-1.04083e-17,0,1,195.863,14.2105)">
                                <circle cx="437.886" cy="527.93" r="10.341" style="fill:white;"/>
                            </g>
                        </g>
                        <g transform="matrix(1,-3.46945e-18,0,1,-5.24287,-0.330602)">
                            <g transform="matrix(-0.980387,-0.256436,-0.238401,0.91144,2720.91,125.4)">
                                <path d="M2114.22,1019.91C2120.16,1022.13 2128.02,1017.99 2128.04,1018.91C2128.16,1024.34 2121.44,1032.07 2116.22,1035.04L2114.22,1019.91Z"/>
                            </g>
                            <g transform="matrix(1,3.46945e-18,0,1,-4.38307,-3.37523e-13)">
                                <circle cx="427.545" cy="531.3" r="27.325"/>
                            </g>
                            <g transform="matrix(1,-3.46945e-18,0,1,-3.79538,-1.48729)">
                                <circle cx="437.886" cy="527.93" r="10.341" style="fill:white;"/>
                            </g>
                        </g>
                    </g>
                    <g transform="matrix(-0.511026,-0.0466294,-0.0645561,0.70749,1247.27,-113.884)">
                        <path d="M1183.13,1068.83C1193.23,1086.94 1206.4,1094 1220.44,1095.96C1233.03,1097.72 1246.7,1095.16 1260.36,1092.06C1272.38,1089.33 1284.38,1086.11 1295.7,1086.17C1307.43,1086.11 1319.63,1089.73 1331.96,1092.73C1345.8,1096.09 1359.77,1098.78 1373.25,1096.55C1387.04,1094.27 1400.67,1086.98 1412.89,1069.41C1413.87,1068.06 1413.15,1066.38 1411.27,1065.67C1409.4,1064.96 1407.07,1065.48 1406.09,1066.84C1394.8,1081.71 1383.25,1088.09 1371.26,1089.78C1359.44,1091.45 1347.46,1088.56 1335.5,1085.42C1322.05,1081.9 1308.62,1078.03 1295.72,1077.93C1283.29,1077.96 1270.05,1081.3 1256.94,1084.5C1245.02,1087.41 1233.24,1090.24 1222.09,1089.02C1210.18,1087.71 1199.38,1081.69 1189.88,1066.73C1189.08,1065.39 1186.91,1064.77 1185.05,1065.35C1183.19,1065.92 1182.33,1067.49 1183.13,1068.83Z" style="fill:rgb(182,70,70);"/>
                    </g>
                </g>
                <g transform="matrix(0.783131,0.687997,-0.685303,0.767895,-84.2415,-1943.88)">
                    <ellipse cx="2285.77" cy="1484.14" rx="64.646" ry="72.624" style="fill:rgb(254,161,158);"/>
                    <clipPath id="_clip6">
                        <ellipse cx="2285.77" cy="1484.14" rx="64.646" ry="72.624"/>
                    </clipPath>
                    <g clip-path="url(#_clip6)">
                        <g>
                            <g transform="matrix(-0.179569,-0.583203,0.480238,-0.151393,2136.46,2020.09)">
                                <ellipse cx="716.185" cy="713.203" rx="33.711" ry="33.625" style="fill:rgb(254,145,142);"/>
                            </g>
                            <g transform="matrix(-0.10159,-0.329942,0.329823,-0.103975,2157.41,1737.49)">
                                <ellipse cx="716.185" cy="713.203" rx="33.711" ry="33.625" style="fill:rgb(254,145,142);"/>
                            </g>
                            <g transform="matrix(0.177099,-0.0493423,0.0611851,0.224843,2094.43,1415.17)">
                                <ellipse cx="716.185" cy="713.203" rx="33.711" ry="33.625" style="fill:rgb(254,145,142);"/>
                            </g>
                            <g transform="matrix(0.287167,0.153656,-0.218293,0.417698,2180.72,1059.99)">
                                <ellipse cx="716.185" cy="713.203" rx="33.711" ry="33.625" style="fill:rgb(254,145,142);"/>
                            </g>
                            <g transform="matrix(0.0375275,-0.299642,0.219049,0.0280883,2140.37,1672.18)">
                                <ellipse cx="716.185" cy="713.203" rx="33.711" ry="33.625" style="fill:rgb(254,145,142);"/>
                            </g>
                            <g transform="matrix(-0.358145,-1.52449,1.37263,-0.33016,1561.58,2823.87)">
                                <ellipse cx="716.185" cy="713.203" rx="33.711" ry="33.625" style="fill:rgb(254,143,140);"/>
                            </g>
                            <g transform="matrix(-1.6394,-0.470275,0.269111,-1.00886,2581.66,2357.53)">
                                <path d="M290.938,786.582C289.41,792.161 297.703,804.169 300.898,803.749C304.093,803.33 311.209,788.682 308.498,783.621C306.894,780.625 291.951,782.885 290.938,786.582Z" style="fill:rgb(253,108,104);"/>
                            </g>
                            <g transform="matrix(-1.43734,0.926116,-0.565649,-0.874275,3136.95,1832.21)">
                                <path d="M289.567,781.055C288.135,784.359 293.814,803.202 297.009,802.782C300.204,802.362 310.218,789.057 307.507,783.995C305.903,781 291,777.752 289.567,781.055Z" style="fill:rgb(253,108,104);"/>
                            </g>
                            <g transform="matrix(-0.7834,1.53119,-0.907446,-0.460749,3179.91,1356.52)">
                                <path d="M289.567,781.055C288.135,784.359 294.32,802.205 297.515,801.785C300.71,801.365 310.218,789.057 307.507,783.995C305.903,781 291,777.752 289.567,781.055Z" style="fill:rgb(253,108,104);"/>
                            </g>
                        </g>
                    </g>
                </g>
                <g transform="matrix(-1.1296,-0.189706,-0.187763,1.11803,1258.51,60.2238)">
                    <path d="M541.963,383.304C536.609,396.199 564.079,436.175 573.887,430.672C583.695,425.169 612.212,372.792 594.738,351.552C584.262,338.818 548.652,367.193 541.963,383.304Z" style="fill:rgb(253,106,102);"/>
                </g>
            </g>
        </g>
    </g>
</svg>
