<?xml version="1.0" encoding="UTF-8" standalone="no"?>
<!DOCTYPE svg PUBLIC "-//W3C//DTD SVG 1.1//EN" "http://www.w3.org/Graphics/SVG/1.1/DTD/svg11.dtd">
<svg width="100%" height="100%" viewBox="0 0 896 797" version="1.1" xmlns="http://www.w3.org/2000/svg" xmlns:xlink="http://www.w3.org/1999/xlink" xml:space="preserve" xmlns:serif="http://www.serif.com/" style="fill-rule:evenodd;clip-rule:evenodd;stroke-linecap:round;stroke-linejoin:round;stroke-miterlimit:1.5;">
    <g transform="matrix(1,0,0,1,-276.747,-1659.46)">
        <g transform="matrix(1.82104,0,0,1.6962,0,0)">
            <g transform="matrix(0.528471,0,0,0.567426,-184.169,227.148)">
                <circle cx="1057.35" cy="1737.7" r="413.85" style="fill:rgb(255,238,233);"/>
                <clipPath id="_clip1">
                    <circle cx="1057.35" cy="1737.7" r="413.85"/>
                </clipPath>
                <g clip-path="url(#_clip1)">
                    <g transform="matrix(-1.43049,0,0,1.43034,1835.12,1060.95)">
                        <g transform="matrix(-1.17736,0,0,1.17736,1164.08,-123.566)">
                            <path d="M372.825,533.416C394.083,523.214 362.266,707.126 362.266,730.705C362.266,754.284 343.123,773.428 319.544,773.428C295.964,773.428 277.018,754.283 276.821,730.705C276.377,653.614 329.246,554.328 372.825,533.416Z" style="fill:rgb(254,158,155);"/>
                            <clipPath id="_clip2">
                                <path d="M372.825,533.416C394.083,523.214 362.266,707.126 362.266,730.705C362.266,754.284 343.123,773.428 319.544,773.428C295.964,773.428 277.018,754.283 276.821,730.705C276.377,653.614 329.246,554.328 372.825,533.416Z"/>
                            </clipPath>
                            <g clip-path="url(#_clip2)">
                                <g transform="matrix(0.393214,0.24704,-0.290618,0.462577,212.856,187.004)">
                                    <ellipse cx="716.185" cy="713.203" rx="33.711" ry="33.625" style="fill:rgb(254,139,136);"/>
                                </g>
                                <g transform="matrix(0.224096,0.0607668,-0.0479978,0.177006,170.009,555.049)">
                                    <ellipse cx="716.185" cy="713.203" rx="33.711" ry="33.625" style="fill:rgb(254,139,136);"/>
                                </g>
                                <g transform="matrix(0.24234,0.0657138,-0.0749113,0.276258,229.453,356.586)">
                                    <ellipse cx="716.185" cy="713.203" rx="33.711" ry="33.625" style="fill:rgb(254,139,136);"/>
                                </g>
                                <g transform="matrix(0.149978,0.0406686,-0.0444381,0.163879,265.317,417.922)">
                                    <ellipse cx="716.185" cy="713.203" rx="33.711" ry="33.625" style="fill:rgb(254,139,136);"/>
                                </g>
                            </g>
                        </g>
                        <g transform="matrix(1.17736,0,0,1.17736,-76.3153,-123.566)">
                            <path d="M372.825,533.416C394.083,523.214 362.266,707.126 362.266,730.705C362.266,754.284 343.123,773.428 319.544,773.428C295.964,773.428 277.018,754.283 276.821,730.705C276.377,653.614 329.246,554.328 372.825,533.416Z" style="fill:rgb(254,158,155);"/>
                            <clipPath id="_clip3">
                                <path d="M372.825,533.416C394.083,523.214 362.266,707.126 362.266,730.705C362.266,754.284 343.123,773.428 319.544,773.428C295.964,773.428 277.018,754.283 276.821,730.705C276.377,653.614 329.246,554.328 372.825,533.416Z"/>
                            </clipPath>
                            <g clip-path="url(#_clip3)">
                                <g transform="matrix(-0.487611,0.365976,0.312298,0.416092,443.489,44.2617)">
                                    <ellipse cx="716.185" cy="713.203" rx="33.711" ry="33.625" style="fill:rgb(254,139,136);"/>
                                </g>
                                <g transform="matrix(-0.199645,0.149844,0.161541,0.21523,344.773,379.246)">
                                    <ellipse cx="716.185" cy="713.203" rx="33.711" ry="33.625" style="fill:rgb(254,139,136);"/>
                                </g>
                                <g transform="matrix(-0.253509,0.190271,0.236355,0.31491,310.487,391.509)">
                                    <ellipse cx="716.185" cy="713.203" rx="33.711" ry="33.625" style="fill:rgb(254,139,136);"/>
                                </g>
                            </g>
                        </g>
                        <g transform="matrix(1.01148,-0.122864,0.133057,1.08873,-55.0674,25.4624)">
                            <path d="M451.534,400.366C448.982,383.55 477.523,358.846 486.298,355.01C495.04,351.189 509.98,369.793 504.186,377.353C498.392,384.912 452.643,405.006 451.534,400.366Z" style="fill:rgb(253,107,103);"/>
                        </g>
                        <g transform="matrix(1.13701,-0.138113,0.145144,1.18762,-128.453,-1.98785)">
                            <path d="M486.317,387.488C485.43,380.862 516.453,338.036 538.447,339.203C548.113,339.716 552.455,370.909 543.767,378.957C535.079,387.004 487.204,394.114 486.317,387.488Z" style="fill:rgb(253,107,103);"/>
                        </g>
                        <path d="M750.852,777.401C740.145,847.463 344.366,846.857 335.776,777.401C325.587,695.019 332.283,590.834 337.332,562.525C355.819,458.893 438.048,369.734 543.314,369.203C648.58,369.734 730.809,458.893 749.295,562.525C754.345,590.834 763.392,695.344 750.852,777.401Z" style="fill:rgb(254,180,178);"/>
                        <clipPath id="_clip4">
                            <path d="M750.852,777.401C740.145,847.463 344.366,846.857 335.776,777.401C325.587,695.019 332.283,590.834 337.332,562.525C355.819,458.893 438.048,369.734 543.314,369.203C648.58,369.734 730.809,458.893 749.295,562.525C754.345,590.834 763.392,695.344 750.852,777.401Z"/>
                        </clipPath>
                        <g clip-path="url(#_clip4)">
                            <ellipse cx="360.123" cy="778.252" rx="39.216" ry="31.424" style="fill:rgb(254,165,163);"/>
                            <g transform="matrix(0.893104,0.226825,-0.189335,0.745487,179.578,100.094)">
                                <ellipse cx="393.895" cy="732.103" rx="14.973" ry="14.725" style="fill:rgb(254,165,163);"/>
                            </g>
                            <g transform="matrix(0.844242,-0.206932,0.231955,0.946331,-59.4153,188.542)">
                                <ellipse cx="716.185" cy="713.203" rx="33.711" ry="33.625" style="fill:rgb(254,165,163);"/>
                            </g>
                            <g transform="matrix(0.847114,0.0430574,-0.0492023,0.96801,82.8002,-308.915)">
                                <ellipse cx="716.185" cy="713.203" rx="33.711" ry="33.625" style="fill:rgb(254,165,163);"/>
                            </g>
                            <g transform="matrix(0.342263,0.104273,-0.0858983,0.28195,504.375,487.89)">
                                <ellipse cx="716.185" cy="713.203" rx="33.711" ry="33.625" style="fill:rgb(254,165,163);"/>
                            </g>
                            <g transform="matrix(0.25025,-0.123278,0.13025,0.264404,398.112,508.517)">
                                <ellipse cx="716.185" cy="713.203" rx="33.711" ry="33.625" style="fill:rgb(254,165,163);"/>
                            </g>
                            <g transform="matrix(-0.0635588,0.150198,-0.173316,-0.0733416,823.797,676.675)">
                                <ellipse cx="716.185" cy="713.203" rx="33.711" ry="33.625" style="fill:rgb(254,165,163);"/>
                            </g>
                            <g transform="matrix(-0.131019,0.0971241,-0.106953,-0.144277,545.206,709.712)">
                                <ellipse cx="716.185" cy="713.203" rx="33.711" ry="33.625" style="fill:rgb(254,165,163);"/>
                            </g>
                            <g transform="matrix(0.790643,-0.612278,0.612278,0.790643,-162.619,411.812)">
                                <ellipse cx="522.817" cy="430.672" rx="20.488" ry="28.446" style="fill:rgb(254,165,163);"/>
                            </g>
                            <g transform="matrix(0.925189,-0.379507,0.379507,0.925189,-132.774,204.193)">
                                <ellipse cx="451.534" cy="438.87" rx="15.874" ry="8.198" style="fill:rgb(254,165,163);"/>
                            </g>
                        </g>
                        <g transform="matrix(1.14542,0,0,1.13369,-101.725,-64.15)">
                            <path d="M541.963,383.304C536.609,396.199 564.079,436.175 573.887,430.672C583.695,425.169 612.212,372.792 594.738,351.552C584.262,338.818 548.652,367.193 541.963,383.304Z" style="fill:rgb(253,107,103);"/>
                        </g>
                        <g transform="matrix(1,0,0,1,-2.51404,9.42858)">
                            <g transform="matrix(1.04746,0,0,1.04746,-29.9606,-24.7023)">
                                <g transform="matrix(1.23866,-0.23697,0.220305,1.15155,-2148.13,-159.109)">
                                    <path d="M2114.22,1019.91C2120.16,1022.13 2128.02,1017.99 2128.04,1018.91C2128.16,1024.34 2121.44,1032.07 2116.22,1035.04L2114.22,1019.91Z"/>
                                </g>
                                <g transform="matrix(1,0,0,1,249.676,0)">
                                    <circle cx="427.545" cy="531.3" r="27.325"/>
                                </g>
                                <g transform="matrix(1,0,0,1,246.529,-0.551437)">
                                    <circle cx="437.886" cy="527.93" r="10.341" style="fill:white;"/>
                                </g>
                            </g>
                            <g transform="matrix(-0.440345,0,0,0.252064,1117.91,278.04)">
                                <path d="M1184.1,1074.32C1203.37,1097.38 1225.99,1113.47 1250.19,1122.12C1265.63,1127.64 1281.71,1130.25 1297.81,1129.7C1338.33,1128.31 1378.96,1108.3 1411.74,1075.24C1413.98,1073.07 1414.8,1068.13 1413.56,1064.2C1412.32,1060.28 1409.49,1058.85 1407.24,1061.01C1375.33,1090.39 1336.23,1104.93 1297.61,1105.59C1282.39,1105.85 1267.23,1104.17 1252.54,1099.94C1229.59,1093.32 1207.75,1081.11 1188.91,1061.25C1186.85,1058.93 1184.09,1059.97 1182.76,1063.58C1181.43,1067.18 1182.03,1072 1184.1,1074.32Z" style="fill:rgb(182,70,70);"/>
                            </g>
                            <g transform="matrix(1.04047,-0.127991,0.127991,1.04047,-94.0995,34.1041)">
                                <g transform="matrix(-1.2222,-0.310876,-0.289013,1.13625,3282.2,14.9597)">
                                    <path d="M2114.22,1019.91C2120.16,1022.13 2128.02,1017.99 2128.04,1018.91C2128.16,1024.34 2121.44,1032.07 2116.22,1035.04L2114.22,1019.91Z"/>
                                </g>
                                <g transform="matrix(-0.954688,3.31224e-18,0,0.954688,2317,-1395.96)">
                                    <path d="M1955.86,2026.88C1957.83,2018.65 1962.13,2012.19 1967.46,2007.75C1971.34,2004.5 1975.82,2002.44 1980.38,2001.65C1982.69,2001.24 1985.02,2001.2 1987.32,2001.48C1989.58,2001.76 1991.81,2002.34 1993.95,2003.33C1996.99,2004.72 1999.87,2006.81 2002.43,2009.78C2004.67,2012.39 2006.75,2015.54 2008.42,2019.43C2008.81,2020.52 2010.01,2021.09 2011.1,2020.71C2012.19,2020.32 2012.76,2019.12 2012.37,2018.03C2010.75,2012.32 2008.35,2007.72 2005.42,2004.11C2002.97,2001.07 2000.1,1998.79 1997.05,1997.14C1994.26,1995.62 1991.27,1994.68 1988.23,1994.29C1985.18,1993.89 1982.06,1994.06 1979.02,1994.72C1974.72,1995.66 1970.53,1997.56 1966.79,2000.39C1959.48,2005.91 1953.77,2014.8 1952.11,2026.16C1951.91,2027.19 1952.59,2028.19 1953.63,2028.39C1954.66,2028.59 1955.66,2027.91 1955.86,2026.88Z"/>
                                </g>
                            </g>
                        </g>
                    </g>
                </g>
            </g>
            <g transform="matrix(-0.755121,-0.137031,-0.115362,0.732731,750.348,728.671)">
                <g transform="matrix(0.549135,0,0,0.589552,0,0)">
                    <path d="M265.24,970.652C290.452,888.055 346.782,814.219 428.961,761.529" style="fill:none;stroke:rgb(188,218,209);stroke-width:10.6px;"/>
                </g>
                <g transform="matrix(0.23023,0.464884,-0.341882,0.195155,394.199,95.2795)">
                    <path d="M440.233,693.616C445.334,693.616 449.476,716.648 449.476,735.759C449.476,754.871 445.334,762.872 440.233,762.872C435.131,762.872 430.989,754.871 430.989,735.759C430.989,716.648 435.131,693.616 440.233,693.616Z" style="fill:rgb(188,218,209);"/>
                </g>
                <g transform="matrix(0.0385193,0.519221,-0.42937,0.036715,521.793,211.605)">
                    <path d="M440.233,693.616C445.334,693.616 449.476,716.648 449.476,735.759C449.476,754.871 441.995,762.063 436.893,762.063C431.791,762.063 430.989,754.871 430.989,735.759C430.989,716.648 435.131,693.616 440.233,693.616Z" style="fill:rgb(188,218,209);"/>
                </g>
                <g transform="matrix(0.0247041,0.588262,-0.479799,0.0142763,539.64,225.954)">
                    <path d="M440.233,693.616C445.334,693.616 449.476,716.648 449.476,735.759C449.476,754.871 441.995,762.063 436.893,762.063C431.791,762.063 430.989,754.871 430.989,735.759C430.989,716.648 435.131,693.616 440.233,693.616Z" style="fill:rgb(188,218,209);"/>
                </g>
                <g transform="matrix(0.240752,0.769317,-0.525639,0.186237,457.892,53.2434)">
                    <path d="M440.233,693.616C445.334,693.616 449.476,716.648 449.476,735.759C449.476,754.871 441.995,762.063 436.893,762.063C431.791,762.063 430.989,754.871 430.989,735.759C430.989,716.648 435.131,693.616 440.233,693.616Z" style="fill:rgb(188,218,209);"/>
                </g>
                <g transform="matrix(-0.696741,0.118353,0.078271,0.584406,407.337,32.5814)">
                    <path d="M440.233,693.616C445.334,693.616 449.476,716.648 449.476,735.759C449.476,754.871 441.995,762.063 436.893,762.063C431.791,762.063 430.989,754.871 430.989,735.759C430.989,716.648 435.131,693.616 440.233,693.616Z" style="fill:rgb(188,218,209);"/>
                </g>
                <g transform="matrix(-0.674179,0.253848,0.191111,0.585021,292.492,19.5962)">
                    <path d="M440.233,693.616C445.334,693.616 449.476,716.648 449.476,735.759C449.476,754.871 441.995,762.063 436.893,762.063C431.791,762.063 430.989,754.871 430.989,735.759C430.989,716.648 435.131,693.616 440.233,693.616Z" style="fill:rgb(188,218,209);"/>
                </g>
                <g transform="matrix(0.377622,0.688515,-0.490347,0.30727,351.926,41.469)">
                    <path d="M440.233,693.616C445.334,693.616 449.476,716.648 449.476,735.759C449.476,754.871 441.995,762.063 436.893,762.063C431.791,762.063 430.989,754.871 430.989,735.759C430.989,716.648 435.131,693.616 440.233,693.616Z" style="fill:rgb(188,218,209);"/>
                </g>
                <g transform="matrix(-0.531283,-0.11274,-0.102167,0.528838,495.859,138.81)">
                    <path d="M440.233,693.616C445.334,693.616 449.476,716.648 449.476,735.759C449.476,754.871 441.995,762.063 436.893,762.063C431.791,762.063 430.989,754.871 430.989,735.759C430.989,716.648 435.131,693.616 440.233,693.616Z" style="fill:rgb(188,218,209);"/>
                </g>
                <g transform="matrix(-0.432424,-0.23616,-0.195293,0.412169,549.767,254.19)">
                    <path d="M440.233,693.616C445.334,693.616 449.476,716.648 449.476,735.759C449.476,754.871 441.995,762.063 436.893,762.063C431.791,762.063 430.989,754.871 430.989,735.759C430.989,716.648 435.131,693.616 440.233,693.616Z" style="fill:rgb(188,218,209);"/>
                </g>
            </g>
            <g transform="matrix(0.407201,0.98056,-0.850725,0.407201,1259.44,334.309)">
                <g transform="matrix(-0.927219,-0.0659436,-0.0572121,0.927219,696.968,557.76)">
                    <g transform="matrix(0.549135,0,0,0.589552,0,0)">
                        <path d="M291.451,899.885C320.145,845.551 366.852,798.021 428.961,761.529" style="fill:none;stroke:rgb(188,218,209);stroke-width:8.61px;"/>
                    </g>
                    <g transform="matrix(0.242056,0.488763,-0.399964,0.228309,433.411,59.6953)">
                        <path d="M440.233,693.616C445.334,693.616 449.476,716.648 449.476,735.759C449.476,754.871 445.334,762.872 440.233,762.872C435.131,762.872 430.989,754.871 430.989,735.759C430.989,716.648 435.131,693.616 440.233,693.616Z" style="fill:rgb(188,218,209);"/>
                    </g>
                    <g transform="matrix(0.0385193,0.519221,-0.42937,0.036715,521.991,211.109)">
                        <path d="M440.233,693.616C445.334,693.616 449.476,716.648 449.476,735.759C449.476,754.871 441.995,762.063 436.893,762.063C431.791,762.063 430.989,754.871 430.989,735.759C430.989,716.648 435.131,693.616 440.233,693.616Z" style="fill:rgb(188,218,209);"/>
                    </g>
                    <g transform="matrix(0.189101,0.550477,-0.451906,0.178932,443.602,119.754)">
                        <path d="M440.233,693.616C445.334,693.616 449.476,716.648 449.476,735.759C449.476,754.871 441.995,762.063 436.893,762.063C431.791,762.063 430.989,754.871 430.989,735.759C430.989,716.648 435.131,693.616 440.233,693.616Z" style="fill:rgb(188,218,209);"/>
                    </g>
                    <g transform="matrix(0.251385,0.56515,-0.500779,0.256748,430.849,91.324)">
                        <path d="M440.233,693.616C445.334,693.616 449.476,716.648 449.476,735.759C449.476,754.871 441.995,762.063 436.893,762.063C431.791,762.063 430.989,754.871 430.989,735.759C430.989,716.648 435.131,693.616 440.233,693.616Z" style="fill:rgb(188,218,209);"/>
                    </g>
                    <g transform="matrix(-0.539993,-0.050722,-0.0479509,0.588401,429.595,105.789)">
                        <path d="M440.233,693.616C445.334,693.616 449.476,716.648 449.476,735.759C449.476,754.871 441.995,762.063 436.893,762.063C431.791,762.063 430.989,754.871 430.989,735.759C430.989,716.648 435.131,693.616 440.233,693.616Z" style="fill:rgb(188,218,209);"/>
                    </g>
                    <g transform="matrix(-0.502851,-0.220686,-0.189757,0.498366,544.017,211.716)">
                        <path d="M440.233,693.616C445.334,693.616 449.476,716.648 449.476,735.759C449.476,754.871 441.995,762.063 436.893,762.063C431.791,762.063 430.989,754.871 430.989,735.759C430.989,716.648 435.131,693.616 440.233,693.616Z" style="fill:rgb(188,218,209);"/>
                    </g>
                    <g transform="matrix(-0.432424,-0.23616,-0.195293,0.412169,548.704,253.492)">
                        <path d="M440.233,693.616C445.334,693.616 449.476,716.648 449.476,735.759C449.476,754.871 441.995,762.063 436.893,762.063C431.791,762.063 430.989,754.871 430.989,735.759C430.989,716.648 435.131,693.616 440.233,693.616Z" style="fill:rgb(188,218,209);"/>
                    </g>
                </g>
                <g transform="matrix(-0.592332,0.81335,0.705655,0.592332,174.028,561.781)">
                    <g transform="matrix(0.549135,0,0,0.589552,0,0)">
                        <path d="M258.694,1046.24C253.431,931.709 315.491,828.197 428.961,761.529" style="fill:none;stroke:rgb(102,160,158);stroke-width:8.32px;"/>
                    </g>
                    <g transform="matrix(0.23023,0.464884,-0.282983,0.161534,349.267,120.928)">
                        <path d="M440.233,693.616C445.334,693.616 449.476,716.648 449.476,735.759C449.476,754.871 445.334,762.872 440.233,762.872C435.131,762.872 430.989,754.871 430.989,735.759C430.989,716.648 435.131,693.616 440.233,693.616Z" style="fill:rgb(102,160,158);"/>
                    </g>
                    <g transform="matrix(0.0528863,0.712881,-0.385485,0.0329624,482.76,129.525)">
                        <path d="M440.233,693.616C445.334,693.616 449.476,716.648 449.476,735.759C449.476,754.871 441.995,762.063 436.893,762.063C431.791,762.063 430.989,754.871 430.989,735.759C430.989,716.648 435.131,693.616 440.233,693.616Z" style="fill:rgb(102,160,158);"/>
                    </g>
                    <g transform="matrix(0.144219,0.706304,-0.45121,0.106192,464.81,105.464)">
                        <path d="M440.233,693.616C445.334,693.616 449.476,716.648 449.476,735.759C449.476,754.871 441.995,762.063 436.893,762.063C431.791,762.063 430.989,754.871 430.989,735.759C430.989,716.648 435.131,693.616 440.233,693.616Z" style="fill:rgb(102,160,158);"/>
                    </g>
                    <g transform="matrix(0.200202,0.773929,-0.534713,0.159431,479.933,70.7451)">
                        <path d="M440.233,693.616C445.334,693.616 449.476,716.648 449.476,735.759C449.476,754.871 441.995,762.063 436.893,762.063C431.791,762.063 430.989,754.871 430.989,735.759C430.989,716.648 435.131,693.616 440.233,693.616Z" style="fill:rgb(102,160,158);"/>
                    </g>
                    <g transform="matrix(-0.723318,0.148407,0.103271,0.580149,397.391,24.4315)">
                        <path d="M440.233,693.616C445.334,693.616 449.476,716.648 449.476,735.759C449.476,754.871 441.995,762.063 436.893,762.063C431.791,762.063 430.989,754.871 430.989,735.759C430.989,716.648 435.131,693.616 440.233,693.616Z" style="fill:rgb(102,160,158);"/>
                    </g>
                    <g transform="matrix(-0.681927,0.318977,0.219747,0.541486,275.194,22.3338)">
                        <path d="M440.233,693.616C445.334,693.616 449.476,716.648 449.476,735.759C449.476,754.871 441.995,762.063 436.893,762.063C431.791,762.063 430.989,754.871 430.989,735.759C430.989,716.648 435.131,693.616 440.233,693.616Z" style="fill:rgb(102,160,158);"/>
                    </g>
                    <g transform="matrix(0.303525,0.663549,-0.546867,0.288329,430.189,63.0988)">
                        <path d="M440.233,693.616C445.334,693.616 449.476,716.648 449.476,735.759C449.476,754.871 441.995,762.063 436.893,762.063C431.791,762.063 430.989,754.871 430.989,735.759C430.989,716.648 435.131,693.616 440.233,693.616Z" style="fill:rgb(102,160,158);"/>
                    </g>
                    <g transform="matrix(0.486301,0.671493,-0.505225,0.421729,313.038,2.98636)">
                        <path d="M440.233,693.616C445.334,693.616 449.476,716.648 449.476,735.759C449.476,754.871 441.995,762.063 436.893,762.063C431.791,762.063 430.989,754.871 430.989,735.759C430.989,716.648 435.131,693.616 440.233,693.616Z" style="fill:rgb(102,160,158);"/>
                    </g>
                    <g transform="matrix(-0.559473,0.778596,0.506248,0.419291,2.48307,-41.6522)">
                        <path d="M440.233,693.616C445.334,693.616 449.476,716.648 449.476,735.759C449.476,754.871 441.995,762.063 436.893,762.063C431.791,762.063 430.989,754.871 430.989,735.759C430.989,716.648 435.131,693.616 440.233,693.616Z" style="fill:rgb(102,160,158);"/>
                    </g>
                    <g transform="matrix(-0.629621,-0.12578,-0.0914501,0.527639,526.948,145.236)">
                        <path d="M440.233,693.616C445.334,693.616 449.476,716.648 449.476,735.759C449.476,754.871 441.995,762.063 436.893,762.063C431.791,762.063 430.989,754.871 430.989,735.759C430.989,716.648 435.131,693.616 440.233,693.616Z" style="fill:rgb(102,160,158);"/>
                    </g>
                    <g transform="matrix(-0.594774,-0.0680462,-0.0383625,0.386491,503.958,199.913)">
                        <path d="M440.233,693.616C445.334,693.616 449.476,716.648 449.476,735.759C449.476,754.871 441.995,762.063 436.893,762.063C431.791,762.063 430.989,754.871 430.989,735.759C430.989,716.648 435.131,693.616 440.233,693.616Z" style="fill:rgb(102,160,158);"/>
                    </g>
                </g>
            </g>
            <g>
                <g transform="matrix(0.462925,-1.09221,0.947588,0.462925,-337.337,1313.53)">
                    <g transform="matrix(0.549135,0,0,0.589552,0,0)">
                        <path d="M265.24,970.652C284.073,886.848 341.109,813.146 428.961,761.529" style="fill:none;stroke:rgb(188,218,209);stroke-width:7.16px;"/>
                    </g>
                    <g transform="matrix(0.23023,0.464884,-0.459653,0.262381,484.044,43.9942)">
                        <path d="M440.233,693.616C445.334,693.616 449.476,716.648 449.476,735.759C449.476,754.871 445.334,762.872 440.233,762.872C435.131,762.872 430.989,754.871 430.989,735.759C430.989,716.648 435.131,693.616 440.233,693.616Z" style="fill:rgb(188,218,209);"/>
                    </g>
                    <g transform="matrix(0.0385193,0.519221,-0.493768,0.0422216,571.066,206.913)">
                        <path d="M440.233,693.616C445.334,693.616 449.476,716.648 449.476,735.759C449.476,754.871 441.995,762.063 436.893,762.063C431.791,762.063 430.989,754.871 430.989,735.759C430.989,716.648 435.131,693.616 440.233,693.616Z" style="fill:rgb(188,218,209);"/>
                    </g>
                    <g transform="matrix(0.189101,0.550477,-0.529545,0.209673,502.768,96.3274)">
                        <path d="M440.233,693.616C445.334,693.616 449.476,716.648 449.476,735.759C449.476,754.871 441.995,762.063 436.893,762.063C431.791,762.063 430.989,754.871 430.989,735.759C430.989,716.648 435.131,693.616 440.233,693.616Z" style="fill:rgb(188,218,209);"/>
                    </g>
                    <g transform="matrix(0.251385,0.56515,-0.500779,0.256748,430.849,91.324)">
                        <path d="M440.233,693.616C445.334,693.616 449.476,716.648 449.476,735.759C449.476,754.871 441.995,762.063 436.893,762.063C431.791,762.063 430.989,754.871 430.989,735.759C430.989,716.648 435.131,693.616 440.233,693.616Z" style="fill:rgb(188,218,209);"/>
                    </g>
                    <g transform="matrix(-0.539993,-0.050722,-0.0479509,0.588401,429.595,105.789)">
                        <path d="M440.233,693.616C445.334,693.616 449.476,716.648 449.476,735.759C449.476,754.871 441.995,762.063 436.893,762.063C431.791,762.063 430.989,754.871 430.989,735.759C430.989,716.648 435.131,693.616 440.233,693.616Z" style="fill:rgb(188,218,209);"/>
                    </g>
                    <g transform="matrix(-0.511509,0.192598,0.182076,0.557364,229.349,65.7504)">
                        <path d="M440.233,693.616C445.334,693.616 449.476,716.648 449.476,735.759C449.476,754.871 441.995,762.063 436.893,762.063C431.791,762.063 430.989,754.871 430.989,735.759C430.989,716.648 435.131,693.616 440.233,693.616Z" style="fill:rgb(188,218,209);"/>
                    </g>
                    <g transform="matrix(0.386301,0.408245,-0.385941,0.420931,270.128,76.2699)">
                        <path d="M440.233,693.616C445.334,693.616 449.476,716.648 449.476,735.759C449.476,754.871 441.995,762.063 436.893,762.063C431.791,762.063 430.989,754.871 430.989,735.759C430.989,716.648 435.131,693.616 440.233,693.616Z" style="fill:rgb(188,218,209);"/>
                    </g>
                    <g transform="matrix(-0.502851,-0.220686,-0.211327,0.555017,560.455,168.544)">
                        <path d="M440.233,693.616C445.334,693.616 449.476,716.648 449.476,735.759C449.476,754.871 441.995,762.063 436.893,762.063C431.791,762.063 430.989,754.871 430.989,735.759C430.989,716.648 435.131,693.616 440.233,693.616Z" style="fill:rgb(188,218,209);"/>
                    </g>
                    <g transform="matrix(-0.432424,-0.23616,-0.242947,0.512744,585.019,176.847)">
                        <path d="M440.233,693.616C445.334,693.616 449.476,716.648 449.476,735.759C449.476,754.871 441.995,762.063 436.893,762.063C431.791,762.063 430.989,754.871 430.989,735.759C430.989,716.648 435.131,693.616 440.233,693.616Z" style="fill:rgb(188,218,209);"/>
                    </g>
                </g>
                <g transform="matrix(-0.130293,-0.90081,0.781534,-0.130293,-154.087,1625.79)">
                    <g transform="matrix(0.549135,0,0,0.589552,0,0)">
                        <path d="M265.24,970.652C284.073,886.848 341.109,813.146 428.961,761.529" style="fill:none;stroke:rgb(102,160,158);stroke-width:9.42px;"/>
                    </g>
                    <g transform="matrix(0.23023,0.464884,-0.341882,0.195155,394.199,95.2795)">
                        <path d="M440.233,693.616C445.334,693.616 449.476,716.648 449.476,735.759C449.476,754.871 445.334,762.872 440.233,762.872C435.131,762.872 430.989,754.871 430.989,735.759C430.989,716.648 435.131,693.616 440.233,693.616Z" style="fill:rgb(102,160,158);"/>
                    </g>
                    <g transform="matrix(0.0385193,0.519221,-0.42937,0.036715,521.991,211.109)">
                        <path d="M440.233,693.616C445.334,693.616 449.476,716.648 449.476,735.759C449.476,754.871 441.995,762.063 436.893,762.063C431.791,762.063 430.989,754.871 430.989,735.759C430.989,716.648 435.131,693.616 440.233,693.616Z" style="fill:rgb(102,160,158);"/>
                    </g>
                    <g transform="matrix(0.189101,0.550477,-0.451906,0.178932,443.602,119.754)">
                        <path d="M440.233,693.616C445.334,693.616 449.476,716.648 449.476,735.759C449.476,754.871 441.995,762.063 436.893,762.063C431.791,762.063 430.989,754.871 430.989,735.759C430.989,716.648 435.131,693.616 440.233,693.616Z" style="fill:rgb(102,160,158);"/>
                    </g>
                    <g transform="matrix(0.251385,0.56515,-0.500779,0.256748,430.849,91.324)">
                        <path d="M440.233,693.616C445.334,693.616 449.476,716.648 449.476,735.759C449.476,754.871 441.995,762.063 436.893,762.063C431.791,762.063 430.989,754.871 430.989,735.759C430.989,716.648 435.131,693.616 440.233,693.616Z" style="fill:rgb(102,160,158);"/>
                    </g>
                    <g transform="matrix(-0.539993,-0.050722,-0.0479509,0.588401,429.595,105.789)">
                        <path d="M440.233,693.616C445.334,693.616 449.476,716.648 449.476,735.759C449.476,754.871 441.995,762.063 436.893,762.063C431.791,762.063 430.989,754.871 430.989,735.759C430.989,716.648 435.131,693.616 440.233,693.616Z" style="fill:rgb(102,160,158);"/>
                    </g>
                    <g transform="matrix(-0.511509,0.192598,0.182076,0.557364,229.349,65.7504)">
                        <path d="M440.233,693.616C445.334,693.616 449.476,716.648 449.476,735.759C449.476,754.871 441.995,762.063 436.893,762.063C431.791,762.063 430.989,754.871 430.989,735.759C430.989,716.648 435.131,693.616 440.233,693.616Z" style="fill:rgb(102,160,158);"/>
                    </g>
                    <g transform="matrix(0.386301,0.408245,-0.385941,0.420931,270.128,76.2699)">
                        <path d="M440.233,693.616C445.334,693.616 449.476,716.648 449.476,735.759C449.476,754.871 441.995,762.063 436.893,762.063C431.791,762.063 430.989,754.871 430.989,735.759C430.989,716.648 435.131,693.616 440.233,693.616Z" style="fill:rgb(102,160,158);"/>
                    </g>
                    <g transform="matrix(-0.502851,-0.220686,-0.189757,0.498366,544.017,211.716)">
                        <path d="M440.233,693.616C445.334,693.616 449.476,716.648 449.476,735.759C449.476,754.871 441.995,762.063 436.893,762.063C431.791,762.063 430.989,754.871 430.989,735.759C430.989,716.648 435.131,693.616 440.233,693.616Z" style="fill:rgb(102,160,158);"/>
                    </g>
                    <g transform="matrix(-0.432424,-0.23616,-0.195293,0.412169,548.704,253.492)">
                        <path d="M440.233,693.616C445.334,693.616 449.476,716.648 449.476,735.759C449.476,754.871 441.995,762.063 436.893,762.063C431.791,762.063 430.989,754.871 430.989,735.759C430.989,716.648 435.131,693.616 440.233,693.616Z" style="fill:rgb(102,160,158);"/>
                    </g>
                </g>
            </g>
        </g>
    </g>
</svg>
