<?xml version="1.0" encoding="UTF-8" standalone="no"?>
<!DOCTYPE svg PUBLIC "-//W3C//DTD SVG 1.1//EN" "http://www.w3.org/Graphics/SVG/1.1/DTD/svg11.dtd">
<svg width="100%" height="100%" viewBox="0 0 840 797" version="1.1" xmlns="http://www.w3.org/2000/svg" xmlns:xlink="http://www.w3.org/1999/xlink" xml:space="preserve" xmlns:serif="http://www.serif.com/" style="fill-rule:evenodd;clip-rule:evenodd;stroke-linecap:round;stroke-linejoin:round;stroke-miterlimit:1.5;">
    <g transform="matrix(0.999997,0,0,0.999998,-110.262,-186.932)">
        <g>
            <g id="Layer1">
                <g>
                    <g transform="matrix(0.962369,0,0,0.962471,-465.902,-1087.24)">
                        <circle cx="1057.35" cy="1737.7" r="413.85" style="fill:rgb(255,238,233);"/>
                    </g>
                    <g transform="matrix(1.82104,0,0,1.6962,-109.105,-431.091)">
                        <g transform="matrix(0.734772,0.359512,-0.386275,0.909956,275.743,-32.082)">
                            <g transform="matrix(0.549135,0,0,0.589552,0,0)">
                                <path d="M258.694,1046.24C253.431,931.709 315.491,828.197 428.961,761.529" style="fill:none;stroke:rgb(102,160,158);stroke-width:8.8px;"/>
                            </g>
                            <g transform="matrix(0.23023,0.464884,-0.341882,0.195155,394.199,95.2795)">
                                <path d="M440.233,693.616C445.334,693.616 449.476,716.648 449.476,735.759C449.476,754.871 445.334,762.872 440.233,762.872C435.131,762.872 430.989,754.871 430.989,735.759C430.989,716.648 435.131,693.616 440.233,693.616Z" style="fill:rgb(102,160,158);"/>
                            </g>
                            <g transform="matrix(0.0385193,0.519221,-0.42937,0.036715,521.991,211.109)">
                                <path d="M440.233,693.616C445.334,693.616 449.476,716.648 449.476,735.759C449.476,754.871 441.995,762.063 436.893,762.063C431.791,762.063 430.989,754.871 430.989,735.759C430.989,716.648 435.131,693.616 440.233,693.616Z" style="fill:rgb(102,160,158);"/>
                            </g>
                            <g transform="matrix(0.189101,0.550477,-0.451906,0.178932,443.602,119.754)">
                                <path d="M440.233,693.616C445.334,693.616 449.476,716.648 449.476,735.759C449.476,754.871 441.995,762.063 436.893,762.063C431.791,762.063 430.989,754.871 430.989,735.759C430.989,716.648 435.131,693.616 440.233,693.616Z" style="fill:rgb(102,160,158);"/>
                            </g>
                            <g transform="matrix(0.251385,0.56515,-0.500779,0.256748,430.849,91.324)">
                                <path d="M440.233,693.616C445.334,693.616 449.476,716.648 449.476,735.759C449.476,754.871 441.995,762.063 436.893,762.063C431.791,762.063 430.989,754.871 430.989,735.759C430.989,716.648 435.131,693.616 440.233,693.616Z" style="fill:rgb(102,160,158);"/>
                            </g>
                            <g transform="matrix(-0.539993,-0.050722,-0.0479509,0.588401,429.595,105.789)">
                                <path d="M440.233,693.616C445.334,693.616 449.476,716.648 449.476,735.759C449.476,754.871 441.995,762.063 436.893,762.063C431.791,762.063 430.989,754.871 430.989,735.759C430.989,716.648 435.131,693.616 440.233,693.616Z" style="fill:rgb(102,160,158);"/>
                            </g>
                            <g transform="matrix(-0.511509,0.192598,0.182076,0.557364,229.349,65.7504)">
                                <path d="M440.233,693.616C445.334,693.616 449.476,716.648 449.476,735.759C449.476,754.871 441.995,762.063 436.893,762.063C431.791,762.063 430.989,754.871 430.989,735.759C430.989,716.648 435.131,693.616 440.233,693.616Z" style="fill:rgb(102,160,158);"/>
                            </g>
                            <g transform="matrix(0.386301,0.408245,-0.385941,0.420931,270.128,76.2699)">
                                <path d="M440.233,693.616C445.334,693.616 449.476,716.648 449.476,735.759C449.476,754.871 441.995,762.063 436.893,762.063C431.791,762.063 430.989,754.871 430.989,735.759C430.989,716.648 435.131,693.616 440.233,693.616Z" style="fill:rgb(102,160,158);"/>
                            </g>
                            <g transform="matrix(0.451933,0.393191,-0.402923,0.533798,251.204,40.1595)">
                                <path d="M440.233,693.616C445.334,693.616 449.476,716.648 449.476,735.759C449.476,754.871 441.995,762.063 436.893,762.063C431.791,762.063 430.989,754.871 430.989,735.759C430.989,716.648 435.131,693.616 440.233,693.616Z" style="fill:rgb(102,160,158);"/>
                            </g>
                            <g transform="matrix(-0.462528,0.378724,0.386846,0.54455,50.54,38.7063)">
                                <path d="M440.233,693.616C445.334,693.616 449.476,716.648 449.476,735.759C449.476,754.871 441.995,762.063 436.893,762.063C431.791,762.063 430.989,754.871 430.989,735.759C430.989,716.648 435.131,693.616 440.233,693.616Z" style="fill:rgb(102,160,158);"/>
                            </g>
                            <g transform="matrix(-0.502851,-0.220686,-0.189757,0.498366,544.017,211.716)">
                                <path d="M440.233,693.616C445.334,693.616 449.476,716.648 449.476,735.759C449.476,754.871 441.995,762.063 436.893,762.063C431.791,762.063 430.989,754.871 430.989,735.759C430.989,716.648 435.131,693.616 440.233,693.616Z" style="fill:rgb(102,160,158);"/>
                            </g>
                            <g transform="matrix(-0.432424,-0.23616,-0.195293,0.412169,548.704,253.492)">
                                <path d="M440.233,693.616C445.334,693.616 449.476,716.648 449.476,735.759C449.476,754.871 441.995,762.063 436.893,762.063C431.791,762.063 430.989,754.871 430.989,735.759C430.989,716.648 435.131,693.616 440.233,693.616Z" style="fill:rgb(102,160,158);"/>
                            </g>
                        </g>
                        <g transform="matrix(0.970876,-0.257214,0.223156,0.970876,-124.049,62.3618)">
                            <g transform="matrix(0.549135,0,0,0.589552,0,0)">
                                <path d="M265.491,969.548C292.828,890.486 350.25,817.465 428.961,761.529" style="fill:none;stroke:rgb(188,218,209);stroke-width:8px;"/>
                            </g>
                            <g transform="matrix(0.215437,0.435013,-0.321337,0.183427,384.668,117.769)">
                                <path d="M440.233,693.616C445.334,693.616 449.476,716.648 449.476,735.759C449.476,754.871 445.334,762.872 440.233,762.872C435.131,762.872 430.989,754.871 430.989,735.759C430.989,716.648 435.131,693.616 440.233,693.616Z" style="fill:rgb(188,218,209);"/>
                            </g>
                            <g transform="matrix(0.0702135,0.515381,-0.426196,0.0669246,507.416,190.861)">
                                <path d="M440.233,693.616C445.334,693.616 449.476,716.648 449.476,735.759C449.476,754.871 441.995,762.063 436.893,762.063C431.791,762.063 430.989,754.871 430.989,735.759C430.989,716.648 435.131,693.616 440.233,693.616Z" style="fill:rgb(188,218,209);"/>
                            </g>
                            <g transform="matrix(0.242213,0.581716,-0.439725,0.211034,413.688,84.6493)">
                                <path d="M440.233,693.616C445.334,693.616 449.476,716.648 449.476,735.759C449.476,754.871 441.995,762.063 436.893,762.063C431.791,762.063 430.989,754.871 430.989,735.759C430.989,716.648 435.131,693.616 440.233,693.616Z" style="fill:rgb(188,218,209);"/>
                            </g>
                            <g transform="matrix(0.155687,0.603569,-0.534823,0.159008,500.558,148.025)">
                                <path d="M440.233,693.616C445.334,693.616 449.476,716.648 449.476,735.759C449.476,754.871 441.995,762.063 436.893,762.063C431.791,762.063 430.989,754.871 430.989,735.759C430.989,716.648 435.131,693.616 440.233,693.616Z" style="fill:rgb(188,218,209);"/>
                            </g>
                            <g transform="matrix(-0.523431,0.151237,0.142974,0.570354,284.697,33.6094)">
                                <path d="M440.233,693.616C445.334,693.616 449.476,716.648 449.476,735.759C449.476,754.871 441.995,762.063 436.893,762.063C431.791,762.063 430.989,754.871 430.989,735.759C430.989,716.648 435.131,693.616 440.233,693.616Z" style="fill:rgb(188,218,209);"/>
                            </g>
                            <g transform="matrix(-0.592053,0.262974,0.210323,0.545782,243.796,45.4928)">
                                <path d="M440.233,693.616C445.334,693.616 449.476,716.648 449.476,735.759C449.476,754.871 441.995,762.063 436.893,762.063C431.791,762.063 430.989,754.871 430.989,735.759C430.989,716.648 435.131,693.616 440.233,693.616Z" style="fill:rgb(188,218,209);"/>
                            </g>
                            <g transform="matrix(0.412278,0.561571,-0.453801,0.384004,309.968,37.8989)">
                                <path d="M440.233,693.616C445.334,693.616 449.476,716.648 449.476,735.759C449.476,754.871 441.995,762.063 436.893,762.063C431.791,762.063 430.989,754.871 430.989,735.759C430.989,716.648 435.131,693.616 440.233,693.616Z" style="fill:rgb(188,218,209);"/>
                            </g>
                            <g transform="matrix(-0.531412,-0.121057,-0.104091,0.526672,494.256,150.76)">
                                <path d="M440.233,693.616C445.334,693.616 449.476,716.648 449.476,735.759C449.476,754.871 441.995,762.063 436.893,762.063C431.791,762.063 430.989,754.871 430.989,735.759C430.989,716.648 435.131,693.616 440.233,693.616Z" style="fill:rgb(188,218,209);"/>
                            </g>
                            <g transform="matrix(-0.558911,-0.0768776,-0.0547375,0.458683,500.189,151.842)">
                                <path d="M440.233,693.616C445.334,693.616 449.476,716.648 449.476,735.759C449.476,754.871 441.995,762.063 436.893,762.063C431.791,762.063 430.989,754.871 430.989,735.759C430.989,716.648 435.131,693.616 440.233,693.616Z" style="fill:rgb(188,218,209);"/>
                            </g>
                        </g>
                        <g transform="matrix(0.333212,-0.742451,0.644144,0.333212,-223.059,649.221)">
                            <g transform="matrix(0.549135,0,0,0.589552,0,0)">
                                <path d="M301.069,875.229C332.921,831.917 377.275,796.047 428.961,761.529" style="fill:none;stroke:rgb(102,160,158);stroke-width:7.82px;"/>
                            </g>
                            <g transform="matrix(0.261198,0.527416,-0.248185,0.14167,307.8,110.34)">
                                <path d="M440.233,693.616C445.334,693.616 449.476,716.648 449.476,735.759C449.476,754.871 445.334,762.872 440.233,762.872C435.131,762.872 430.989,754.871 430.989,735.759C430.989,716.648 435.131,693.616 440.233,693.616Z" style="fill:rgb(102,160,158);"/>
                            </g>
                            <g transform="matrix(-0.0568083,0.613286,-0.356742,-0.038088,508.701,224.76)">
                                <path d="M440.233,693.616C445.334,693.616 449.476,716.648 449.476,735.759C449.476,754.871 441.995,762.063 436.893,762.063C431.791,762.063 430.989,754.871 430.989,735.759C430.989,716.648 435.131,693.616 440.233,693.616Z" style="fill:rgb(102,160,158);"/>
                            </g>
                            <g transform="matrix(-0.0087403,0.586646,-0.428154,-0.0073525,517.394,236.476)">
                                <path d="M440.233,693.616C445.334,693.616 449.476,716.648 449.476,735.759C449.476,754.871 441.995,762.063 436.893,762.063C431.791,762.063 430.989,754.871 430.989,735.759C430.989,716.648 435.131,693.616 440.233,693.616Z" style="fill:rgb(102,160,158);"/>
                            </g>
                            <g transform="matrix(0.0800573,0.725736,-0.479586,0.060978,493.674,152.635)">
                                <path d="M440.233,693.616C445.334,693.616 449.476,716.648 449.476,735.759C449.476,754.871 441.995,762.063 436.893,762.063C431.791,762.063 430.989,754.871 430.989,735.759C430.989,716.648 435.131,693.616 440.233,693.616Z" style="fill:rgb(102,160,158);"/>
                            </g>
                            <g transform="matrix(-0.662332,0.0969678,0.0665412,0.523871,403.82,76.957)">
                                <path d="M440.233,693.616C445.334,693.616 449.476,716.648 449.476,735.759C449.476,754.871 441.995,762.063 436.893,762.063C431.791,762.063 430.989,754.871 430.989,735.759C430.989,716.648 435.131,693.616 440.233,693.616Z" style="fill:rgb(102,160,158);"/>
                            </g>
                            <g transform="matrix(-0.599246,-0.110372,-0.0767245,0.480137,509.179,171.58)">
                                <path d="M440.233,693.616C445.334,693.616 449.476,716.648 449.476,735.759C449.476,754.871 441.995,762.063 436.893,762.063C431.791,762.063 430.989,754.871 430.989,735.759C430.989,716.648 435.131,693.616 440.233,693.616Z" style="fill:rgb(102,160,158);"/>
                            </g>
                            <g transform="matrix(-0.469833,-0.25659,-0.167929,0.354416,545.356,309.17)">
                                <path d="M440.233,693.616C445.334,693.616 449.476,716.648 449.476,735.759C449.476,754.871 441.995,762.063 436.893,762.063C431.791,762.063 430.989,754.871 430.989,735.759C430.989,716.648 435.131,693.616 440.233,693.616Z" style="fill:rgb(102,160,158);"/>
                            </g>
                        </g>
                    </g>
                    <g>
                        <g transform="matrix(0.805084,-0.0202229,0.0188365,0.749892,707.778,263.885)">
                            <g transform="matrix(0.549135,0,0,0.589552,0,0)">
                                <path d="M258.694,1046.24C253.431,931.709 315.491,828.197 428.961,761.529" style="fill:none;stroke:rgb(102,160,158);stroke-width:9.04px;"/>
                            </g>
                            <g transform="matrix(0.23023,0.464884,-0.341882,0.195155,394.199,95.2795)">
                                <path d="M440.233,693.616C445.334,693.616 449.476,716.648 449.476,735.759C449.476,754.871 445.334,762.872 440.233,762.872C435.131,762.872 430.989,754.871 430.989,735.759C430.989,716.648 435.131,693.616 440.233,693.616Z" style="fill:rgb(102,160,158);"/>
                            </g>
                            <g transform="matrix(0.0385193,0.519221,-0.42937,0.036715,521.991,211.109)">
                                <path d="M440.233,693.616C445.334,693.616 449.476,716.648 449.476,735.759C449.476,754.871 441.995,762.063 436.893,762.063C431.791,762.063 430.989,754.871 430.989,735.759C430.989,716.648 435.131,693.616 440.233,693.616Z" style="fill:rgb(102,160,158);"/>
                            </g>
                            <g transform="matrix(0.189101,0.550477,-0.451906,0.178932,443.602,119.754)">
                                <path d="M440.233,693.616C445.334,693.616 449.476,716.648 449.476,735.759C449.476,754.871 441.995,762.063 436.893,762.063C431.791,762.063 430.989,754.871 430.989,735.759C430.989,716.648 435.131,693.616 440.233,693.616Z" style="fill:rgb(102,160,158);"/>
                            </g>
                            <g transform="matrix(0.251385,0.56515,-0.500779,0.256748,430.849,91.324)">
                                <path d="M440.233,693.616C445.334,693.616 449.476,716.648 449.476,735.759C449.476,754.871 441.995,762.063 436.893,762.063C431.791,762.063 430.989,754.871 430.989,735.759C430.989,716.648 435.131,693.616 440.233,693.616Z" style="fill:rgb(102,160,158);"/>
                            </g>
                            <g transform="matrix(-0.539993,-0.050722,-0.0479509,0.588401,429.595,105.789)">
                                <path d="M440.233,693.616C445.334,693.616 449.476,716.648 449.476,735.759C449.476,754.871 441.995,762.063 436.893,762.063C431.791,762.063 430.989,754.871 430.989,735.759C430.989,716.648 435.131,693.616 440.233,693.616Z" style="fill:rgb(102,160,158);"/>
                            </g>
                            <g transform="matrix(-0.511509,0.192598,0.182076,0.557364,229.349,65.7504)">
                                <path d="M440.233,693.616C445.334,693.616 449.476,716.648 449.476,735.759C449.476,754.871 441.995,762.063 436.893,762.063C431.791,762.063 430.989,754.871 430.989,735.759C430.989,716.648 435.131,693.616 440.233,693.616Z" style="fill:rgb(102,160,158);"/>
                            </g>
                            <g transform="matrix(0.386301,0.408245,-0.385941,0.420931,270.128,76.2699)">
                                <path d="M440.233,693.616C445.334,693.616 449.476,716.648 449.476,735.759C449.476,754.871 441.995,762.063 436.893,762.063C431.791,762.063 430.989,754.871 430.989,735.759C430.989,716.648 435.131,693.616 440.233,693.616Z" style="fill:rgb(102,160,158);"/>
                            </g>
                            <g transform="matrix(0.451933,0.393191,-0.402923,0.533798,251.204,40.1595)">
                                <path d="M440.233,693.616C445.334,693.616 449.476,716.648 449.476,735.759C449.476,754.871 441.995,762.063 436.893,762.063C431.791,762.063 430.989,754.871 430.989,735.759C430.989,716.648 435.131,693.616 440.233,693.616Z" style="fill:rgb(102,160,158);"/>
                            </g>
                            <g transform="matrix(-0.462528,0.378724,0.386846,0.54455,50.54,38.7063)">
                                <path d="M440.233,693.616C445.334,693.616 449.476,716.648 449.476,735.759C449.476,754.871 441.995,762.063 436.893,762.063C431.791,762.063 430.989,754.871 430.989,735.759C430.989,716.648 435.131,693.616 440.233,693.616Z" style="fill:rgb(102,160,158);"/>
                            </g>
                            <g transform="matrix(-0.502851,-0.220686,-0.189757,0.498366,544.017,211.716)">
                                <path d="M440.233,693.616C445.334,693.616 449.476,716.648 449.476,735.759C449.476,754.871 441.995,762.063 436.893,762.063C431.791,762.063 430.989,754.871 430.989,735.759C430.989,716.648 435.131,693.616 440.233,693.616Z" style="fill:rgb(102,160,158);"/>
                            </g>
                            <g transform="matrix(-0.432424,-0.23616,-0.195293,0.412169,548.704,253.492)">
                                <path d="M440.233,693.616C445.334,693.616 449.476,716.648 449.476,735.759C449.476,754.871 441.995,762.063 436.893,762.063C431.791,762.063 430.989,754.871 430.989,735.759C430.989,716.648 435.131,693.616 440.233,693.616Z" style="fill:rgb(102,160,158);"/>
                            </g>
                        </g>
                        <g transform="matrix(1.39679,-0.0558988,0.0520667,1.30104,546.633,62.0677)">
                            <g transform="matrix(0.549135,0,0,0.589552,0,0)">
                                <path d="M346.698,824.823C365.832,800.583 392.645,779.543 428.961,761.529" style="fill:none;stroke:rgb(188,218,209);stroke-width:5.21px;"/>
                            </g>
                            <g transform="matrix(0.135312,0.311189,-0.145357,0.0931714,285.826,241.716)">
                                <path d="M440.233,693.616C445.334,693.616 449.476,716.648 449.476,735.759C449.476,754.871 445.334,762.872 440.233,762.872C435.131,762.872 430.989,754.871 430.989,735.759C430.989,716.648 435.131,693.616 440.233,693.616Z" style="fill:rgb(188,218,209);"/>
                            </g>
                            <g transform="matrix(-0.0555445,0.371563,-0.202347,-0.0167575,402.605,305.68)">
                                <path d="M440.233,693.616C445.334,693.616 449.476,716.648 449.476,735.759C449.476,754.871 441.995,762.063 436.893,762.063C431.791,762.063 430.989,754.871 430.989,735.759C430.989,716.648 435.131,693.616 440.233,693.616Z" style="fill:rgb(188,218,209);"/>
                            </g>
                            <g transform="matrix(-0.0203092,0.355145,-0.244187,0.00844008,405.813,304.279)">
                                <path d="M440.233,693.616C445.334,693.616 449.476,716.648 449.476,735.759C449.476,754.871 441.995,762.063 436.893,762.063C431.791,762.063 430.989,754.871 430.989,735.759C430.989,716.648 435.131,693.616 440.233,693.616Z" style="fill:rgb(188,218,209);"/>
                            </g>
                            <g transform="matrix(0.0267418,0.436612,-0.275328,0.0513236,394.767,249.758)">
                                <path d="M440.233,693.616C445.334,693.616 449.476,716.648 449.476,735.759C449.476,754.871 441.995,762.063 436.893,762.063C431.791,762.063 430.989,754.871 430.989,735.759C430.989,716.648 435.131,693.616 440.233,693.616Z" style="fill:rgb(188,218,209);"/>
                            </g>
                            <g transform="matrix(-0.380575,0.0785959,0.024299,0.314904,344.318,205.864)">
                                <path d="M440.233,693.616C445.334,693.616 449.476,716.648 449.476,735.759C449.476,754.871 441.995,762.063 436.893,762.063C431.791,762.063 430.989,754.871 430.989,735.759C430.989,716.648 435.131,693.616 440.233,693.616Z" style="fill:rgb(188,218,209);"/>
                            </g>
                            <g transform="matrix(-0.340703,-0.0340513,-0.0420613,0.273733,391.05,271.827)">
                                <path d="M440.233,693.616C445.334,693.616 449.476,716.648 449.476,735.759C449.476,754.871 441.995,762.063 436.893,762.063C431.791,762.063 430.989,754.871 430.989,735.759C430.989,716.648 435.131,693.616 440.233,693.616Z" style="fill:rgb(188,218,209);"/>
                            </g>
                            <g transform="matrix(-0.291387,-0.0289352,-0.0195698,0.206354,366.972,311)">
                                <path d="M440.233,693.616C445.334,693.616 449.476,716.648 449.476,735.759C449.476,754.871 441.995,762.063 436.893,762.063C431.791,762.063 430.989,754.871 430.989,735.759C430.989,716.648 435.131,693.616 440.233,693.616Z" style="fill:rgb(188,218,209);"/>
                            </g>
                        </g>
                    </g>
                    <g transform="matrix(-0.865263,0,0,0.120716,1390.63,625.446)">
                        <circle cx="947.823" cy="1589.94" r="346.998" style="fill-opacity:0.25;"/>
                    </g>
                    <g transform="matrix(-1,0,0,1,1152.79,5.28975)">
                        <g transform="matrix(-1.01882,0.0137286,0.0156013,1.22438,1102.66,-83.0055)">
                            <path d="M451.534,400.366C448.982,383.55 477.523,358.846 486.298,355.01C495.04,351.189 509.98,369.793 504.186,377.353C498.392,384.912 452.643,405.006 451.534,400.366Z" style="fill:rgb(253,106,102);"/>
                        </g>
                        <g transform="matrix(-1.14526,0.0154325,0.0170185,1.3356,1171.66,-124.239)">
                            <path d="M486.317,387.488C485.43,380.862 516.453,338.036 538.447,339.203C548.113,339.716 552.455,370.909 543.767,378.957C535.079,387.004 487.204,394.114 486.317,387.488Z" style="fill:rgb(253,106,102);"/>
                        </g>
                        <g transform="matrix(0.994734,-0.102487,0.102487,0.994734,-58.5888,49.1738)">
                            <g transform="matrix(0.504605,0.630099,-0.773865,0.620669,826.185,180.202)">
                                <path d="M486.317,387.488C485.43,380.862 516.453,338.036 538.447,339.203C548.113,339.716 552.455,370.909 543.767,378.957C535.079,387.004 487.204,394.114 486.317,387.488Z" style="fill:rgb(253,107,103);"/>
                            </g>
                            <g transform="matrix(0.609806,0.686928,-0.867233,0.771004,773.458,57.397)">
                                <path d="M486.317,387.488C485.43,380.862 516.453,338.036 538.447,339.203C548.113,339.716 552.455,370.909 543.767,378.957C535.079,387.004 487.204,394.114 486.317,387.488Z" style="fill:rgb(253,107,103);"/>
                            </g>
                            <g transform="matrix(0.729274,0.558474,-0.71583,0.936176,622.898,27.6955)">
                                <path d="M486.317,387.488C485.43,380.862 516.453,338.036 538.447,339.203C548.113,339.716 552.455,370.909 543.767,378.957C535.079,387.004 487.204,394.114 486.317,387.488Z" style="fill:rgb(253,107,103);"/>
                            </g>
                            <g transform="matrix(0.297295,0.451867,-0.520761,0.343169,898.704,434.823)">
                                <path d="M486.317,387.488C485.43,380.862 516.453,338.036 538.447,339.203C548.113,339.716 552.455,370.909 543.767,378.957C535.079,387.004 487.204,394.114 486.317,387.488Z" style="fill:rgb(253,107,103);"/>
                            </g>
                            <g transform="matrix(0.366125,0.556485,-0.65571,0.432097,888.967,320.311)">
                                <path d="M486.317,387.488C485.43,380.862 516.453,338.036 538.447,339.203C548.113,339.716 552.455,370.909 543.767,378.957C535.079,387.004 487.204,394.114 486.317,387.488Z" style="fill:rgb(253,107,103);"/>
                            </g>
                            <g transform="matrix(1.46094,-1.04826,-0.589017,-0.8209,680.635,1681.12)">
                                <path d="M364.457,585.486C375.649,585.572 367.631,613.007 364.619,644.305C361.286,678.943 352.04,747.911 366.069,788.809C372.972,808.934 277.018,754.283 276.821,730.705C276.377,653.614 320.07,585.148 364.457,585.486Z" style="fill:rgb(254,159,156);"/>
                                <g>
                                    <clipPath id="_clip1">
                                        <path d="M364.457,585.486C375.649,585.572 367.631,613.007 364.619,644.305C361.286,678.943 352.04,747.911 366.069,788.809C372.972,808.934 277.018,754.283 276.821,730.705C276.377,653.614 320.07,585.148 364.457,585.486Z"/>
                                    </clipPath>
                                    <g clip-path="url(#_clip1)">
                                        <g transform="matrix(-0.260432,0.195467,0.211904,0.282332,384.478,266.859)">
                                            <ellipse cx="716.185" cy="713.203" rx="33.711" ry="33.625" style="fill:rgb(254,140,137);"/>
                                        </g>
                                        <g transform="matrix(-0.10663,0.0800313,0.109611,0.14604,349.845,469.878)">
                                            <ellipse cx="716.185" cy="713.203" rx="33.711" ry="33.625" style="fill:rgb(254,140,137);"/>
                                        </g>
                                        <g transform="matrix(-0.130475,0.0979282,0.130718,0.174163,314.07,462.278)">
                                            <ellipse cx="716.185" cy="713.203" rx="33.711" ry="33.625" style="fill:rgb(254,140,137);"/>
                                        </g>
                                    </g>
                                </g>
                            </g>
                        </g>
                        <path d="M750.852,777.401C740.145,847.463 344.366,846.857 335.776,777.401C325.587,695.019 332.283,590.834 337.332,562.525C355.819,458.893 438.048,369.734 543.314,369.203C648.58,369.734 730.809,458.893 749.295,562.525C754.345,590.834 763.392,695.344 750.852,777.401Z" style="fill:rgb(254,180,178);"/>
                        <g>
                            <clipPath id="_clip2">
                                <path d="M750.852,777.401C740.145,847.463 344.366,846.857 335.776,777.401C325.587,695.019 332.283,590.834 337.332,562.525C355.819,458.893 438.048,369.734 543.314,369.203C648.58,369.734 730.809,458.893 749.295,562.525C754.345,590.834 763.392,695.344 750.852,777.401Z"/>
                            </clipPath>
                            <g clip-path="url(#_clip2)">
                                <ellipse cx="360.123" cy="778.252" rx="39.216" ry="31.424" style="fill:rgb(254,165,164);"/>
                                <g transform="matrix(0.893104,0.226825,-0.189335,0.745487,179.578,100.094)">
                                    <ellipse cx="393.895" cy="732.103" rx="14.973" ry="14.725" style="fill:rgb(254,165,164);"/>
                                </g>
                                <g transform="matrix(0.292239,-0.218056,0.189861,0.254453,415.949,644.57)">
                                    <ellipse cx="716.185" cy="713.203" rx="33.711" ry="33.625" style="fill:rgb(254,165,164);"/>
                                </g>
                                <g transform="matrix(0.804541,0.268645,-0.306985,0.919361,294.222,-426.227)">
                                    <ellipse cx="716.185" cy="713.203" rx="33.711" ry="33.625" style="fill:rgb(254,165,164);"/>
                                </g>
                                <g transform="matrix(0.48475,0.161863,-0.149986,0.449181,482.961,80.9884)">
                                    <ellipse cx="716.185" cy="713.203" rx="33.711" ry="33.625" style="fill:rgb(254,165,164);"/>
                                </g>
                                <g transform="matrix(0.342263,0.104273,-0.0858983,0.28195,504.375,487.89)">
                                    <ellipse cx="716.185" cy="713.203" rx="33.711" ry="33.625" style="fill:rgb(254,165,164);"/>
                                </g>
                                <g transform="matrix(0.25025,-0.123278,0.13025,0.264404,398.112,508.517)">
                                    <ellipse cx="716.185" cy="713.203" rx="33.711" ry="33.625" style="fill:rgb(254,165,164);"/>
                                </g>
                                <g transform="matrix(-0.0635588,0.150198,-0.173316,-0.0733416,823.797,676.675)">
                                    <ellipse cx="716.185" cy="713.203" rx="33.711" ry="33.625" style="fill:rgb(254,165,164);"/>
                                </g>
                                <g transform="matrix(-0.131019,0.0971241,-0.106953,-0.144277,545.206,709.712)">
                                    <ellipse cx="716.185" cy="713.203" rx="33.711" ry="33.625" style="fill:rgb(254,165,164);"/>
                                </g>
                                <g transform="matrix(0.652346,0.757921,-0.728072,0.626655,687.227,-202.283)">
                                    <ellipse cx="627.244" cy="866.811" rx="21.909" ry="27.526" style="fill:rgb(254,165,164);"/>
                                </g>
                                <g transform="matrix(0.324924,0.377509,-0.327183,0.281608,599.351,320.652)">
                                    <ellipse cx="627.244" cy="866.811" rx="21.909" ry="27.526" style="fill:rgb(254,165,164);"/>
                                </g>
                                <g transform="matrix(0.408882,0.475055,-0.327183,0.281608,419.507,74.9003)">
                                    <ellipse cx="627.244" cy="866.811" rx="21.909" ry="27.526" style="fill:rgb(254,165,164);"/>
                                </g>
                                <g transform="matrix(0.311154,0.36151,-0.327183,0.281608,689.051,282.876)">
                                    <ellipse cx="627.244" cy="866.811" rx="21.909" ry="27.526" style="fill:rgb(254,165,164);"/>
                                </g>
                                <g transform="matrix(1,5.55112e-17,-3.88578e-16,1,-16.9551,23.7736)">
                                    <ellipse cx="522.817" cy="430.672" rx="20.488" ry="28.446" style="fill:rgb(254,165,164);"/>
                                </g>
                                <g transform="matrix(0.925189,-0.379507,0.379507,0.925189,-140.336,201.007)">
                                    <ellipse cx="451.534" cy="438.87" rx="15.874" ry="8.198" style="fill:rgb(254,165,164);"/>
                                </g>
                            </g>
                        </g>
                        <g transform="matrix(0.574185,-0.818726,0.768759,0.539142,-353.516,532.526)">
                            <g transform="matrix(1.17736,0,0,1.17736,-76.3153,-123.566)">
                                <path d="M394.3,626.529C348.205,656.968 362.266,707.126 362.266,730.705C362.266,754.284 343.123,773.428 319.544,773.428C295.964,773.428 277.018,754.283 276.821,730.705C276.377,653.614 359.158,614.872 394.3,626.529Z" style="fill:rgb(254,159,156);"/>
                                <g>
                                    <clipPath id="_clip3">
                                        <path d="M394.3,626.529C348.205,656.968 362.266,707.126 362.266,730.705C362.266,754.284 343.123,773.428 319.544,773.428C295.964,773.428 277.018,754.283 276.821,730.705C276.377,653.614 359.158,614.872 394.3,626.529Z"/>
                                    </clipPath>
                                    <g clip-path="url(#_clip3)">
                                        <g transform="matrix(0.393214,0.24704,-0.290618,0.462577,212.856,187.004)">
                                            <ellipse cx="716.185" cy="713.203" rx="33.711" ry="33.625" style="fill:rgb(254,140,137);"/>
                                        </g>
                                        <g transform="matrix(0.182296,0.143804,-0.113586,0.14399,260.54,530.44)">
                                            <ellipse cx="716.185" cy="713.203" rx="33.711" ry="33.625" style="fill:rgb(254,140,137);"/>
                                        </g>
                                        <g transform="matrix(-0.127695,0.216196,-0.246456,-0.145567,614.536,599.312)">
                                            <ellipse cx="716.185" cy="713.203" rx="33.711" ry="33.625" style="fill:rgb(254,140,137);"/>
                                        </g>
                                        <g transform="matrix(-0.0790269,0.133798,-0.1462,-0.0863518,545.88,617.605)">
                                            <ellipse cx="716.185" cy="713.203" rx="33.711" ry="33.625" style="fill:rgb(254,140,137);"/>
                                        </g>
                                    </g>
                                </g>
                            </g>
                            <g>
                                <g transform="matrix(1.06141,-0.275349,0.244509,0.85127,-193.492,195.275)">
                                    <path d="M290.19,783.38C288.758,786.684 296.238,800.597 299.433,800.177C302.628,799.757 310.207,785.248 308.444,782.365C306.681,779.481 291.623,780.077 290.19,783.38Z" style="fill:rgb(252,75,72);"/>
                                </g>
                                <g transform="matrix(-1.07544,-0.0660621,-0.0653559,0.881921,666.254,110.261)">
                                    <path d="M290.428,785.087C288.995,788.391 294.241,801.579 297.436,801.159C300.632,800.739 309.961,788.485 307.25,783.423C305.645,780.428 291.86,781.784 290.428,785.087Z" style="fill:rgb(252,75,72);"/>
                                </g>
                                <g transform="matrix(-1.06751,-0.146164,-0.131012,0.874581,695.353,130.182)">
                                    <path d="M291.975,790.144C290.791,793.567 296.094,803.321 300.322,802.693C303.511,802.219 310.259,786.712 307.548,781.65C305.943,778.654 293.457,785.861 291.975,790.144Z" style="fill:rgb(252,75,72);"/>
                                </g>
                            </g>
                        </g>
                        <g transform="matrix(0.155843,0.987782,-0.987782,0.155843,1201.61,-195.343)">
                            <g transform="matrix(-1.17736,0,0,1.17736,1167.86,-123.566)">
                                <path d="M414.31,597.512C418.441,604.547 384.319,619.258 376.469,637.569C362.002,671.318 362.266,715.263 362.266,730.705C362.266,754.284 343.123,773.428 319.544,773.428C295.964,773.428 277.018,754.283 276.821,730.705C276.524,679.186 295.552,625.14 335.569,602.295C358.9,588.976 406.839,584.787 414.31,597.512Z" style="fill:rgb(254,160,157);"/>
                                <g>
                                    <clipPath id="_clip4">
                                        <path d="M414.31,597.512C418.441,604.547 384.319,619.258 376.469,637.569C362.002,671.318 362.266,715.263 362.266,730.705C362.266,754.284 343.123,773.428 319.544,773.428C295.964,773.428 277.018,754.283 276.821,730.705C276.524,679.186 295.552,625.14 335.569,602.295C358.9,588.976 406.839,584.787 414.31,597.512Z"/>
                                    </clipPath>
                                    <g clip-path="url(#_clip4)">
                                        <g transform="matrix(-0.0985663,0.601653,0.513409,0.0841096,33.3239,115.917)">
                                            <ellipse cx="716.185" cy="713.203" rx="33.711" ry="33.625" style="fill:rgb(254,141,138);"/>
                                        </g>
                                        <g transform="matrix(0.168546,0.184129,0.198503,-0.181703,106.803,598.18)">
                                            <ellipse cx="716.185" cy="713.203" rx="33.711" ry="33.625" style="fill:rgb(254,141,138);"/>
                                        </g>
                                        <g transform="matrix(-0.253509,0.190271,0.236355,0.31491,310.221,380.56)">
                                            <ellipse cx="716.185" cy="713.203" rx="33.711" ry="33.625" style="fill:rgb(254,141,138);"/>
                                        </g>
                                        <g transform="matrix(-0.185901,0.139528,0.134279,0.178908,392.435,480.627)">
                                            <ellipse cx="716.185" cy="713.203" rx="33.711" ry="33.625" style="fill:rgb(254,141,138);"/>
                                        </g>
                                    </g>
                                </g>
                            </g>
                            <g>
                                <g transform="matrix(-1.06141,-0.275349,-0.244509,0.85127,1284.75,195.275)">
                                    <path d="M290.19,783.38C288.758,786.684 296.238,800.597 299.433,800.177C302.628,799.757 310.207,785.248 308.444,782.365C306.681,779.481 291.623,780.077 290.19,783.38Z" style="fill:rgb(253,93,90);"/>
                                </g>
                                <g transform="matrix(1.07544,-0.0660621,0.0653559,0.881921,425.002,110.261)">
                                    <path d="M290.428,785.087C288.995,788.391 294.241,801.579 297.436,801.159C300.632,800.739 309.961,788.485 307.25,783.423C305.645,780.428 291.86,781.784 290.428,785.087Z" style="fill:rgb(253,93,90);"/>
                                </g>
                                <g transform="matrix(1.06751,-0.146164,0.131012,0.874581,395.903,130.182)">
                                    <path d="M291.975,790.144C290.791,793.567 296.094,803.321 300.322,802.693C303.511,802.219 310.259,786.712 307.548,781.65C305.943,778.654 293.457,785.861 291.975,790.144Z" style="fill:rgb(253,93,90);"/>
                                </g>
                            </g>
                        </g>
                        <g transform="matrix(0.999688,0.0249918,-0.0249918,0.999688,19.7031,-28.5498)">
                            <g transform="matrix(1.04746,-7.26823e-18,0,1.04746,-30.87,3.82644)">
                                <g transform="matrix(1.00313,-0.143695,0.136908,0.955749,-1616.4,-138.792)">
                                    <path d="M2114.22,1019.91C2120.16,1022.13 2128.02,1017.99 2128.04,1018.91C2128.16,1024.34 2121.44,1032.07 2116.22,1035.04L2114.22,1019.91Z"/>
                                </g>
                                <g transform="matrix(-0.980387,-0.256436,-0.238401,0.91144,2720.91,125.4)">
                                    <path d="M2114.22,1019.91C2120.16,1022.13 2128.02,1017.99 2128.04,1018.91C2128.16,1024.34 2121.44,1032.07 2116.22,1035.04L2114.22,1019.91Z"/>
                                </g>
                                <g transform="matrix(1,0,0,1,-4.38307,-1.10134e-13)">
                                    <circle cx="427.545" cy="531.3" r="27.325"/>
                                </g>
                                <g transform="matrix(1,-3.46945e-18,0,1,194.883,15.406)">
                                    <circle cx="427.545" cy="531.3" r="27.325"/>
                                </g>
                                <g transform="matrix(1,-6.93889e-18,0,1,-3.79538,-1.48729)">
                                    <circle cx="437.886" cy="527.93" r="10.341" style="fill:white;"/>
                                </g>
                                <g transform="matrix(1,-1.38778e-17,0,1,195.863,14.2105)">
                                    <circle cx="437.886" cy="527.93" r="10.341" style="fill:white;"/>
                                </g>
                            </g>
                            <g transform="matrix(-0.422408,-0.0424347,-0.049538,0.493116,765.041,326.387)">
                                <path d="M555.821,684.972C617.603,686.271 621.318,637.316 619.198,619.968C616.903,601.178 588.55,578.804 553.147,578.804C517.744,578.804 492.137,611.742 492.741,632.362C493.148,646.27 494.039,683.672 555.821,684.972Z" style="fill:rgb(253,106,102);"/>
                                <g>
                                    <clipPath id="_clip5">
                                        <path d="M555.821,684.972C617.603,686.271 621.318,637.316 619.198,619.968C616.903,601.178 588.55,578.804 553.147,578.804C517.744,578.804 492.137,611.742 492.741,632.362C493.148,646.27 494.039,683.672 555.821,684.972Z"/>
                                    </clipPath>
                                    <g clip-path="url(#_clip5)">
                                        <g transform="matrix(0.907626,-7.94553e-17,-1.90204e-17,0.967651,55.045,18.4959)">
                                            <path d="M485.307,662.847C470.456,647.415 444.63,613.423 447.332,597.492C453.467,561.313 518.137,573.873 553.54,573.873C588.943,573.873 653.613,561.313 659.749,597.492C663.7,620.793 639.253,661 609.311,678.725C600.315,660.767 579.744,642.819 545.798,638.221C512.209,633.671 498.709,648.15 485.307,662.847Z" style="fill:rgb(251,2,2);"/>
                                        </g>
                                    </g>
                                </g>
                            </g>
                        </g>
                        <g transform="matrix(-0.840963,0.495811,0.528046,0.881725,1466.65,-1698.95)">
                            <ellipse cx="2285.77" cy="1484.14" rx="64.646" ry="72.624" style="fill:rgb(254,160,157);"/>
                            <g>
                                <g transform="matrix(-0.466066,-0.295714,0.245667,-0.405341,2509.61,1972.71)">
                                    <ellipse cx="716.185" cy="713.203" rx="33.711" ry="33.625" style="fill:rgb(254,144,141);"/>
                                </g>
                                <g transform="matrix(-0.10159,-0.329942,0.329823,-0.103975,2120.68,1733.19)">
                                    <ellipse cx="716.185" cy="713.203" rx="33.711" ry="33.625" style="fill:rgb(254,144,141);"/>
                                </g>
                                <g transform="matrix(0.27533,-0.155081,0.164966,0.302384,1916.5,1427.13)">
                                    <ellipse cx="716.185" cy="713.203" rx="33.711" ry="33.625" style="fill:rgb(254,144,141);"/>
                                </g>
                                <g transform="matrix(0.287167,0.153656,-0.218293,0.417698,2209.66,1060.33)">
                                    <ellipse cx="716.185" cy="713.203" rx="33.711" ry="33.625" style="fill:rgb(254,144,141);"/>
                                </g>
                                <g transform="matrix(0.028335,-0.226243,0.252503,0.0323781,2114.38,1672.88)">
                                    <ellipse cx="716.185" cy="713.203" rx="33.711" ry="33.625" style="fill:rgb(254,144,141);"/>
                                </g>
                                <g transform="matrix(-0.358145,-1.52449,1.37263,-0.33016,1569.65,2817.76)">
                                    <ellipse cx="716.185" cy="713.203" rx="33.711" ry="33.625" style="fill:rgb(254,142,139);"/>
                                </g>
                                <g transform="matrix(-1.6394,-0.470275,0.269111,-1.00886,2581.66,2357.53)">
                                    <path d="M290.938,786.582C289.41,792.161 297.703,804.169 300.898,803.749C304.093,803.33 311.209,788.682 308.498,783.621C306.894,780.625 291.951,782.885 290.938,786.582Z" style="fill:rgb(253,107,103);"/>
                                </g>
                                <g transform="matrix(-1.43734,0.926116,-0.565649,-0.874275,3136.95,1832.21)">
                                    <path d="M289.567,781.055C288.135,784.359 293.814,803.202 297.009,802.782C300.204,802.362 310.218,789.057 307.507,783.995C305.903,781 291,777.752 289.567,781.055Z" style="fill:rgb(253,107,103);"/>
                                </g>
                                <g transform="matrix(-0.7834,1.53119,-0.907446,-0.460749,3179.91,1356.52)">
                                    <path d="M289.567,781.055C288.135,784.359 294.32,802.205 297.515,801.785C300.71,801.365 310.218,789.057 307.507,783.995C305.903,781 291,777.752 289.567,781.055Z" style="fill:rgb(253,107,103);"/>
                                </g>
                            </g>
                        </g>
                        <g transform="matrix(1.06198,0.0598161,-0.0529012,0.939209,-3788.92,-1134.5)">
                            <path d="M4242.15,1584.28C4240.77,1579.12 4236.57,1575.59 4231.8,1575.59L3958.24,1575.59C3954.82,1575.59 3951.6,1577.42 3949.56,1580.53C3947.53,1583.63 3946.91,1587.64 3947.89,1591.35C3957.8,1628.43 3982.33,1720.26 3989.99,1748.92C3991.37,1754.08 3995.57,1757.61 4000.34,1757.61L4273.89,1757.61C4277.31,1757.61 4280.53,1755.78 4282.57,1752.67C4284.61,1749.57 4285.23,1745.55 4284.24,1741.85C4274.33,1704.76 4249.8,1612.94 4242.15,1584.28Z" style="fill:white;"/>
                            <g>
                                <clipPath id="_clip6">
                                    <path d="M4242.15,1584.28C4240.77,1579.12 4236.57,1575.59 4231.8,1575.59L3958.24,1575.59C3954.82,1575.59 3951.6,1577.42 3949.56,1580.53C3947.53,1583.63 3946.91,1587.64 3947.89,1591.35C3957.8,1628.43 3982.33,1720.26 3989.99,1748.92C3991.37,1754.08 3995.57,1757.61 4000.34,1757.61L4273.89,1757.61C4277.31,1757.61 4280.53,1755.78 4282.57,1752.67C4284.61,1749.57 4285.23,1745.55 4284.24,1741.85C4274.33,1704.76 4249.8,1612.94 4242.15,1584.28Z"/>
                                </clipPath>
                                <g clip-path="url(#_clip6)">
                                    <g transform="matrix(1,-1.38778e-17,0,1,-3.54473,4.07548)">
                                        <path d="M4242.15,1584.28C4240.77,1579.12 4236.57,1575.59 4231.8,1575.59L3958.24,1575.59C3954.82,1575.59 3951.6,1577.42 3949.56,1580.53C3947.53,1583.63 3946.91,1587.64 3947.89,1591.35C3957.8,1628.43 3982.33,1720.26 3989.99,1748.92C3991.37,1754.08 3995.57,1757.61 4000.34,1757.61L4273.89,1757.61C4277.31,1757.61 4280.53,1755.78 4282.57,1752.67C4284.61,1749.57 4285.23,1745.55 4284.24,1741.85C4274.33,1704.76 4249.8,1612.94 4242.15,1584.28Z" style="fill:rgb(240,240,240);"/>
                                    </g>
                                </g>
                            </g>
                        </g>
                        <g transform="matrix(0.783131,0.687997,-0.685303,0.767895,-84.2415,-1943.88)">
                            <ellipse cx="2285.77" cy="1484.14" rx="64.646" ry="72.624" style="fill:rgb(254,161,158);"/>
                            <g>
                                <g transform="matrix(-0.179569,-0.583203,0.480238,-0.151393,2136.46,2020.09)">
                                    <ellipse cx="716.185" cy="713.203" rx="33.711" ry="33.625" style="fill:rgb(254,145,142);"/>
                                </g>
                                <g transform="matrix(-0.10159,-0.329942,0.329823,-0.103975,2157.41,1737.49)">
                                    <ellipse cx="716.185" cy="713.203" rx="33.711" ry="33.625" style="fill:rgb(254,145,142);"/>
                                </g>
                                <g transform="matrix(0.177099,-0.0493423,0.0611851,0.224843,2094.43,1415.17)">
                                    <ellipse cx="716.185" cy="713.203" rx="33.711" ry="33.625" style="fill:rgb(254,145,142);"/>
                                </g>
                                <g transform="matrix(0.287167,0.153656,-0.218293,0.417698,2180.72,1059.99)">
                                    <ellipse cx="716.185" cy="713.203" rx="33.711" ry="33.625" style="fill:rgb(254,145,142);"/>
                                </g>
                                <g transform="matrix(0.0375275,-0.299642,0.219049,0.0280883,2140.37,1672.18)">
                                    <ellipse cx="716.185" cy="713.203" rx="33.711" ry="33.625" style="fill:rgb(254,145,142);"/>
                                </g>
                                <g transform="matrix(-0.358145,-1.52449,1.37263,-0.33016,1561.58,2823.87)">
                                    <ellipse cx="716.185" cy="713.203" rx="33.711" ry="33.625" style="fill:rgb(254,143,140);"/>
                                </g>
                                <g transform="matrix(-1.6394,-0.470275,0.269111,-1.00886,2581.66,2357.53)">
                                    <path d="M290.938,786.582C289.41,792.161 297.703,804.169 300.898,803.749C304.093,803.33 311.209,788.682 308.498,783.621C306.894,780.625 291.951,782.885 290.938,786.582Z" style="fill:rgb(253,108,104);"/>
                                </g>
                                <g transform="matrix(-1.43734,0.926116,-0.565649,-0.874275,3136.95,1832.21)">
                                    <path d="M289.567,781.055C288.135,784.359 293.814,803.202 297.009,802.782C300.204,802.362 310.218,789.057 307.507,783.995C305.903,781 291,777.752 289.567,781.055Z" style="fill:rgb(253,108,104);"/>
                                </g>
                                <g transform="matrix(-0.7834,1.53119,-0.907446,-0.460749,3179.91,1356.52)">
                                    <path d="M289.567,781.055C288.135,784.359 294.32,802.205 297.515,801.785C300.71,801.365 310.218,789.057 307.507,783.995C305.903,781 291,777.752 289.567,781.055Z" style="fill:rgb(253,108,104);"/>
                                </g>
                            </g>
                        </g>
                        <g transform="matrix(-1.1296,-0.189706,-0.187763,1.11803,1258.51,60.2238)">
                            <path d="M541.963,383.304C536.609,396.199 564.079,436.175 573.887,430.672C583.695,425.169 612.212,372.792 594.738,351.552C584.262,338.818 548.652,367.193 541.963,383.304Z" style="fill:rgb(253,106,102);"/>
                        </g>
                    </g>
                </g>
            </g>
        </g>
    </g>
</svg>
