<?xml version="1.0" encoding="UTF-8" standalone="no"?>
<!DOCTYPE svg PUBLIC "-//W3C//DTD SVG 1.1//EN" "http://www.w3.org/Graphics/SVG/1.1/DTD/svg11.dtd">
<svg width="100%" height="100%" viewBox="0 0 2104 584" version="1.1" xmlns="http://www.w3.org/2000/svg" xmlns:xlink="http://www.w3.org/1999/xlink" xml:space="preserve" xmlns:serif="http://www.serif.com/" style="fill-rule:evenodd;clip-rule:evenodd;stroke-linecap:round;stroke-linejoin:round;stroke-miterlimit:1.5;">
    <g transform="matrix(1,0,0,1,-2516.48,-843.333)">
        <g transform="matrix(1.27972,0,0,1.27972,2924.99,542.98)">
            <g transform="matrix(0.626945,-0.633441,0.590016,0.583965,-708.343,231.561)">
                <g transform="matrix(0.549135,0,0,0.589552,0,0)">
                    <path d="M287.218,908.218C315.44,850.409 363.696,799.874 428.961,761.529" style="fill:none;stroke:rgb(102,160,158);stroke-width:9.58px;"/>
                </g>
                <g transform="matrix(0.288792,0.583133,-0.341882,0.195155,366.969,44.3127)">
                    <path d="M440.233,693.616C445.334,693.616 449.476,716.648 449.476,735.759C449.476,754.871 445.334,762.872 440.233,762.872C435.131,762.872 430.989,754.871 430.989,735.759C430.989,716.648 435.131,693.616 440.233,693.616Z" style="fill:rgb(102,160,158);"/>
                </g>
                <g transform="matrix(0.0492692,0.664124,-0.42937,0.036715,517.358,148.657)">
                    <path d="M440.233,693.616C445.334,693.616 449.476,716.648 449.476,735.759C449.476,754.871 441.995,762.063 436.893,762.063C431.791,762.063 430.989,754.871 430.989,735.759C430.989,716.648 435.131,693.616 440.233,693.616Z" style="fill:rgb(102,160,158);"/>
                </g>
                <g transform="matrix(0.251692,0.732682,-0.451906,0.178932,416.626,41.2261)">
                    <path d="M440.233,693.616C445.334,693.616 449.476,716.648 449.476,735.759C449.476,754.871 441.995,762.063 436.893,762.063C431.791,762.063 430.989,754.871 430.989,735.759C430.989,716.648 435.131,693.616 440.233,693.616Z" style="fill:rgb(102,160,158);"/>
                </g>
                <g transform="matrix(0.305459,0.686718,-0.500779,0.256748,406.544,36.6821)">
                    <path d="M440.233,693.616C445.334,693.616 449.476,716.648 449.476,735.759C449.476,754.871 441.995,762.063 436.893,762.063C431.791,762.063 430.989,754.871 430.989,735.759C430.989,716.648 435.131,693.616 440.233,693.616Z" style="fill:rgb(102,160,158);"/>
                </g>
                <g transform="matrix(-0.539993,-0.050722,-0.0479509,0.588401,429.595,105.789)">
                    <path d="M440.233,693.616C445.334,693.616 449.476,716.648 449.476,735.759C449.476,754.871 441.995,762.063 436.893,762.063C431.791,762.063 430.989,754.871 430.989,735.759C430.989,716.648 435.131,693.616 440.233,693.616Z" style="fill:rgb(102,160,158);"/>
                </g>
                <g transform="matrix(-0.539533,-0.236784,-0.189757,0.498366,562.14,216.461)">
                    <path d="M440.233,693.616C445.334,693.616 449.476,716.648 449.476,735.759C449.476,754.871 441.995,762.063 436.893,762.063C431.791,762.063 430.989,754.871 430.989,735.759C430.989,716.648 435.131,693.616 440.233,693.616Z" style="fill:rgb(102,160,158);"/>
                </g>
                <g transform="matrix(-0.474794,-0.259299,-0.195293,0.412169,566.965,263.465)">
                    <path d="M440.233,693.616C445.334,693.616 449.476,716.648 449.476,735.759C449.476,754.871 441.995,762.063 436.893,762.063C431.791,762.063 430.989,754.871 430.989,735.759C430.989,716.648 435.131,693.616 440.233,693.616Z" style="fill:rgb(102,160,158);"/>
                </g>
            </g>
            <g transform="matrix(0.200332,-0.496499,-0.462462,-0.186598,1467,760.551)">
                <g transform="matrix(0.344883,0.124119,-0.134549,0.430922,140.106,55.0998)">
                    <path d="M265.24,970.652C284.073,886.848 341.109,813.146 428.961,761.529" style="fill:none;stroke:rgb(102,160,158);stroke-width:14.79px;"/>
                </g>
                <g transform="matrix(0.179616,0.73219,-0.425343,0.120267,427.549,23.648)">
                    <path d="M440.233,693.616C445.334,693.616 449.476,716.648 449.476,735.759C449.476,754.871 445.334,762.872 440.233,762.872C435.131,762.872 430.989,754.871 430.989,735.759C430.989,716.648 435.131,693.616 440.233,693.616Z" style="fill:rgb(102,160,158);"/>
                </g>
                <g transform="matrix(-0.178721,0.750237,-0.418318,-0.11486,558.815,207.228)">
                    <path d="M440.233,693.616C445.334,693.616 449.476,716.648 449.476,735.759C449.476,754.871 441.995,762.063 436.893,762.063C431.791,762.063 430.989,754.871 430.989,735.759C430.989,716.648 435.131,693.616 440.233,693.616Z" style="fill:rgb(102,160,158);"/>
                </g>
                <g transform="matrix(-0.169049,0.814171,-0.55089,-0.13184,626.444,211.444)">
                    <path d="M440.233,693.616C445.334,693.616 449.476,716.648 449.476,735.759C449.476,754.871 441.995,762.063 436.893,762.063C431.791,762.063 430.989,754.871 430.989,735.759C430.989,716.648 435.131,693.616 440.233,693.616Z" style="fill:rgb(102,160,158);"/>
                </g>
                <g transform="matrix(-0.0186578,0.865831,-0.554803,-0.0137801,541.166,126.417)">
                    <path d="M440.233,693.616C445.334,693.616 449.476,716.648 449.476,735.759C449.476,754.871 441.995,762.063 436.893,762.063C431.791,762.063 430.989,754.871 430.989,735.759C430.989,716.648 435.131,693.616 440.233,693.616Z" style="fill:rgb(102,160,158);"/>
                </g>
                <g transform="matrix(-0.782929,0.189288,0.120865,0.576218,357.947,-30.342)">
                    <path d="M440.233,693.616C445.334,693.616 449.476,716.648 449.476,735.759C449.476,754.871 441.995,762.063 436.893,762.063C431.791,762.063 430.989,754.871 430.989,735.759C430.989,716.648 435.131,693.616 440.233,693.616Z" style="fill:rgb(102,160,158);"/>
                </g>
                <g transform="matrix(-0.781957,-0.0668769,-0.0443502,0.597706,507.387,38.0738)">
                    <path d="M440.233,693.616C445.334,693.616 449.476,716.648 449.476,735.759C449.476,754.871 441.995,762.063 436.893,762.063C431.791,762.063 430.989,754.871 430.989,735.759C430.989,716.648 435.131,693.616 440.233,693.616Z" style="fill:rgb(102,160,158);"/>
                </g>
                <g transform="matrix(-0.652597,-0.356403,-0.196941,0.415647,597.734,281.916)">
                    <path d="M440.233,693.616C445.334,693.616 449.476,716.648 449.476,735.759C449.476,754.871 441.995,762.063 436.893,762.063C431.791,762.063 430.989,754.871 430.989,735.759C430.989,716.648 435.131,693.616 440.233,693.616Z" style="fill:rgb(102,160,158);"/>
                </g>
            </g>
            <g transform="matrix(0.223804,-0.453523,0.422432,0.208462,459.862,291.971)">
                <g transform="matrix(0.344883,0.124119,-0.134549,0.430922,140.106,55.0998)">
                    <path d="M265.24,970.652C284.073,886.848 341.109,813.146 428.961,761.529" style="fill:none;stroke:rgb(188,218,209);stroke-width:15.66px;"/>
                </g>
                <g transform="matrix(0.179616,0.73219,-0.425343,0.120267,427.549,23.648)">
                    <path d="M440.233,693.616C445.334,693.616 449.476,716.648 449.476,735.759C449.476,754.871 445.334,762.872 440.233,762.872C435.131,762.872 430.989,754.871 430.989,735.759C430.989,716.648 435.131,693.616 440.233,693.616Z" style="fill:rgb(188,218,209);"/>
                </g>
                <g transform="matrix(-0.178721,0.750237,-0.418318,-0.11486,558.815,207.228)">
                    <path d="M440.233,693.616C445.334,693.616 449.476,716.648 449.476,735.759C449.476,754.871 441.995,762.063 436.893,762.063C431.791,762.063 430.989,754.871 430.989,735.759C430.989,716.648 435.131,693.616 440.233,693.616Z" style="fill:rgb(188,218,209);"/>
                </g>
                <g transform="matrix(-0.169049,0.814171,-0.55089,-0.13184,626.444,211.444)">
                    <path d="M440.233,693.616C445.334,693.616 449.476,716.648 449.476,735.759C449.476,754.871 441.995,762.063 436.893,762.063C431.791,762.063 430.989,754.871 430.989,735.759C430.989,716.648 435.131,693.616 440.233,693.616Z" style="fill:rgb(188,218,209);"/>
                </g>
                <g transform="matrix(-0.0186578,0.865831,-0.554803,-0.0137801,541.166,126.417)">
                    <path d="M440.233,693.616C445.334,693.616 449.476,716.648 449.476,735.759C449.476,754.871 441.995,762.063 436.893,762.063C431.791,762.063 430.989,754.871 430.989,735.759C430.989,716.648 435.131,693.616 440.233,693.616Z" style="fill:rgb(188,218,209);"/>
                </g>
                <g transform="matrix(-0.782929,0.189288,0.120865,0.576218,357.947,-30.342)">
                    <path d="M440.233,693.616C445.334,693.616 449.476,716.648 449.476,735.759C449.476,754.871 441.995,762.063 436.893,762.063C431.791,762.063 430.989,754.871 430.989,735.759C430.989,716.648 435.131,693.616 440.233,693.616Z" style="fill:rgb(188,218,209);"/>
                </g>
                <g transform="matrix(-0.781957,-0.0668769,-0.0443502,0.597706,507.387,38.0738)">
                    <path d="M440.233,693.616C445.334,693.616 449.476,716.648 449.476,735.759C449.476,754.871 441.995,762.063 436.893,762.063C431.791,762.063 430.989,754.871 430.989,735.759C430.989,716.648 435.131,693.616 440.233,693.616Z" style="fill:rgb(188,218,209);"/>
                </g>
                <g transform="matrix(-0.652597,-0.356403,-0.196941,0.415647,597.734,281.916)">
                    <path d="M440.233,693.616C445.334,693.616 449.476,716.648 449.476,735.759C449.476,754.871 441.995,762.063 436.893,762.063C431.791,762.063 430.989,754.871 430.989,735.759C430.989,716.648 435.131,693.616 440.233,693.616Z" style="fill:rgb(188,218,209);"/>
                </g>
            </g>
            <g transform="matrix(0.673969,0,0,0.673969,-1119.22,-2630.74)">
                <g transform="matrix(1,0,0,1,-95.0648,51.2599)">
                    <g transform="matrix(-3.00007e-17,0.805788,-1,-8.0572e-17,5875.84,3364.82)">
                        <path d="M1368.68,4475.63L1425.77,4434.6L1482.86,4475.63" style="fill:none;stroke:rgb(191,178,175);stroke-width:25.54px;"/>
                    </g>
                    <g transform="matrix(3.00007e-17,0.805788,1,-8.0572e-17,-3116.15,3364.82)">
                        <path d="M1368.68,4475.63L1425.77,4434.6L1482.86,4475.63" style="fill:none;stroke:rgb(191,178,175);stroke-width:25.54px;"/>
                    </g>
                </g>
                <g transform="matrix(0.917384,-0.398004,0.398004,0.917384,-1664.21,762.733)">
                    <g transform="matrix(-3.00007e-17,0.805788,-1,-8.0572e-17,5903.99,3364.82)">
                        <path d="M1368.68,4475.63L1425.77,4434.6L1482.86,4475.63" style="fill:none;stroke:rgb(191,178,175);stroke-width:25.54px;"/>
                    </g>
                    <g transform="matrix(-3.00007e-17,0.805788,-1,-8.0572e-17,5842.12,3364.22)">
                        <path d="M1368.68,4442.7L1482.86,4475.63" style="fill:none;stroke:rgb(191,178,175);stroke-width:25.54px;"/>
                    </g>
                    <g transform="matrix(3.00007e-17,0.805788,1,-8.0572e-17,-3136.67,3364.82)">
                        <path d="M1368.68,4475.63L1425.77,4434.6L1482.86,4475.63" style="fill:none;stroke:rgb(191,178,175);stroke-width:25.54px;"/>
                    </g>
                </g>
                <g transform="matrix(1,0,0,0.868389,-371.823,721.63)">
                    <g transform="matrix(-3.00007e-17,0.805788,-1,-8.0572e-17,6034.88,3524.01)">
                        <path d="M1368.68,4459.17L1482.86,4459.17" style="fill:none;stroke:rgb(191,178,175);stroke-width:26.87px;"/>
                    </g>
                    <g transform="matrix(-3.00007e-17,0.805788,-1,-8.0572e-17,6159.3,3524.01)">
                        <path d="M1368.68,4459.17L1482.86,4459.17" style="fill:none;stroke:rgb(191,178,175);stroke-width:26.87px;"/>
                    </g>
                    <g transform="matrix(-3.00007e-17,0.805788,-1,-8.0572e-17,6198.52,3524.61)">
                        <path d="M1368.68,4459.17L1482.86,4459.17" style="fill:none;stroke:rgb(191,178,175);stroke-width:26.87px;"/>
                    </g>
                    <g transform="matrix(-3.00007e-17,0.805788,-1,-8.0572e-17,6097.05,3524.01)">
                        <path d="M1368.68,4459.17C1369.03,4427.5 1482.55,4426.51 1482.86,4459.17C1483.18,4493.05 1368.3,4493.45 1368.68,4459.17Z" style="fill:none;stroke:rgb(191,178,175);stroke-width:26.87px;"/>
                    </g>
                    <g transform="matrix(-3.00007e-17,0.805788,-1,-8.0572e-17,6263.1,3524.61)">
                        <path d="M1368.68,4459.17C1369.03,4427.5 1482.55,4426.51 1482.86,4459.17C1483.18,4493.05 1368.3,4493.45 1368.68,4459.17Z" style="fill:none;stroke:rgb(191,178,175);stroke-width:26.87px;"/>
                    </g>
                    <g transform="matrix(-3.00007e-17,0.805788,-1,-8.0572e-17,6348.46,3524.01)">
                        <path d="M1368.68,4459.17C1369.03,4427.5 1482.55,4426.51 1482.86,4459.17C1483.18,4493.05 1368.3,4493.45 1368.68,4459.17Z" style="fill:none;stroke:rgb(191,178,175);stroke-width:26.87px;"/>
                    </g>
                </g>
                <g transform="matrix(0.988989,0.147992,-0.147992,0.988989,642.463,-268.092)">
                    <g transform="matrix(-3.00007e-17,0.805788,-1,-8.0572e-17,6237.82,3292.82)">
                        <path d="M1372.48,4471.76C1372.48,4471.76 1371.15,4459.66 1376.51,4452.36C1385.16,4440.56 1415.43,4432.2 1426.85,4425.63C1438.28,4432.2 1468.54,4440.56 1477.19,4452.36C1482.55,4459.66 1481.23,4471.76 1481.23,4471.76" style="fill:none;stroke:rgb(191,178,175);stroke-width:25.54px;"/>
                    </g>
                    <g transform="matrix(3.00007e-17,0.805788,1,-8.0572e-17,-2737.87,3292.82)">
                        <path d="M1372.48,4471.76C1372.48,4471.76 1371.15,4459.66 1376.51,4452.36C1385.16,4440.56 1415.43,4432.2 1426.85,4425.63C1438.28,4432.2 1468.54,4440.56 1477.19,4452.36C1482.55,4459.66 1481.23,4471.76 1481.23,4471.76" style="fill:none;stroke:rgb(191,178,175);stroke-width:25.54px;"/>
                    </g>
                </g>
                <g transform="matrix(0.927792,-0.373099,0.373099,0.927792,-1405.16,1004.23)">
                    <g transform="matrix(3.00007e-17,0.805788,1,-8.0572e-17,-3012.17,3561.16)">
                        <path d="M1369.23,4475.63L1369.23,4449.98L1483.19,4449.98L1483.19,4475.63" style="fill:none;stroke:rgb(191,178,175);stroke-width:25.54px;"/>
                    </g>
                    <g transform="matrix(-3.00007e-17,0.805788,-1,-8.0572e-17,5984.6,3561.16)">
                        <path d="M1369.23,4475.63L1369.23,4449.98L1483.19,4449.98L1483.19,4475.63" style="fill:none;stroke:rgb(191,178,175);stroke-width:25.54px;"/>
                    </g>
                </g>
                <g transform="matrix(0.92461,-0.380916,0.380916,0.92461,-1235.62,554.034)">
                    <g transform="matrix(140,0,0,140,1458.63,4852.49)">
                        <path d="M0.36,-0.107L0.465,-0.107C0.487,-0.107 0.503,-0.103 0.512,-0.095C0.521,-0.087 0.526,-0.073 0.526,-0.054C0.526,-0.035 0.521,-0.021 0.512,-0.013C0.503,-0.004 0.487,-0 0.465,-0L0.134,-0C0.112,-0 0.096,-0.004 0.087,-0.013C0.078,-0.021 0.073,-0.035 0.073,-0.054C0.073,-0.073 0.078,-0.087 0.087,-0.095C0.096,-0.103 0.111,-0.107 0.134,-0.107L0.239,-0.107L0.239,-0.531L0.185,-0.531C0.163,-0.531 0.147,-0.535 0.137,-0.544C0.128,-0.552 0.123,-0.566 0.123,-0.585C0.123,-0.604 0.128,-0.618 0.137,-0.626C0.147,-0.635 0.163,-0.639 0.185,-0.639L0.331,-0.639C0.34,-0.639 0.347,-0.637 0.352,-0.634C0.357,-0.63 0.36,-0.625 0.36,-0.618L0.36,-0.107Z" style="fill:rgb(191,178,175);fill-rule:nonzero;"/>
                    </g>
                    <g transform="matrix(140,0,0,140,1542.65,4852.49)">
                        <path d="M0.167,-0.197C0.175,-0.161 0.192,-0.134 0.216,-0.116C0.24,-0.098 0.273,-0.089 0.313,-0.089C0.353,-0.089 0.393,-0.099 0.433,-0.118C0.472,-0.138 0.496,-0.148 0.504,-0.148C0.516,-0.148 0.526,-0.143 0.533,-0.135C0.541,-0.126 0.545,-0.114 0.545,-0.1C0.545,-0.069 0.522,-0.043 0.477,-0.021C0.432,0.001 0.376,0.012 0.309,0.012C0.23,0.012 0.166,-0.01 0.117,-0.054C0.068,-0.098 0.043,-0.155 0.043,-0.225C0.043,-0.294 0.068,-0.351 0.117,-0.396C0.166,-0.44 0.23,-0.462 0.309,-0.462C0.379,-0.462 0.438,-0.441 0.484,-0.4C0.53,-0.358 0.553,-0.307 0.553,-0.247C0.553,-0.228 0.549,-0.215 0.539,-0.208C0.53,-0.2 0.511,-0.197 0.482,-0.197L0.167,-0.197ZM0.43,-0.273C0.425,-0.303 0.41,-0.327 0.387,-0.343C0.365,-0.36 0.335,-0.368 0.298,-0.368C0.262,-0.368 0.234,-0.36 0.212,-0.344C0.191,-0.329 0.175,-0.305 0.167,-0.273L0.43,-0.273Z" style="fill:rgb(191,178,175);fill-rule:nonzero;"/>
                    </g>
                    <g transform="matrix(140,0,0,140,1626.66,4852.49)">
                        <path d="M0.266,-0.424L0.415,-0.424C0.438,-0.424 0.453,-0.42 0.463,-0.412C0.472,-0.403 0.477,-0.39 0.477,-0.371C0.477,-0.352 0.472,-0.338 0.463,-0.33C0.453,-0.321 0.437,-0.317 0.415,-0.317L0.266,-0.317L0.266,-0.192C0.266,-0.157 0.271,-0.133 0.282,-0.12C0.293,-0.107 0.312,-0.1 0.339,-0.1C0.364,-0.1 0.394,-0.107 0.429,-0.122C0.463,-0.137 0.486,-0.144 0.498,-0.144C0.511,-0.144 0.523,-0.139 0.532,-0.128C0.542,-0.118 0.547,-0.105 0.547,-0.09C0.547,-0.065 0.524,-0.042 0.479,-0.021C0.433,-0.001 0.382,0.01 0.324,0.01C0.291,0.01 0.261,0.005 0.236,-0.004C0.21,-0.013 0.19,-0.026 0.176,-0.043C0.165,-0.056 0.157,-0.072 0.153,-0.09C0.148,-0.108 0.146,-0.139 0.146,-0.181L0.146,-0.317L0.1,-0.317C0.078,-0.317 0.062,-0.321 0.053,-0.33C0.044,-0.338 0.039,-0.352 0.039,-0.371C0.039,-0.39 0.044,-0.404 0.053,-0.412C0.062,-0.42 0.078,-0.424 0.1,-0.424L0.146,-0.424L0.146,-0.538C0.146,-0.561 0.151,-0.576 0.16,-0.585C0.169,-0.595 0.185,-0.599 0.206,-0.599C0.228,-0.599 0.243,-0.595 0.252,-0.585C0.261,-0.576 0.266,-0.561 0.266,-0.538L0.266,-0.424Z" style="fill:rgb(191,178,175);fill-rule:nonzero;"/>
                    </g>
                </g>
                <g transform="matrix(0.966288,0.257464,-0.257464,0.966288,1333.85,-507.784)">
                    <g transform="matrix(140,0,0,140,1458.63,4852.49)">
                        <path d="M0.445,-0.425C0.449,-0.438 0.455,-0.447 0.463,-0.453C0.471,-0.46 0.482,-0.463 0.495,-0.463C0.513,-0.463 0.525,-0.458 0.533,-0.447C0.54,-0.436 0.544,-0.418 0.544,-0.392L0.544,-0.312C0.544,-0.292 0.54,-0.278 0.532,-0.268C0.524,-0.259 0.511,-0.254 0.494,-0.254C0.482,-0.254 0.472,-0.257 0.464,-0.262C0.456,-0.268 0.447,-0.278 0.438,-0.294C0.425,-0.316 0.408,-0.332 0.387,-0.343C0.366,-0.354 0.34,-0.359 0.309,-0.359C0.271,-0.359 0.24,-0.346 0.216,-0.322C0.191,-0.297 0.179,-0.265 0.179,-0.226C0.179,-0.185 0.192,-0.153 0.217,-0.128C0.242,-0.103 0.276,-0.091 0.318,-0.091C0.356,-0.091 0.394,-0.101 0.432,-0.123C0.47,-0.144 0.493,-0.155 0.502,-0.155C0.514,-0.155 0.524,-0.15 0.532,-0.141C0.54,-0.132 0.544,-0.12 0.544,-0.106C0.544,-0.075 0.521,-0.048 0.474,-0.024C0.428,0 0.373,0.012 0.309,0.012C0.23,0.012 0.166,-0.01 0.117,-0.054C0.068,-0.098 0.043,-0.155 0.043,-0.225C0.043,-0.293 0.067,-0.35 0.116,-0.395C0.165,-0.44 0.227,-0.463 0.301,-0.463C0.326,-0.463 0.35,-0.46 0.374,-0.454C0.398,-0.447 0.421,-0.438 0.445,-0.425Z" style="fill:rgb(191,178,175);fill-rule:nonzero;"/>
                    </g>
                    <g transform="matrix(140,0,0,140,1542.65,4852.49)">
                        <path d="M0.3,-0.359C0.262,-0.359 0.23,-0.346 0.206,-0.322C0.181,-0.297 0.169,-0.265 0.169,-0.226C0.169,-0.187 0.181,-0.155 0.206,-0.129C0.23,-0.104 0.262,-0.091 0.3,-0.091C0.338,-0.091 0.369,-0.104 0.394,-0.129C0.419,-0.155 0.431,-0.187 0.431,-0.226C0.431,-0.265 0.419,-0.297 0.394,-0.322C0.37,-0.346 0.338,-0.359 0.3,-0.359ZM0.3,-0.462C0.379,-0.462 0.443,-0.44 0.492,-0.396C0.541,-0.351 0.566,-0.294 0.566,-0.225C0.566,-0.155 0.541,-0.098 0.492,-0.054C0.443,-0.01 0.379,0.012 0.3,0.012C0.221,0.012 0.157,-0.01 0.108,-0.054C0.059,-0.098 0.034,-0.155 0.034,-0.225C0.034,-0.294 0.059,-0.351 0.108,-0.396C0.157,-0.44 0.221,-0.462 0.3,-0.462Z" style="fill:rgb(191,178,175);fill-rule:nonzero;"/>
                    </g>
                    <g transform="matrix(140,0,0,140,1626.66,4852.49)">
                        <path d="M0.505,-0.108L0.511,-0.108C0.529,-0.108 0.543,-0.103 0.552,-0.094C0.561,-0.086 0.566,-0.072 0.566,-0.054C0.566,-0.035 0.561,-0.021 0.552,-0.013C0.543,-0.004 0.527,-0 0.505,-0L0.385,-0C0.363,-0 0.347,-0.004 0.338,-0.013C0.328,-0.021 0.323,-0.035 0.323,-0.054C0.323,-0.072 0.328,-0.086 0.337,-0.094C0.346,-0.103 0.36,-0.108 0.379,-0.108L0.385,-0.108L0.385,-0.249C0.385,-0.288 0.379,-0.316 0.368,-0.332C0.358,-0.349 0.339,-0.357 0.314,-0.357C0.287,-0.357 0.265,-0.347 0.248,-0.327C0.231,-0.308 0.222,-0.282 0.222,-0.249L0.222,-0.108L0.228,-0.108C0.247,-0.108 0.26,-0.103 0.27,-0.094C0.279,-0.086 0.283,-0.072 0.283,-0.054C0.283,-0.035 0.278,-0.021 0.269,-0.013C0.26,-0.004 0.244,-0 0.222,-0L0.101,-0C0.079,-0 0.064,-0.004 0.054,-0.013C0.045,-0.021 0.04,-0.035 0.04,-0.054C0.04,-0.072 0.045,-0.086 0.054,-0.094C0.063,-0.103 0.077,-0.108 0.095,-0.108L0.101,-0.108L0.101,-0.344L0.093,-0.344C0.075,-0.344 0.062,-0.349 0.053,-0.358C0.044,-0.367 0.039,-0.38 0.039,-0.397C0.039,-0.416 0.044,-0.43 0.053,-0.438C0.063,-0.447 0.079,-0.451 0.101,-0.451L0.184,-0.451C0.193,-0.451 0.2,-0.449 0.205,-0.446C0.21,-0.442 0.212,-0.437 0.212,-0.43L0.212,-0.392C0.227,-0.416 0.246,-0.433 0.269,-0.445C0.293,-0.457 0.319,-0.463 0.35,-0.463C0.402,-0.463 0.441,-0.447 0.467,-0.416C0.492,-0.384 0.505,-0.336 0.505,-0.271L0.505,-0.108Z" style="fill:rgb(191,178,175);fill-rule:nonzero;"/>
                    </g>
                    <g transform="matrix(140,0,0,140,1710.67,4852.49)">
                        <path d="M0.171,-0.007C0.162,-0 0.154,0.005 0.145,0.008C0.136,0.011 0.127,0.013 0.117,0.013C0.103,0.013 0.093,0.009 0.088,0.002C0.082,-0.006 0.079,-0.02 0.079,-0.04L0.079,-0.105C0.079,-0.126 0.083,-0.142 0.09,-0.151C0.097,-0.16 0.109,-0.164 0.127,-0.164C0.146,-0.164 0.162,-0.155 0.174,-0.136C0.181,-0.126 0.187,-0.119 0.192,-0.114C0.208,-0.099 0.226,-0.089 0.248,-0.082C0.269,-0.074 0.293,-0.071 0.32,-0.071C0.343,-0.071 0.362,-0.075 0.376,-0.084C0.39,-0.094 0.397,-0.105 0.397,-0.12C0.397,-0.146 0.359,-0.165 0.284,-0.175C0.268,-0.177 0.255,-0.179 0.245,-0.18C0.188,-0.188 0.146,-0.203 0.119,-0.226C0.091,-0.249 0.077,-0.28 0.077,-0.319C0.077,-0.365 0.094,-0.4 0.127,-0.425C0.16,-0.45 0.208,-0.463 0.269,-0.463C0.29,-0.463 0.312,-0.461 0.334,-0.458C0.357,-0.454 0.379,-0.449 0.403,-0.442C0.41,-0.45 0.417,-0.456 0.425,-0.46C0.432,-0.464 0.441,-0.466 0.45,-0.466C0.464,-0.466 0.474,-0.462 0.481,-0.453C0.488,-0.445 0.491,-0.433 0.491,-0.416L0.491,-0.356C0.491,-0.342 0.488,-0.331 0.48,-0.323C0.473,-0.316 0.463,-0.312 0.45,-0.312C0.437,-0.312 0.414,-0.324 0.382,-0.347C0.349,-0.37 0.317,-0.382 0.284,-0.382C0.259,-0.382 0.239,-0.378 0.225,-0.369C0.211,-0.361 0.204,-0.35 0.204,-0.335C0.204,-0.312 0.233,-0.297 0.292,-0.289C0.309,-0.287 0.322,-0.285 0.332,-0.284C0.406,-0.273 0.456,-0.257 0.484,-0.236C0.511,-0.215 0.525,-0.183 0.525,-0.141C0.525,-0.092 0.507,-0.054 0.47,-0.027C0.434,-0 0.383,0.013 0.316,0.013C0.29,0.013 0.265,0.011 0.241,0.008C0.217,0.005 0.193,-0 0.171,-0.007Z" style="fill:rgb(191,178,175);fill-rule:nonzero;"/>
                    </g>
                    <g transform="matrix(140,0,0,140,1794.69,4852.49)">
                        <path d="M0.266,-0.424L0.415,-0.424C0.438,-0.424 0.453,-0.42 0.463,-0.412C0.472,-0.403 0.477,-0.39 0.477,-0.371C0.477,-0.352 0.472,-0.338 0.463,-0.33C0.453,-0.321 0.437,-0.317 0.415,-0.317L0.266,-0.317L0.266,-0.192C0.266,-0.157 0.271,-0.133 0.282,-0.12C0.293,-0.107 0.312,-0.1 0.339,-0.1C0.364,-0.1 0.394,-0.107 0.429,-0.122C0.463,-0.137 0.486,-0.144 0.498,-0.144C0.511,-0.144 0.523,-0.139 0.532,-0.128C0.542,-0.118 0.547,-0.105 0.547,-0.09C0.547,-0.065 0.524,-0.042 0.479,-0.021C0.433,-0.001 0.382,0.01 0.324,0.01C0.291,0.01 0.261,0.005 0.236,-0.004C0.21,-0.013 0.19,-0.026 0.176,-0.043C0.165,-0.056 0.157,-0.072 0.153,-0.09C0.148,-0.108 0.146,-0.139 0.146,-0.181L0.146,-0.317L0.1,-0.317C0.078,-0.317 0.062,-0.321 0.053,-0.33C0.044,-0.338 0.039,-0.352 0.039,-0.371C0.039,-0.39 0.044,-0.404 0.053,-0.412C0.062,-0.42 0.078,-0.424 0.1,-0.424L0.146,-0.424L0.146,-0.538C0.146,-0.561 0.151,-0.576 0.16,-0.585C0.169,-0.595 0.185,-0.599 0.206,-0.599C0.228,-0.599 0.243,-0.595 0.252,-0.585C0.261,-0.576 0.266,-0.561 0.266,-0.538L0.266,-0.424Z" style="fill:rgb(191,178,175);fill-rule:nonzero;"/>
                    </g>
                </g>
            </g>
            <g transform="matrix(0.781418,0,0,0.781418,-1237.83,-3153.64)">
                <g transform="matrix(1.0233,0.35026,-0.35026,1.0233,1937,-785.152)">
                    <g transform="matrix(0.587571,0.551411,-0.684313,0.729188,4768.47,417.9)">
                        <path d="M1472.01,4457.13C1446.67,4463.25 1376.89,4466.94 1368.68,4459.17C1387.6,4452.3 1418.06,4451.17 1472.01,4457.13Z" style="fill:none;stroke:rgb(191,178,175);stroke-width:20.36px;"/>
                    </g>
                    <g transform="matrix(0.587571,0.551411,-0.684313,0.729188,4780.71,425.636)">
                        <path d="M1484.73,4454.15C1491.92,4448.16 1508.4,4454.09 1521.48,4450C1514.8,4467.97 1495.67,4472.79 1485.4,4463.13C1483.5,4461.34 1483.33,4455.32 1484.73,4454.15Z" style="fill:none;stroke:rgb(191,178,175);stroke-width:20.36px;"/>
                    </g>
                </g>
                <g transform="matrix(-0.756339,1.08469,-1.08469,-0.756339,9529.97,5052.05)">
                    <g transform="matrix(0.822686,0,-1.41688e-16,0.589164,1513.15,1832.84)">
                        <path d="M1487.89,4467.84L1396.5,4467.84L1396.23,4443.63L1487.62,4443.63L1515.98,4455.21L1487.89,4467.84Z" style="fill:rgb(191,178,175);stroke:rgb(191,178,175);stroke-opacity:0.99;stroke-width:12.68px;"/>
                    </g>
                    <g transform="matrix(0.715304,0,-1.23194e-16,0.589164,1640.84,1832.84)">
                        <path d="M1407.1,4467.84L1396.5,4467.84L1396.23,4443.63L1406.83,4443.63L1407.1,4467.84Z" style="fill:rgb(191,178,175);stroke:rgb(191,178,175);stroke-opacity:0.99;stroke-width:13.85px;"/>
                    </g>
                </g>
                <g transform="matrix(1.19084,-0.28104,0.28104,1.19084,-1885.22,-263.25)">
                    <g transform="matrix(4.64606e-17,-0.758758,0.643427,1.70077e-16,-108.31,5650.64)">
                        <path d="M1425.03,4530.38L1370.72,4530.38L1370.44,4443.63L1424.76,4443.63L1425.03,4530.38Z" style="fill:rgb(191,178,175);stroke:rgb(191,178,175);stroke-opacity:0.99;stroke-width:13.94px;"/>
                    </g>
                    <g transform="matrix(4.93403e-17,-0.805788,0.589164,1.74854e-16,135.17,5658.48)">
                        <path d="M1376.7,4530.38L1370.74,4538.67L1370.44,4435.52L1376.43,4443.63L1376.7,4530.38Z" style="fill:rgb(191,178,175);stroke:rgb(191,178,175);stroke-opacity:0.99;stroke-width:13.89px;"/>
                    </g>
                </g>
                <g transform="matrix(0.537446,0.345342,-0.596101,0.927696,4477.27,-603.953)">
                    <g transform="matrix(4.64606e-17,-0.758758,0.643427,1.70077e-16,-108.31,5650.64)">
                        <path d="M1425.03,4530.38L1370.72,4530.38L1370.44,4443.63L1424.76,4443.63L1425.03,4530.38Z" style="fill:rgb(191,178,175);stroke:rgb(191,178,175);stroke-opacity:0.99;stroke-width:18.2px;"/>
                    </g>
                    <g transform="matrix(4.93403e-17,-0.805788,0.589164,1.74854e-16,135.17,5658.48)">
                        <path d="M1376.7,4530.38L1370.74,4538.67L1370.44,4435.52L1376.43,4443.63L1376.7,4530.38Z" style="fill:rgb(191,178,175);stroke:rgb(191,178,175);stroke-opacity:0.99;stroke-width:17.59px;"/>
                    </g>
                </g>
                <g transform="matrix(1.37316,-0.208785,0.112291,0.738532,-1170.61,2019.98)">
                    <g transform="matrix(4.34824e-17,-0.668327,0.643427,1.58537e-16,-108.31,5526.71)">
                        <path d="M1425.03,4530.38L1370.72,4530.38L1370.44,4443.63L1424.76,4443.63L1425.03,4530.38Z" style="fill:rgb(191,178,175);stroke:rgb(191,178,175);stroke-opacity:0.99;stroke-width:16.58px;"/>
                    </g>
                    <g transform="matrix(4.93403e-17,-0.805788,0.589164,1.74854e-16,135.17,5658.48)">
                        <path d="M1376.7,4530.38L1370.74,4538.67L1370.44,4435.52L1376.43,4443.63L1376.7,4530.38Z" style="fill:rgb(191,178,175);stroke:rgb(191,178,175);stroke-opacity:0.99;stroke-width:16.71px;"/>
                    </g>
                </g>
                <g transform="matrix(0.705573,0.133276,-0.172526,0.913368,1326.41,-66.9459)">
                    <g transform="matrix(4.53222e-17,-0.750601,0.643427,1.68268e-16,-108.31,5639.46)">
                        <path d="M1425.03,4530.38L1370.72,4530.38L1370.44,4443.63L1424.76,4443.63L1425.03,4530.38Z" style="fill:rgb(191,178,175);stroke:rgb(191,178,175);stroke-opacity:0.99;stroke-width:20.28px;"/>
                    </g>
                    <g transform="matrix(4.93403e-17,-0.805788,0.589164,1.74854e-16,135.17,5658.48)">
                        <path d="M1376.7,4530.38L1370.74,4538.67L1370.44,4435.52L1376.43,4443.63L1376.7,4530.38Z" style="fill:rgb(191,178,175);stroke:rgb(191,178,175);stroke-opacity:0.99;stroke-width:19.73px;"/>
                    </g>
                </g>
                <g transform="matrix(-1.12665,-0.821951,-0.742902,1.0183,3397.29,4331.35)">
                    <g transform="matrix(0.549135,0,0,0.589552,0,0)">
                        <path d="M265.24,970.652C290.452,888.055 346.782,814.219 428.961,761.529" style="fill:none;stroke:rgb(102,160,158);stroke-width:10.6px;"/>
                    </g>
                    <g transform="matrix(0.38501,0.649372,-0.326833,0.22451,313.063,-7.02523)">
                        <path d="M440.233,693.616C445.334,693.616 449.476,716.648 449.476,735.759C449.476,754.871 445.334,762.872 440.233,762.872C435.131,762.872 430.989,754.871 430.989,735.759C430.989,716.648 435.131,693.616 440.233,693.616Z" style="fill:rgb(102,160,158);"/>
                    </g>
                    <g transform="matrix(-0.0494909,0.908341,-0.429742,-0.030937,561.074,93.1248)">
                        <path d="M440.233,693.616C445.334,693.616 449.476,716.648 449.476,735.759C449.476,754.871 441.995,762.063 436.893,762.063C431.791,762.063 430.989,754.871 430.989,735.759C430.989,716.648 435.131,693.616 440.233,693.616Z" style="fill:rgb(102,160,158);"/>
                    </g>
                    <g transform="matrix(0.0393287,0.936508,-0.479799,0.0142763,535.595,73.3029)">
                        <path d="M440.233,693.616C445.334,693.616 449.476,716.648 449.476,735.759C449.476,754.871 441.995,762.063 436.893,762.063C431.791,762.063 430.989,754.871 430.989,735.759C430.989,716.648 435.131,693.616 440.233,693.616Z" style="fill:rgb(102,160,158);"/>
                    </g>
                    <g transform="matrix(0.24845,1.09077,-0.53821,0.135327,463.737,-50.9492)">
                        <path d="M440.233,693.616C445.334,693.616 449.476,716.648 449.476,735.759C449.476,754.871 441.995,762.063 436.893,762.063C431.791,762.063 430.989,754.871 430.989,735.759C430.989,716.648 435.131,693.616 440.233,693.616Z" style="fill:rgb(102,160,158);"/>
                    </g>
                    <g transform="matrix(-0.813051,0.311533,0.150863,0.490249,406.814,14.2665)">
                        <path d="M440.233,693.616C445.334,693.616 449.476,716.648 449.476,735.759C449.476,754.871 441.995,762.063 436.893,762.063C431.791,762.063 430.989,754.871 430.989,735.759C430.989,716.648 435.131,693.616 440.233,693.616Z" style="fill:rgb(102,160,158);"/>
                    </g>
                    <g transform="matrix(-0.802936,0.0972338,0.0429242,0.538694,506.075,38.3954)">
                        <path d="M440.233,693.616C445.334,693.616 449.476,716.648 449.476,735.759C449.476,754.871 441.995,762.063 436.893,762.063C431.791,762.063 430.989,754.871 430.989,735.759C430.989,716.648 435.131,693.616 440.233,693.616Z" style="fill:rgb(102,160,158);"/>
                    </g>
                    <g transform="matrix(-0.706789,-0.18233,-0.105444,0.450511,602.787,203.49)">
                        <path d="M440.233,693.616C445.334,693.616 449.476,716.648 449.476,735.759C449.476,754.871 441.995,762.063 436.893,762.063C431.791,762.063 430.989,754.871 430.989,735.759C430.989,716.648 435.131,693.616 440.233,693.616Z" style="fill:rgb(102,160,158);"/>
                    </g>
                </g>
                <g transform="matrix(-0.171763,-0.965275,-0.899101,0.159988,3350.01,4793.23)">
                    <g transform="matrix(0.549135,0,0,0.589552,0,0)">
                        <path d="M265.491,969.548C283.827,885.461 339.713,811.582 428.961,761.529" style="fill:none;stroke:rgb(188,218,209);stroke-width:14.86px;"/>
                    </g>
                    <g transform="matrix(0.347977,0.702639,-0.361231,0.2062,354.832,-16.184)">
                        <path d="M440.233,693.616C445.334,693.616 449.476,716.648 449.476,735.759C449.476,754.871 445.334,762.872 440.233,762.872C435.131,762.872 430.989,754.871 430.989,735.759C430.989,716.648 435.131,693.616 440.233,693.616Z" style="fill:rgb(188,218,209);"/>
                    </g>
                    <g transform="matrix(-0.0339302,0.683141,-0.430119,-0.0246235,557.499,185.549)">
                        <path d="M440.233,693.616C445.334,693.616 449.476,716.648 449.476,735.759C449.476,754.871 441.995,762.063 436.893,762.063C431.791,762.063 430.989,754.871 430.989,735.759C430.989,716.648 435.131,693.616 440.233,693.616Z" style="fill:rgb(188,218,209);"/>
                    </g>
                    <g transform="matrix(0.0555338,0.786403,-0.480282,0.0390925,523.834,120.494)">
                        <path d="M440.233,693.616C445.334,693.616 449.476,716.648 449.476,735.759C449.476,754.871 441.995,762.063 436.893,762.063C431.791,762.063 430.989,754.871 430.989,735.759C430.989,716.648 435.131,693.616 440.233,693.616Z" style="fill:rgb(188,218,209);"/>
                    </g>
                    <g transform="matrix(0.183295,0.710602,-0.534823,0.159008,489.125,95.0589)">
                        <path d="M440.233,693.616C445.334,693.616 449.476,716.648 449.476,735.759C449.476,754.871 441.995,762.063 436.893,762.063C431.791,762.063 430.989,754.871 430.989,735.759C430.989,716.648 435.131,693.616 440.233,693.616Z" style="fill:rgb(188,218,209);"/>
                    </g>
                    <g transform="matrix(-0.72794,0.210327,0.142974,0.570354,369.311,-0.655267)">
                        <path d="M440.233,693.616C445.334,693.616 449.476,716.648 449.476,735.759C449.476,754.871 441.995,762.063 436.893,762.063C431.791,762.063 430.989,754.871 430.989,735.759C430.989,716.648 435.131,693.616 440.233,693.616Z" style="fill:rgb(188,218,209);"/>
                    </g>
                    <g transform="matrix(-0.737303,0.178011,0.128102,0.611561,370.743,16.1454)">
                        <path d="M440.233,693.616C445.334,693.616 449.476,716.648 449.476,735.759C449.476,754.871 441.995,762.063 436.893,762.063C431.791,762.063 430.989,754.871 430.989,735.759C430.989,716.648 435.131,693.616 440.233,693.616Z" style="fill:rgb(188,218,209);"/>
                    </g>
                    <g transform="matrix(0.16147,0.895215,-0.623843,0.129695,549.192,70.5597)">
                        <path d="M440.233,693.616C445.334,693.616 449.476,716.648 449.476,735.759C449.476,754.871 441.995,762.063 436.893,762.063C431.791,762.063 430.989,754.871 430.989,735.759C430.989,716.648 435.131,693.616 440.233,693.616Z" style="fill:rgb(188,218,209);"/>
                    </g>
                    <g transform="matrix(-0.726617,0.00461623,0.00296751,0.538388,498.851,81.7362)">
                        <path d="M440.233,693.616C445.334,693.616 449.476,716.648 449.476,735.759C449.476,754.871 441.995,762.063 436.893,762.063C431.791,762.063 430.989,754.871 430.989,735.759C430.989,716.648 435.131,693.616 440.233,693.616Z" style="fill:rgb(188,218,209);"/>
                    </g>
                    <g transform="matrix(-0.622154,-0.0855767,-0.0547375,0.458683,526.96,150.784)">
                        <path d="M440.233,693.616C445.334,693.616 449.476,716.648 449.476,735.759C449.476,754.871 441.995,762.063 436.893,762.063C431.791,762.063 430.989,754.871 430.989,735.759C430.989,716.648 435.131,693.616 440.233,693.616Z" style="fill:rgb(188,218,209);"/>
                    </g>
                </g>
                <g transform="matrix(0.818426,0.388224,-0.388224,0.818426,2244.4,-151.653)">
                    <path d="M3060.66,4608.95L2841.47,4608.95L2760.33,4697.87L2979.52,4697.87L3060.66,4608.95Z" style="fill:rgb(191,178,175);stroke:rgb(191,178,175);stroke-opacity:0.99;stroke-width:22.08px;"/>
                    <g transform="matrix(1,0,0,1,0,40.51)">
                        <path d="M2760.33,4687.69L2993.64,4687.69L3069.19,4605.4" style="fill:none;stroke:rgb(191,178,175);stroke-opacity:0.99;stroke-width:22.08px;"/>
                    </g>
                </g>
                <g transform="matrix(1.07937,-0.226439,0.226439,1.07937,-1210.3,319.487)">
                    <g transform="matrix(-1,0,0,1,5880.95,-173.729)">
                        <path d="M3060.66,4608.95L2841.47,4608.95L2760.33,4697.87L2979.52,4697.87L3060.66,4608.95Z" style="fill:rgb(191,178,175);stroke:rgb(191,178,175);stroke-opacity:0.99;stroke-width:18.13px;"/>
                    </g>
                    <g transform="matrix(-0.857238,0,0,0.724361,5465.45,1104.61)">
                        <path d="M3060.66,4608.95L2841.47,4608.95L2762.1,4708.44L2981.3,4708.44L3060.66,4608.95Z" style="fill:rgb(240,240,240);stroke:rgb(240,240,240);stroke-opacity:0.99;stroke-width:13.71px;"/>
                    </g>
                    <g transform="matrix(0.0374436,-0.804918,0.588527,0.0273774,231.486,5444.3)">
                        <path d="M1372.36,4657.13C1357.94,4619.87 1345.53,4536.78 1369.65,4518.71C1377.57,4512.79 1385.93,4600.81 1379.25,4605.11C1353.92,4621.39 1312.58,4557.66 1322.13,4522.67C1328.73,4498.53 1358.92,4477.48 1377.31,4454.88" style="fill:none;stroke:rgb(191,178,175);stroke-opacity:0.99;stroke-width:12.85px;"/>
                    </g>
                    <g transform="matrix(-0.606815,0.53016,-0.216668,-0.247996,4923.38,4763.44)">
                        <path d="M1504.14,4466.52L1370.72,4467.84L1370.44,4443.63L1503.87,4442.3L1516.86,4454.86L1504.14,4466.52Z" style="fill:rgb(191,178,175);stroke:rgb(191,178,175);stroke-opacity:0.99;stroke-width:17.68px;"/>
                    </g>
                </g>
            </g>
            <g transform="matrix(1.41423,0.157716,-0.146904,1.31728,153.1,-1236.01)">
                <g transform="matrix(0.0779222,-0.7005,0.607747,0.0779222,-133.354,1371.82)">
                    <g transform="matrix(0.549135,0,0,0.589552,0,0)">
                        <path d="M265.24,970.652C284.073,886.848 341.109,813.146 428.961,761.529" style="fill:none;stroke:rgb(188,218,209);stroke-width:12.17px;"/>
                    </g>
                    <g transform="matrix(0.331087,0.668536,-0.459653,0.262381,438.21,-43.9329)">
                        <path d="M440.233,693.616C445.334,693.616 449.476,716.648 449.476,735.759C449.476,754.871 445.334,762.872 440.233,762.872C435.131,762.872 430.989,754.871 430.989,735.759C430.989,716.648 435.131,693.616 440.233,693.616Z" style="fill:rgb(188,218,209);"/>
                    </g>
                    <g transform="matrix(0.0572677,0.77194,-0.493768,0.0422216,562.986,97.9935)">
                        <path d="M440.233,693.616C445.334,693.616 449.476,716.648 449.476,735.759C449.476,754.871 441.995,762.063 436.893,762.063C431.791,762.063 430.989,754.871 430.989,735.759C430.989,716.648 435.131,693.616 440.233,693.616Z" style="fill:rgb(188,218,209);"/>
                    </g>
                    <g transform="matrix(0.268849,0.782625,-0.529545,0.209673,468.398,-3.72582)">
                        <path d="M440.233,693.616C445.334,693.616 449.476,716.648 449.476,735.759C449.476,754.871 441.995,762.063 436.893,762.063C431.791,762.063 430.989,754.871 430.989,735.759C430.989,716.648 435.131,693.616 440.233,693.616Z" style="fill:rgb(188,218,209);"/>
                    </g>
                    <g transform="matrix(0.347629,0.781522,-0.500779,0.256748,389.369,-1.92964)">
                        <path d="M440.233,693.616C445.334,693.616 449.476,716.648 449.476,735.759C449.476,754.871 441.995,762.063 436.893,762.063C431.791,762.063 430.989,754.871 430.989,735.759C430.989,716.648 435.131,693.616 440.233,693.616Z" style="fill:rgb(188,218,209);"/>
                    </g>
                    <g transform="matrix(-0.799482,-0.0750961,-0.0479509,0.588401,541.432,116.294)">
                        <path d="M440.233,693.616C445.334,693.616 449.476,716.648 449.476,735.759C449.476,754.871 441.995,762.063 436.893,762.063C431.791,762.063 430.989,754.871 430.989,735.759C430.989,716.648 435.131,693.616 440.233,693.616Z" style="fill:rgb(188,218,209);"/>
                    </g>
                    <g transform="matrix(-0.668679,0.251777,0.182076,0.557364,297.087,40.2449)">
                        <path d="M440.233,693.616C445.334,693.616 449.476,716.648 449.476,735.759C449.476,754.871 441.995,762.063 436.893,762.063C431.791,762.063 430.989,754.871 430.989,735.759C430.989,716.648 435.131,693.616 440.233,693.616Z" style="fill:rgb(188,218,209);"/>
                    </g>
                    <g transform="matrix(0.602872,0.637118,-0.385941,0.420931,176.789,-22.3718)">
                        <path d="M440.233,693.616C445.334,693.616 449.476,716.648 449.476,735.759C449.476,754.871 441.995,762.063 436.893,762.063C431.791,762.063 430.989,754.871 430.989,735.759C430.989,716.648 435.131,693.616 440.233,693.616Z" style="fill:rgb(188,218,209);"/>
                    </g>
                    <g transform="matrix(-0.726109,-0.318666,-0.211327,0.555017,656.677,210.773)">
                        <path d="M440.233,693.616C445.334,693.616 449.476,716.648 449.476,735.759C449.476,754.871 441.995,762.063 436.893,762.063C431.791,762.063 430.989,754.871 430.989,735.759C430.989,716.648 435.131,693.616 440.233,693.616Z" style="fill:rgb(188,218,209);"/>
                    </g>
                    <g transform="matrix(-0.652597,-0.356403,-0.33197,0.700628,741.659,98.3513)">
                        <path d="M440.233,693.616C445.334,693.616 449.476,716.648 449.476,735.759C449.476,754.871 441.995,762.063 436.893,762.063C431.791,762.063 430.989,754.871 430.989,735.759C430.989,716.648 435.131,693.616 440.233,693.616Z" style="fill:rgb(188,218,209);"/>
                    </g>
                </g>
                <g transform="matrix(-0.573668,-0.269836,0.234107,-0.573668,179.106,1660.51)">
                    <g transform="matrix(0.549135,0,0,0.589552,0,0)">
                        <path d="M265.24,970.652C284.073,886.848 341.109,813.146 428.961,761.529" style="fill:none;stroke:rgb(102,160,158);stroke-width:9.58px;"/>
                    </g>
                    <g transform="matrix(0.288792,0.583133,-0.341882,0.195155,366.969,44.3127)">
                        <path d="M440.233,693.616C445.334,693.616 449.476,716.648 449.476,735.759C449.476,754.871 445.334,762.872 440.233,762.872C435.131,762.872 430.989,754.871 430.989,735.759C430.989,716.648 435.131,693.616 440.233,693.616Z" style="fill:rgb(102,160,158);"/>
                    </g>
                    <g transform="matrix(0.0492692,0.664124,-0.42937,0.036715,517.358,148.657)">
                        <path d="M440.233,693.616C445.334,693.616 449.476,716.648 449.476,735.759C449.476,754.871 441.995,762.063 436.893,762.063C431.791,762.063 430.989,754.871 430.989,735.759C430.989,716.648 435.131,693.616 440.233,693.616Z" style="fill:rgb(102,160,158);"/>
                    </g>
                    <g transform="matrix(0.251692,0.732682,-0.451906,0.178932,416.626,41.2261)">
                        <path d="M440.233,693.616C445.334,693.616 449.476,716.648 449.476,735.759C449.476,754.871 441.995,762.063 436.893,762.063C431.791,762.063 430.989,754.871 430.989,735.759C430.989,716.648 435.131,693.616 440.233,693.616Z" style="fill:rgb(102,160,158);"/>
                    </g>
                    <g transform="matrix(0.305459,0.686718,-0.500779,0.256748,406.544,36.6821)">
                        <path d="M440.233,693.616C445.334,693.616 449.476,716.648 449.476,735.759C449.476,754.871 441.995,762.063 436.893,762.063C431.791,762.063 430.989,754.871 430.989,735.759C430.989,716.648 435.131,693.616 440.233,693.616Z" style="fill:rgb(102,160,158);"/>
                    </g>
                    <g transform="matrix(-0.539993,-0.050722,-0.0479509,0.588401,429.595,105.789)">
                        <path d="M440.233,693.616C445.334,693.616 449.476,716.648 449.476,735.759C449.476,754.871 441.995,762.063 436.893,762.063C431.791,762.063 430.989,754.871 430.989,735.759C430.989,716.648 435.131,693.616 440.233,693.616Z" style="fill:rgb(102,160,158);"/>
                    </g>
                    <g transform="matrix(-0.539533,-0.236784,-0.189757,0.498366,562.14,216.461)">
                        <path d="M440.233,693.616C445.334,693.616 449.476,716.648 449.476,735.759C449.476,754.871 441.995,762.063 436.893,762.063C431.791,762.063 430.989,754.871 430.989,735.759C430.989,716.648 435.131,693.616 440.233,693.616Z" style="fill:rgb(102,160,158);"/>
                    </g>
                    <g transform="matrix(-0.474794,-0.259299,-0.195293,0.412169,566.965,263.465)">
                        <path d="M440.233,693.616C445.334,693.616 449.476,716.648 449.476,735.759C449.476,754.871 441.995,762.063 436.893,762.063C431.791,762.063 430.989,754.871 430.989,735.759C430.989,716.648 435.131,693.616 440.233,693.616Z" style="fill:rgb(102,160,158);"/>
                    </g>
                </g>
            </g>
            <g transform="matrix(-1.15386,0,0,1.15386,1106.73,-64.2284)">
                <g transform="matrix(1.17736,0,0,1.17736,-76.3153,-123.566)">
                    <path d="M370.48,660.885C378.162,601.058 386.541,526.834 372.825,533.416C341.814,548.297 306.099,602.865 288.255,660.885L370.48,660.885Z" style="fill:rgb(254,158,155);"/>
                    <clipPath id="_clip1">
                        <path d="M370.48,660.885C378.162,601.058 386.541,526.834 372.825,533.416C341.814,548.297 306.099,602.865 288.255,660.885L370.48,660.885Z"/>
                    </clipPath>
                    <g clip-path="url(#_clip1)">
                        <g transform="matrix(-0.487611,0.365976,0.312298,0.416092,443.489,44.2617)">
                            <ellipse cx="716.185" cy="713.203" rx="33.711" ry="33.625" style="fill:rgb(254,139,136);"/>
                        </g>
                        <g transform="matrix(-0.199645,0.149844,0.161541,0.21523,344.773,379.246)">
                            <ellipse cx="716.185" cy="713.203" rx="33.711" ry="33.625" style="fill:rgb(254,139,136);"/>
                        </g>
                    </g>
                </g>
                <g transform="matrix(-1.17736,0,0,1.17736,1164.08,-123.566)">
                    <path d="M288.255,660.885C306.099,602.865 341.814,548.297 372.825,533.416C386.541,526.834 378.162,601.058 370.48,660.885L288.255,660.885Z" style="fill:rgb(254,158,155);"/>
                    <clipPath id="_clip2">
                        <path d="M288.255,660.885C306.099,602.865 341.814,548.297 372.825,533.416C386.541,526.834 378.162,601.058 370.48,660.885L288.255,660.885Z"/>
                    </clipPath>
                    <g clip-path="url(#_clip2)">
                        <g transform="matrix(0.24234,0.0657138,-0.0749113,0.276258,229.453,356.586)">
                            <ellipse cx="716.185" cy="713.203" rx="33.711" ry="33.625" style="fill:rgb(254,139,136);"/>
                        </g>
                        <g transform="matrix(0.149978,0.0406686,-0.0444381,0.163879,265.317,417.922)">
                            <ellipse cx="716.185" cy="713.203" rx="33.711" ry="33.625" style="fill:rgb(254,139,136);"/>
                        </g>
                    </g>
                </g>
                <g transform="matrix(1.01148,-0.122864,0.133057,1.08873,-55.0674,25.4624)">
                    <path d="M451.534,400.366C448.982,383.55 477.523,358.846 486.298,355.01C495.04,351.189 509.98,369.793 504.186,377.353C498.392,384.912 452.643,405.006 451.534,400.366Z" style="fill:rgb(253,107,103);"/>
                </g>
                <g transform="matrix(1.13701,-0.138113,0.145144,1.18762,-128.453,-1.98785)">
                    <path d="M486.317,387.488C485.43,380.862 516.453,338.036 538.447,339.203C548.113,339.716 552.455,370.909 543.767,378.957C535.079,387.004 487.204,394.114 486.317,387.488Z" style="fill:rgb(253,107,103);"/>
                </g>
                <path d="M756.79,654.534C755.622,612.517 751.919,577.234 749.295,562.525C730.809,458.893 648.58,369.734 543.314,369.203C438.048,369.734 355.819,458.893 337.332,562.525C334.706,577.248 331.634,612.497 330.746,654.534L756.79,654.534Z" style="fill:rgb(254,180,178);"/>
                <clipPath id="_clip3">
                    <path d="M756.79,654.534C755.622,612.517 751.919,577.234 749.295,562.525C730.809,458.893 648.58,369.734 543.314,369.203C438.048,369.734 355.819,458.893 337.332,562.525C334.706,577.248 331.634,612.497 330.746,654.534L756.79,654.534Z"/>
                </clipPath>
                <g clip-path="url(#_clip3)">
                    <g transform="matrix(0.847114,0.0430574,-0.0492023,0.96801,82.8002,-308.915)">
                        <ellipse cx="716.185" cy="713.203" rx="33.711" ry="33.625" style="fill:rgb(254,165,163);"/>
                    </g>
                    <g transform="matrix(0.25025,-0.123278,0.13025,0.264404,398.112,508.517)">
                        <ellipse cx="716.185" cy="713.203" rx="33.711" ry="33.625" style="fill:rgb(254,165,163);"/>
                    </g>
                    <g transform="matrix(0.790643,-0.612278,0.612278,0.790643,-162.619,411.812)">
                        <ellipse cx="522.817" cy="430.672" rx="20.488" ry="28.446" style="fill:rgb(254,165,163);"/>
                    </g>
                    <g transform="matrix(0.925189,-0.379507,0.379507,0.925189,-132.774,204.193)">
                        <ellipse cx="451.534" cy="438.87" rx="15.874" ry="8.198" style="fill:rgb(254,165,163);"/>
                    </g>
                </g>
                <g transform="matrix(1.14542,0,0,1.13369,-101.725,-64.15)">
                    <path d="M541.963,383.304C536.609,396.199 564.079,436.175 573.887,430.672C583.695,425.169 612.212,372.792 594.738,351.552C584.262,338.818 548.652,367.193 541.963,383.304Z" style="fill:rgb(253,107,103);"/>
                </g>
                <g transform="matrix(1,0,0,1,-2.51404,9.42858)">
                    <g transform="matrix(1.04746,0,0,1.04746,-29.9606,-24.7023)">
                        <g transform="matrix(-1.23866,-0.23697,-0.220305,1.15155,3247.86,-159.109)">
                            <path d="M2114.22,1019.91C2120.16,1022.13 2128.02,1017.99 2128.04,1018.91C2128.16,1024.34 2121.44,1032.07 2116.22,1035.04L2114.22,1019.91Z"/>
                        </g>
                        <g transform="matrix(1.23866,-0.23697,0.220305,1.15155,-2148.13,-159.109)">
                            <path d="M2114.22,1019.91C2120.16,1022.13 2128.02,1017.99 2128.04,1018.91C2128.16,1024.34 2121.44,1032.07 2116.22,1035.04L2114.22,1019.91Z"/>
                        </g>
                        <g transform="matrix(1,0,0,1,-4.38307,-1.10134e-13)">
                            <circle cx="427.545" cy="531.3" r="27.325"/>
                        </g>
                        <g transform="matrix(1,0,0,1,249.676,0)">
                            <circle cx="427.545" cy="531.3" r="27.325"/>
                        </g>
                        <g transform="matrix(1,0,0,1,-7.52985,-0.551437)">
                            <circle cx="437.886" cy="527.93" r="10.341" style="fill:white;"/>
                        </g>
                        <g transform="matrix(1,0,0,1,246.529,-0.551437)">
                            <circle cx="437.886" cy="527.93" r="10.341" style="fill:white;"/>
                        </g>
                    </g>
                    <g transform="matrix(-0.839949,0,0,1,1636.59,-520.593)">
                        <path d="M1184.56,1068.6C1195.1,1086.94 1208.43,1093.68 1222.82,1095.1C1234.77,1096.28 1247.59,1093.67 1260.4,1090.71C1272.39,1087.94 1284.39,1084.84 1295.7,1084.89C1307.46,1084.85 1319.68,1088.37 1332.02,1091.42C1345.02,1094.64 1358.14,1097.39 1370.89,1095.76C1384.99,1093.96 1398.79,1086.95 1411.43,1069.12C1412.08,1068.22 1411.74,1067.05 1410.67,1066.5C1409.6,1065.95 1408.2,1066.23 1407.55,1067.13C1395.57,1083.2 1383.02,1089.62 1370.09,1091.05C1358.14,1092.37 1345.97,1089.48 1333.86,1086.33C1320.94,1082.96 1308.08,1079.29 1295.72,1079.21C1283.82,1079.23 1271.19,1082.39 1258.63,1085.44C1246.63,1088.35 1234.69,1091.15 1223.42,1090.28C1210.43,1089.26 1198.5,1083.24 1188.45,1066.96C1187.91,1066.06 1186.6,1065.7 1185.53,1066.15C1184.46,1066.6 1184.02,1067.7 1184.56,1068.6Z" style="fill:rgb(182,70,70);"/>
                    </g>
                </g>
            </g>
        </g>
    </g>
</svg>
