<?xml version="1.0" encoding="UTF-8" standalone="no"?>
<!DOCTYPE svg PUBLIC "-//W3C//DTD SVG 1.1//EN" "http://www.w3.org/Graphics/SVG/1.1/DTD/svg11.dtd">
<svg width="100%" height="100%" viewBox="0 0 618 591" version="1.1" xmlns="http://www.w3.org/2000/svg" xmlns:xlink="http://www.w3.org/1999/xlink" xml:space="preserve" xmlns:serif="http://www.serif.com/" style="fill-rule:evenodd;clip-rule:evenodd;stroke-linejoin:round;stroke-miterlimit:2;">
    <g transform="matrix(1,0,0,1,-107.76,-82.8934)">
        <g id="drawing" transform="matrix(0.862283,-0.810596,0.818744,0.87095,-338.049,446.264)">
            <path d="M823.448,371.098C823.448,358.99 813.534,349.174 801.304,349.174C693.544,349.174 229.168,349.174 229.168,349.174L142.854,394.052L229.168,431.766L801.304,431.766C813.534,431.766 823.448,421.951 823.448,409.842C823.448,397.865 823.448,383.076 823.448,371.098Z" style="fill:rgb(254,160,157);"/>
            <clipPath id="_clip1">
                <path d="M823.448,371.098C823.448,358.99 813.534,349.174 801.304,349.174C693.544,349.174 229.168,349.174 229.168,349.174L142.854,394.052L229.168,431.766L801.304,431.766C813.534,431.766 823.448,421.951 823.448,409.842C823.448,397.865 823.448,383.076 823.448,371.098Z"/>
            </clipPath>
            <g clip-path="url(#_clip1)">
                <g transform="matrix(13.5176,-0.0653888,0.00637019,1.29081,-551.461,-293.514)">
                    <rect x="56.042" y="546.125" width="39.708" height="46.061" style="fill:rgb(254,149,146);"/>
                </g>
                <g transform="matrix(13.5176,-0.0653888,0.00637019,1.29081,-551.365,-386.196)">
                    <rect x="56.042" y="546.125" width="39.708" height="46.061" style="fill:rgb(254,174,172);"/>
                </g>
                <g transform="matrix(2.26896,-0.0463913,0.0468577,2.24638,-16.3906,-889.588)">
                    <path d="M94.126,547.835L56.042,546.125L56.042,592.186L94.126,593.896L101.1,579.383L101.1,564.709L94.126,547.835Z" style="fill:rgb(254,180,178);"/>
                </g>
                <g transform="matrix(2.26942,-0.0109779,0.0110882,2.24683,613.809,-888.863)">
                    <rect x="56.042" y="546.125" width="39.708" height="46.061" style="fill:rgb(253,106,102);"/>
                </g>
                <g transform="matrix(2.26896,-0.0463913,0.0468577,2.24638,490.858,-891.834)">
                    <path d="M101.674,547.757L108.648,564.632L108.648,579.305L101.674,593.818C101.674,593.818 95.491,593.882 87.943,593.959L94.916,579.446L94.916,564.772L87.943,547.898L101.674,547.757Z" style="fill:rgb(196,91,91);"/>
                    <clipPath id="_clip2">
                        <path d="M101.674,547.757L108.648,564.632L108.648,579.305L101.674,593.818C101.674,593.818 95.491,593.882 87.943,593.959L94.916,579.446L94.916,564.772L87.943,547.898L101.674,547.757Z"/>
                    </clipPath>
                    <g clip-path="url(#_clip2)">
                        <g transform="matrix(0.560816,-0.00297136,0.00176351,0.332846,57.2211,397.794)">
                            <rect x="56.042" y="546.125" width="39.708" height="46.061" style="fill:rgb(190,80,80);"/>
                        </g>
                        <g transform="matrix(0.560816,-0.00297136,0.00176351,0.332846,56.2128,367.77)">
                            <rect x="56.042" y="546.125" width="39.708" height="46.061" style="fill:rgb(202,102,102);"/>
                        </g>
                    </g>
                </g>
                <g transform="matrix(0.737668,-0.00356833,0.0036042,0.730327,96.704,-23.2754)">
                    <path d="M95.75,546.125L56.042,546.125L56.042,592.186L95.75,592.186C105.441,576.828 104.761,561.475 95.75,546.125Z" style="fill:rgb(196,91,91);"/>
                </g>
            </g>
        </g>
    </g>
</svg>
