<?xml version="1.0" encoding="UTF-8" standalone="no"?>
<!DOCTYPE svg PUBLIC "-//W3C//DTD SVG 1.1//EN" "http://www.w3.org/Graphics/SVG/1.1/DTD/svg11.dtd">
<svg width="100%" height="100%" viewBox="0 0 574 552" version="1.1" xmlns="http://www.w3.org/2000/svg" xmlns:xlink="http://www.w3.org/1999/xlink" xml:space="preserve" xmlns:serif="http://www.serif.com/" style="fill-rule:evenodd;clip-rule:evenodd;stroke-linejoin:round;stroke-miterlimit:2;">
    <g transform="matrix(1,0,0,1,-129.761,-102.56)">
        <g id="painting" transform="matrix(1,0,0,1,-2.03786,-5.17089)">
            <g transform="matrix(-1.49296,1.38396,-1.15017,-1.24075,1371.61,-107.361)">
                <path d="M509.774,141.27C543.585,142.198 584.338,146.017 602.067,154.1C596.271,165.572 595.567,182.633 603.5,195.261C583.243,207.383 540.027,212.154 509.774,211.508C386.926,208.886 314.374,193.339 314.374,173.956C314.374,154.573 386.939,137.897 509.774,141.27Z" style="fill:rgb(252,131,127);"/>
                <clipPath id="_clip1">
                    <path d="M509.774,141.27C543.585,142.198 584.338,146.017 602.067,154.1C596.271,165.572 595.567,182.633 603.5,195.261C583.243,207.383 540.027,212.154 509.774,211.508C386.926,208.886 314.374,193.339 314.374,173.956C314.374,154.573 386.939,137.897 509.774,141.27Z"/>
                </clipPath>
                <g clip-path="url(#_clip1)">
                    <g transform="matrix(1,3.33067e-16,0,1,-1.98083,10.6859)">
                        <path d="M509.774,141.27C543.585,142.198 584.338,146.017 602.067,154.1C596.271,165.572 595.567,182.633 603.5,195.261C583.243,207.383 540.027,212.154 509.774,211.508C386.926,208.886 314.374,193.339 314.374,173.956C314.374,154.573 386.939,137.897 509.774,141.27Z" style="fill:rgb(254,141,138);"/>
                    </g>
                    <g transform="matrix(-0.360245,-0.401826,0.333945,-0.433472,533.752,499.696)">
                        <circle cx="248.325" cy="522.11" r="61.333" style="fill:rgb(196,91,91);"/>
                        <clipPath id="_clip2">
                            <circle cx="248.325" cy="522.11" r="61.333"/>
                        </clipPath>
                        <g clip-path="url(#_clip2)">
                            <g transform="matrix(-1.49296,1.38396,-1.15017,-1.24075,1362.27,-134.694)">
                                <path d="M589.819,202.236C564.768,208.55 561.566,144.067 581.875,148.172C590.025,149.82 596.99,151.785 602.067,154.1C596.271,165.572 607.195,180.291 615.128,192.918C609.177,196.48 600.24,199.609 589.819,202.236Z" style="fill:rgb(202,102,102);"/>
                            </g>
                        </g>
                    </g>
                </g>
            </g>
            <g transform="matrix(1.03443,0.489143,-0.524098,1.10836,321.874,-135.167)">
                <path d="M182.742,491.383C215.121,491.383 241.409,518.567 241.409,552.049C241.409,585.532 208.215,604.851 180.011,619.543C171.103,624.184 164.004,629.082 157.512,647.166C124.244,634.378 110.329,570.701 117.249,543.175C125.777,509.246 150.363,491.383 182.742,491.383Z" style="fill:rgb(254,180,178);"/>
                <clipPath id="_clip3">
                    <path d="M182.742,491.383C215.121,491.383 241.409,518.567 241.409,552.049C241.409,585.532 208.215,604.851 180.011,619.543C171.103,624.184 164.004,629.082 157.512,647.166C124.244,634.378 110.329,570.701 117.249,543.175C125.777,509.246 150.363,491.383 182.742,491.383Z"/>
                </clipPath>
                <g clip-path="url(#_clip3)">
                    <g transform="matrix(0.790057,-0.348669,0.373586,0.737363,-203.803,211.895)">
                        <path d="M147.064,671.341C141.344,658.722 151.288,636.321 169.064,630.841C200.148,621.257 284.07,596.533 276.564,511.841C350.623,612.187 310.339,661.661 147.064,671.341Z" style="fill:rgb(254,169,166);"/>
                    </g>
                </g>
            </g>
        </g>
    </g>
</svg>
