<?xml version="1.0" encoding="UTF-8" standalone="no"?>
<!DOCTYPE svg PUBLIC "-//W3C//DTD SVG 1.1//EN" "http://www.w3.org/Graphics/SVG/1.1/DTD/svg11.dtd">
<svg width="100%" height="100%" viewBox="0 0 578 592" version="1.1" xmlns="http://www.w3.org/2000/svg" xmlns:xlink="http://www.w3.org/1999/xlink" xml:space="preserve" xmlns:serif="http://www.serif.com/" style="fill-rule:evenodd;clip-rule:evenodd;stroke-linejoin:round;stroke-miterlimit:2;">
    <g transform="matrix(1,0,0,1,-127.827,-82.5425)">
        <g id="planting" transform="matrix(1.50338,0,0,1.41818,-194.645,-260.587)">
            <path d="M387.157,650.113C379.767,622.962 373.27,599.975 374.768,549.408C380.707,525.11 419.106,497.855 419.202,495.501C419.3,493.074 393.477,504.903 375.353,529.193C378.99,495.847 386.694,444.246 401.859,407.706C420.962,361.678 447.443,334.233 470.468,323.209C443.767,323.087 387.234,382.831 369.064,477.85C364.737,458.069 337.67,423.364 337.306,424.629C336.716,426.678 363.378,474.348 363.465,493.756C358.325,547.951 357.692,596.423 370.3,649.481C373.072,661.149 390.655,662.969 387.157,650.113Z" style="fill:rgb(254,141,138);"/>
            <clipPath id="_clip1">
                <path d="M387.157,650.113C379.767,622.962 373.27,599.975 374.768,549.408C380.707,525.11 419.106,497.855 419.202,495.501C419.3,493.074 393.477,504.903 375.353,529.193C378.99,495.847 386.694,444.246 401.859,407.706C420.962,361.678 447.443,334.233 470.468,323.209C443.767,323.087 387.234,382.831 369.064,477.85C364.737,458.069 337.67,423.364 337.306,424.629C336.716,426.678 363.378,474.348 363.465,493.756C358.325,547.951 357.692,596.423 370.3,649.481C373.072,661.149 390.655,662.969 387.157,650.113Z"/>
            </clipPath>
            <g clip-path="url(#_clip1)">
                <g transform="matrix(0.665166,0,0,0.705129,129.471,183.747)">
                    <path d="M375.352,689.663C350.334,607.859 349.446,507.85 362.912,432.246C380.447,333.799 424.943,256.142 475.27,216.532C295.532,153.74 220.637,573.85 375.352,689.663Z" style="fill:rgb(253,151,148);"/>
                </g>
            </g>
            <g transform="matrix(0.555667,-0.391575,0.377632,0.535729,-4.13504,258.792)">
                <path d="M202.698,280.697C202.698,280.697 178.323,392.509 178.323,453.822C178.323,501.769 217.251,540.697 265.198,540.697C313.146,540.697 352.952,501.761 352.073,453.822C349.573,317.509 202.698,280.697 202.698,280.697Z" style="fill:rgb(254,180,178);"/>
                <clipPath id="_clip2">
                    <path d="M202.698,280.697C202.698,280.697 178.323,392.509 178.323,453.822C178.323,501.769 217.251,540.697 265.198,540.697C313.146,540.697 352.952,501.761 352.073,453.822C349.573,317.509 202.698,280.697 202.698,280.697Z"/>
                </clipPath>
                <g clip-path="url(#_clip2)">
                    <g transform="matrix(0.79978,0.584576,-0.59763,0.879385,224.249,23.8285)">
                        <path d="M86.185,210.163C135.159,155.175 174.685,304.936 218.185,329.163C267.429,356.588 304.426,334.712 319.226,304.709C337.153,268.366 313.185,197.163 313.185,197.163C395.949,269.411 403.758,365.248 337.185,440.163C158.528,411.377 102.037,319.017 86.185,210.163Z" style="fill:rgb(254,169,166);"/>
                    </g>
                </g>
            </g>
            <g transform="matrix(-0.474464,-0.578118,-0.520649,0.427299,815.807,459.846)">
                <path d="M159.296,271.823C159.296,271.823 204.785,394.949 198.152,443.116C190.991,495.121 217.251,540.697 265.198,540.697C313.146,540.697 343.461,500.99 352.073,453.822C380.196,299.794 159.296,271.823 159.296,271.823Z" style="fill:rgb(254,180,178);"/>
                <clipPath id="_clip3">
                    <path d="M159.296,271.823C159.296,271.823 204.785,394.949 198.152,443.116C190.991,495.121 217.251,540.697 265.198,540.697C313.146,540.697 343.461,500.99 352.073,453.822C380.196,299.794 159.296,271.823 159.296,271.823Z"/>
                </clipPath>
                <g clip-path="url(#_clip3)">
                    <g transform="matrix(-0.564235,-0.763387,-0.728805,0.664156,867.562,527.627)">
                        <path d="M417.185,373.163C391.23,425.379 463.625,482.347 507.185,466.163C570.082,442.794 697.95,405.339 730.185,435.163C655.193,512.743 567.007,574.773 417.185,564.163C368.767,475.662 358.937,418.997 417.185,373.163Z" style="fill:rgb(254,169,166);"/>
                    </g>
                </g>
            </g>
            <g transform="matrix(-0.401341,-0.510431,-0.477197,0.375209,801.895,281.663)">
                <path d="M273.787,273.851C273.787,273.851 208.719,382.721 198.152,443.116C189.116,494.76 217.251,540.697 265.198,540.697C313.146,540.697 350.377,501.847 352.073,453.822C355.941,344.306 273.787,273.851 273.787,273.851Z" style="fill:rgb(254,180,178);"/>
                <clipPath id="_clip4">
                    <path d="M273.787,273.851C273.787,273.851 208.719,382.721 198.152,443.116C189.116,494.76 217.251,540.697 265.198,540.697C313.146,540.697 350.377,501.847 352.073,453.822C355.941,344.306 273.787,273.851 273.787,273.851Z"/>
                </clipPath>
                <g clip-path="url(#_clip4)">
                    <g transform="matrix(-0.633182,-0.861373,-0.85367,0.71797,758.633,771.073)">
                        <path d="M450.352,136.663C443.665,204.673 489.219,228.396 533.685,214.663C568.679,203.855 607.121,147.571 659.685,71.996C655.032,163.649 614.116,232.343 543.685,286.663C380.028,269.841 409.898,210.778 450.352,136.663Z" style="fill:rgb(254,169,166);"/>
                    </g>
                </g>
            </g>
        </g>
    </g>
</svg>
