<?xml version="1.0" encoding="UTF-8" standalone="no"?>
<!DOCTYPE svg PUBLIC "-//W3C//DTD SVG 1.1//EN" "http://www.w3.org/Graphics/SVG/1.1/DTD/svg11.dtd">
<svg width="100%" height="100%" viewBox="0 0 568 504" version="1.1" xmlns="http://www.w3.org/2000/svg" xmlns:xlink="http://www.w3.org/1999/xlink" xml:space="preserve" xmlns:serif="http://www.serif.com/" style="fill-rule:evenodd;clip-rule:evenodd;stroke-linejoin:round;stroke-miterlimit:2;">
    <g transform="matrix(1,0,0,1,-133.12,-126.397)">
        <g id="cooking" transform="matrix(1.19807,0,0,1.19747,-56.561,-25.2329)">
            <g transform="matrix(-1,-1.22465e-16,6.58508e-17,-0.537713,815.148,710.07)">
                <path d="M623.574,632.587L215.574,632.587L261.574,358.587L348.834,302.677L501.659,302.677L577.574,358.587L623.574,632.587Z" style="fill:rgb(254,141,138);"/>
                <clipPath id="_clip1">
                    <path d="M623.574,632.587L215.574,632.587L261.574,358.587L348.834,302.677L501.659,302.677L577.574,358.587L623.574,632.587Z"/>
                </clipPath>
                <g clip-path="url(#_clip1)">
                    <g transform="matrix(-0.834676,1.90098e-16,-1.02269e-16,-1.55305,767.938,1309.3)">
                        <path d="M493.046,683.876L559.046,413.876L691.046,420.876L620.046,653.876L493.046,683.876Z" style="fill:rgb(253,135,132);"/>
                    </g>
                    <g transform="matrix(0.834676,-1.90098e-16,-1.02269e-16,-1.55305,83.4273,1307.75)">
                        <path d="M493.046,683.876L559.046,413.876L691.046,420.876L620.046,653.876L493.046,683.876Z" style="fill:rgb(253,151,148);"/>
                    </g>
                    <g transform="matrix(-1,2.27751e-16,-1.22465e-16,-1.85973,824.906,1249.56)">
                        <path d="M201.574,348.587C248.849,308.986 559.056,302.372 627.574,344.587C644.571,377.391 637.875,424.837 587.203,374.97C578.499,402.866 529.28,403.698 510.574,377.587C496.911,397.358 478.233,398.822 462.574,377.587C447.243,401.868 414.238,398.639 389.574,376.587C368.57,408.286 310.905,396.898 291.574,368.587C278.889,409.833 234.579,400.794 227.574,370.587C205.711,404.738 176.437,387.436 201.574,348.587Z" style="fill:rgb(254,126,123);"/>
                    </g>
                </g>
            </g>
            <g transform="matrix(1,0,0,1,-14,11)">
                <path d="M201.574,348.587C158.912,327.662 157.183,265.678 235.096,197.013C343.438,101.531 471.165,91.013 569.118,184.876C660.616,272.554 655.781,313.407 627.574,344.587C644.571,377.391 637.875,424.837 587.203,374.97C578.499,402.866 529.28,403.698 510.574,377.587C496.911,397.358 478.233,398.822 462.574,377.587C447.243,401.868 414.238,398.639 389.574,376.587C368.57,408.286 310.905,396.898 291.574,368.587C278.889,409.833 234.579,400.794 227.574,370.587C205.711,404.738 176.437,387.436 201.574,348.587Z" style="fill:rgb(254,180,178);"/>
                <clipPath id="_clip2">
                    <path d="M201.574,348.587C158.912,327.662 157.183,265.678 235.096,197.013C343.438,101.531 471.165,91.013 569.118,184.876C660.616,272.554 655.781,313.407 627.574,344.587C644.571,377.391 637.875,424.837 587.203,374.97C578.499,402.866 529.28,403.698 510.574,377.587C496.911,397.358 478.233,398.822 462.574,377.587C447.243,401.868 414.238,398.639 389.574,376.587C368.57,408.286 310.905,396.898 291.574,368.587C278.889,409.833 234.579,400.794 227.574,370.587C205.711,404.738 176.437,387.436 201.574,348.587Z"/>
                </clipPath>
                <g clip-path="url(#_clip2)">
                    <g transform="matrix(0.834676,0,0,0.835093,61.2101,-4.95983)">
                        <path d="M142.313,489.962C142.313,489.962 62.071,291.918 231.801,205.952C116.363,343.252 215.95,396.292 246.706,408.24C310.23,432.918 423.376,437.348 523.725,427.048C715.05,407.41 623.083,228.5 478.531,137.137C780.143,202.806 725.778,449.112 699.365,491.995L142.313,489.962Z" style="fill:rgb(254,164,162);"/>
                    </g>
                </g>
            </g>
            <g>
                <g transform="matrix(0.714761,0.349247,-0.360217,0.737211,179.382,-133.031)">
                    <ellipse cx="324.074" cy="231.087" rx="24.5" ry="5.5" style="fill:rgb(202,102,102);"/>
                </g>
                <g transform="matrix(0.574365,-0.55042,0.567708,0.592405,100.45,219.324)">
                    <ellipse cx="324.074" cy="231.087" rx="24.5" ry="5.5" style="fill:rgb(202,102,102);"/>
                </g>
                <g transform="matrix(0.771875,-0.192527,0.198574,0.796119,-14.9226,50.931)">
                    <ellipse cx="324.074" cy="231.087" rx="24.5" ry="5.5" style="fill:rgb(252,130,126);"/>
                </g>
                <g transform="matrix(0.571105,0.553802,-0.571196,0.589043,241.359,-95.0823)">
                    <ellipse cx="324.074" cy="231.087" rx="24.5" ry="5.5" style="fill:rgb(252,130,126);"/>
                </g>
                <g transform="matrix(0.793032,0.062905,-0.0648809,0.817941,101.102,-8.89067)">
                    <ellipse cx="324.074" cy="231.087" rx="24.5" ry="5.5" style="fill:rgb(202,102,102);"/>
                </g>
                <g transform="matrix(0.657564,-0.447735,0.461799,0.678217,109.295,228.883)">
                    <ellipse cx="324.074" cy="231.087" rx="24.5" ry="5.5" style="fill:rgb(252,130,126);"/>
                </g>
                <g transform="matrix(0.714761,0.349247,-0.360217,0.737211,402.049,-58.3646)">
                    <ellipse cx="324.074" cy="231.087" rx="24.5" ry="5.5" style="fill:rgb(202,102,102);"/>
                </g>
                <g transform="matrix(0.789852,-0.0948183,0.0977965,0.814661,-43.4603,80.9813)">
                    <ellipse cx="324.074" cy="231.087" rx="24.5" ry="5.5" style="fill:rgb(202,102,102);"/>
                </g>
                <g transform="matrix(0.714761,0.349247,-0.360217,0.737211,204.882,-4.03126)">
                    <ellipse cx="324.074" cy="231.087" rx="24.5" ry="5.5" style="fill:rgb(202,102,102);"/>
                </g>
                <g transform="matrix(0.787886,0.109967,-0.113421,0.812633,175.986,-91.5822)">
                    <ellipse cx="324.074" cy="231.087" rx="24.5" ry="5.5" style="fill:rgb(252,130,126);"/>
                </g>
                <g transform="matrix(0.789448,-0.0981278,0.10121,0.814244,101.215,4.15017)">
                    <ellipse cx="324.074" cy="231.087" rx="24.5" ry="5.5" style="fill:rgb(252,130,126);"/>
                </g>
                <g transform="matrix(0.714761,0.349247,-0.360217,0.737211,314.049,-129.031)">
                    <ellipse cx="324.074" cy="231.087" rx="24.5" ry="5.5" style="fill:rgb(202,102,102);"/>
                </g>
                <g transform="matrix(0.727239,-0.322459,0.332587,0.750082,199.241,105.01)">
                    <ellipse cx="324.074" cy="231.087" rx="24.5" ry="5.5" style="fill:rgb(252,130,126);"/>
                </g>
                <g transform="matrix(0.795435,-0.0118606,0.0122331,0.820419,198.503,12.0996)">
                    <ellipse cx="324.074" cy="231.087" rx="24.5" ry="5.5" style="fill:rgb(202,102,102);"/>
                </g>
            </g>
        </g>
    </g>
</svg>
